<?xml version="1.0" encoding="utf-8"?>
<!-- Generator: Adobe Illustrator 25.0.1, SVG Export Plug-In . SVG Version: 6.00 Build 0)  -->
<svg version="1.1" id="Layer_1" xmlns="http://www.w3.org/2000/svg" xmlns:xlink="http://www.w3.org/1999/xlink" x="0px" y="0px"
	 viewBox="0 0 300 75" style="enable-background:new 0 0 300 75;" xml:space="preserve">
<g>
	<path d="M8.1,51.8v0.7c-0.7,0-1.3,0.2-1.7,0.3s-0.6,0.4-0.8,0.8c-0.2,0.4-0.2,0.9-0.2,1.8v15.8c0,0.8,0.1,1.3,0.2,1.7
		c0.2,0.4,0.4,0.7,0.8,0.8c0.4,0.2,0.9,0.2,1.7,0.2h2.3c1.3,0,2.3-0.2,3.1-0.6c0.7-0.4,1.2-1,1.5-1.8c0.3-0.8,0.5-2.1,0.7-3.5h0.8
		c-0.1,0.7-0.1,1.5-0.1,2.6c0,0.4,0,1,0.1,1.7c0,0.8,0.1,1.5,0.2,2.3c-1.1-0.1-2.3-0.1-3.7-0.1s-2.6,0-3.7,0c-0.7,0-1.5,0-2.5,0
		s-2.2,0-3.4,0S1,74.6,0,74.6v-0.7c0.7-0.1,1.3-0.2,1.7-0.3c0.4-0.1,0.6-0.4,0.8-0.8s0.2-0.9,0.2-1.8V55.3c0-0.8-0.1-1.4-0.2-1.8
		c-0.2-0.4-0.4-0.6-0.8-0.8c-0.4-0.1-0.9-0.2-1.7-0.2v-0.7c0.5,0,1.1,0.1,1.7,0.1c0.8,0,1.5,0,2.3,0c0.8,0,1.5,0,2.2,0
		C6.9,51.8,7.5,51.8,8.1,51.8z"/>
	<path d="M26.1,57.6c1.3,0,2.6,0.3,3.7,0.8c1.1,0.6,1.9,1.5,2.6,2.8c0.7,1.3,1,2.9,1,5s-0.3,3.8-1,5c-0.7,1.3-1.5,2.2-2.6,2.8
		c-1.1,0.6-2.3,0.8-3.7,0.8s-2.5-0.3-3.7-0.8c-1.1-0.6-2-1.5-2.6-2.8c-0.7-1.3-1-2.9-1-5s0.3-3.8,1-5c0.7-1.3,1.5-2.2,2.6-2.8
		C23.5,57.8,24.8,57.6,26.1,57.6z M26.1,58.2c-1.2,0-2.2,0.6-3,1.8c-0.8,1.3-1.2,3.3-1.2,6.2c0,2.8,0.4,4.9,1.2,6.1
		c0.8,1.3,1.8,1.8,3,1.8c1.2,0,2.2-0.6,3-1.8c0.8-1.3,1.2-3.3,1.2-6.1c0-2.8-0.4-4.9-1.2-6.2C28.3,58.8,27.3,58.2,26.1,58.2z"/>
	<path d="M43.7,57.6c0.7,0,1.3,0.1,2,0.3s1.2,0.4,1.8,0.8c0.5,0.3,0.8,0.7,1.2,1.2c0.3,0.4,0.4,0.8,0.4,1.3c0,0.6-0.2,1-0.5,1.3
		S47.8,63,47.3,63c-0.5,0-0.8-0.2-1.2-0.4s-0.5-0.7-0.5-1.2c0-0.5,0.2-0.8,0.4-1.2c0.3-0.3,0.6-0.5,0.9-0.6
		c-0.2-0.4-0.6-0.8-1.2-0.9c-0.5-0.3-1.2-0.4-1.7-0.4c-0.5,0-1.1,0.2-1.6,0.4s-1,0.7-1.5,1.3c-0.5,0.6-0.8,1.4-1.1,2.4
		c-0.3,1-0.4,2.3-0.4,3.8c0,1.8,0.2,3.4,0.7,4.4c0.4,1.2,1,1.9,1.7,2.4c0.7,0.5,1.5,0.8,2.3,0.8c0.8,0,1.7-0.3,2.5-0.8
		c0.8-0.5,1.5-1.3,2.2-2.5l0.6,0.2c-0.2,0.7-0.5,1.4-1.1,2.1c-0.5,0.7-1.2,1.3-1.9,1.7C45.6,75,44.6,75,43.4,75
		c-1.3,0-2.5-0.3-3.6-1c-1.1-0.7-1.9-1.7-2.5-2.9c-0.6-1.3-0.9-2.8-0.9-4.5c0-1.8,0.3-3.3,0.9-4.6s1.5-2.4,2.7-3.2
		C40.9,57.9,42.3,57.6,43.7,57.6z"/>
	<path d="M55.5,74.7c-1.4,0-2.4-0.3-3-1.1c-0.6-0.7-0.9-1.6-0.9-2.8c0-0.8,0.2-1.7,0.7-2.2c0.5-0.6,1-1.1,1.7-1.5
		c0.7-0.4,1.4-0.7,2.2-0.9c0.8-0.3,1.5-0.5,2.2-0.8c0.7-0.3,1.3-0.5,1.7-0.8c0.5-0.3,0.7-0.8,0.7-1.2v-2c0-0.8-0.2-1.6-0.4-2.1
		s-0.6-0.8-1.1-0.9c-0.5-0.2-0.9-0.3-1.5-0.3c-0.5,0-1.2,0.1-1.7,0.2c-0.6,0.2-1.1,0.5-1.5,0.9c0.4,0.1,0.8,0.3,1.1,0.7
		c0.3,0.3,0.5,0.8,0.5,1.3c0,0.5-0.2,0.9-0.5,1.3c-0.3,0.3-0.8,0.5-1.3,0.5c-0.6,0-1.1-0.2-1.3-0.6c-0.3-0.4-0.4-0.8-0.4-1.3
		c0-0.5,0.2-1,0.4-1.3c0.3-0.3,0.6-0.7,1.1-0.9c0.5-0.3,1.2-0.7,1.9-0.8c0.8-0.3,1.7-0.4,2.7-0.4c0.8,0,1.6,0.2,2.3,0.3
		c0.6,0.2,1.2,0.5,1.5,0.8c0.5,0.5,0.9,1.2,1.1,1.8c0.2,0.8,0.3,1.6,0.3,2.7V72c0,0.5,0.1,0.8,0.2,1.2c0.2,0.3,0.4,0.4,0.8,0.4
		c0.3,0,0.5-0.1,0.8-0.2c0.3-0.2,0.5-0.3,0.7-0.5l0.3,0.5c-0.5,0.3-0.8,0.6-1.3,0.8c-0.4,0.2-0.9,0.3-1.6,0.3
		c-1.2,0-1.8-0.3-2.2-0.8c-0.3-0.6-0.5-1.3-0.5-2c-0.8,1.2-1.7,1.9-2.5,2.3C57.3,74.5,56.4,74.7,55.5,74.7z M56.9,73.4
		c0.7,0,1.3-0.2,1.8-0.5c0.6-0.4,1.2-1,1.8-1.8v-6.3c-0.3,0.5-0.8,0.8-1.5,1.2c-0.7,0.3-1.3,0.6-2.1,0.9c-0.8,0.3-1.3,0.8-1.8,1.3
		s-0.8,1.4-0.8,2.4c0,1,0.3,1.8,0.8,2.2C55.6,73.2,56.2,73.4,56.9,73.4z"/>
	<path d="M72.3,52.8v5.3H77v0.7h-4.7v12.3c0,1,0.2,1.8,0.5,2.2c0.3,0.4,0.8,0.6,1.5,0.6s1.2-0.3,1.7-0.8c0.5-0.5,0.8-1.4,1.2-2.7
		l0.7,0.2c-0.2,1.3-0.7,2.3-1.3,3.2c-0.6,0.8-1.6,1.3-2.8,1.3c-0.8,0-1.3-0.1-1.8-0.3s-0.8-0.5-1.3-0.8c-0.5-0.5-0.8-1.1-1-1.7
		c-0.2-0.7-0.3-1.6-0.3-2.8V58.7h-3.1V58h3.1v-4.8c0.5,0,1.1-0.1,1.5-0.2C71.4,52.9,71.9,52.8,72.3,52.8z"/>
	<path d="M83.8,57.7v13.8c0,0.8,0.2,1.5,0.5,1.8c0.4,0.3,1,0.5,1.8,0.5v0.7c-0.3,0-0.9-0.1-1.7-0.1s-1.5-0.1-2.2-0.1
		c-0.7,0-1.5,0-2.2,0.1c-0.8,0.1-1.3,0.1-1.7,0.1v-0.7c0.8,0,1.5-0.2,1.8-0.5c0.4-0.3,0.5-0.9,0.5-1.8v-10c0-0.9-0.2-1.7-0.5-2.2
		c-0.3-0.5-1-0.7-1.9-0.7V58c0.7,0.1,1.3,0.1,2,0.1c0.6,0,1.2-0.1,1.8-0.2C82.8,57.9,83.3,57.8,83.8,57.7z M82.1,50
		c0.5,0,1.1,0.2,1.5,0.6c0.4,0.4,0.6,0.8,0.6,1.5c0,0.5-0.2,1.1-0.6,1.5s-0.8,0.6-1.5,0.6c-0.5,0-1.1-0.2-1.5-0.6
		c-0.4-0.4-0.6-0.8-0.6-1.5c0-0.5,0.2-1.1,0.6-1.5C81.1,50.2,81.5,50,82.1,50z"/>
	<path d="M95.6,57.6c1.3,0,2.6,0.3,3.7,0.8c1.1,0.6,1.9,1.5,2.6,2.8c0.7,1.3,1,2.9,1,5s-0.3,3.8-1,5s-1.5,2.2-2.6,2.8
		c-1.1,0.7-2.3,0.8-3.7,0.8c-1.3,0-2.5-0.3-3.7-0.8c-1.1-0.6-2-1.5-2.6-2.8c-0.7-1.3-1-2.9-1-5s0.3-3.8,1-5c0.7-1.3,1.5-2.2,2.6-2.8
		C93,57.8,94.3,57.6,95.6,57.6z M95.6,58.2c-1.2,0-2.2,0.6-3,1.8c-0.8,1.3-1.2,3.3-1.2,6.2c0,2.8,0.4,4.9,1.2,6.1
		c0.8,1.3,1.8,1.8,3,1.8c1.2,0,2.2-0.6,3-1.8c0.8-1.3,1.2-3.3,1.2-6.1c0-2.8-0.4-4.9-1.2-6.2C97.8,58.8,96.8,58.2,95.6,58.2z"/>
	<path d="M115.9,57.6c0.8,0,1.5,0.2,2,0.3c0.5,0.2,1,0.5,1.3,0.8c0.4,0.4,0.7,0.9,0.8,1.6c0.2,0.7,0.3,1.5,0.3,2.6v8.5
		c0,0.8,0.2,1.5,0.5,1.8c0.4,0.3,1,0.5,1.8,0.5v0.7c-0.3,0-0.9-0.1-1.7-0.1c-0.7,0-1.5-0.1-2.2-0.1c-0.7,0-1.4,0-2.1,0.1
		c-0.7,0.1-1.2,0.1-1.5,0.1v-0.7c0.8,0,1.3-0.2,1.6-0.5c0.3-0.3,0.5-0.9,0.5-1.8v-9.2c0-0.7-0.1-1.3-0.2-1.8c-0.2-0.5-0.3-1-0.7-1.3
		c-0.4-0.3-0.9-0.5-1.8-0.5c-1.3,0-2.4,0.5-3.2,1.7c-0.8,1.2-1.2,2.5-1.2,4.1v7.1c0,0.8,0.2,1.5,0.5,1.8c0.3,0.3,0.8,0.5,1.6,0.5
		v0.7c-0.3,0-0.8-0.1-1.5-0.1c-0.7,0-1.3-0.1-2.1-0.1c-0.8,0-1.4,0-2.2,0.1c-0.8,0.1-1.3,0.1-1.7,0.1v-0.7c0.8,0,1.5-0.2,1.8-0.5
		c0.4-0.3,0.5-0.9,0.5-1.8v-10c0-0.9-0.2-1.7-0.5-2.2c-0.3-0.5-1-0.7-1.9-0.7v-0.7c0.7,0.1,1.3,0.1,2,0.1c0.6,0,1.2-0.1,1.8-0.2
		c0.5-0.1,1.1-0.2,1.5-0.3v3.8c0.5-1.5,1.3-2.5,2.3-3C113.8,57.8,114.9,57.6,115.9,57.6z"/>
</g>
</svg>
