<?xml version="1.0" encoding="utf-8"?>
<!-- Generator: Adobe Illustrator 25.0.1, SVG Export Plug-In . SVG Version: 6.00 Build 0)  -->
<svg version="1.1" id="Layer_1" xmlns="http://www.w3.org/2000/svg" xmlns:xlink="http://www.w3.org/1999/xlink" x="0px" y="0px"
	 viewBox="0 0 300 75" style="enable-background:new 0 0 300 75;" xml:space="preserve">
<g>
	<path d="M15.8,52.4c-0.1,0.8-0.2,1.4-0.2,2.2c0,0.8-0.1,1.3-0.1,1.6c0,0.4,0,0.8,0,1.1c0,0.3,0.1,0.7,0.1,0.8h-0.8
		c-0.2-1.3-0.3-2.3-0.5-3c-0.3-0.8-0.7-1.3-1.2-1.6c-0.5-0.3-1.4-0.5-2.5-0.5H8c-0.8,0-1.3,0.1-1.7,0.2c-0.4,0.1-0.6,0.3-0.8,0.8
		c-0.2,0.4-0.2,0.9-0.2,1.7v15.7c0,0.8,0.1,1.3,0.2,1.8c0.2,0.4,0.4,0.7,0.8,0.8C6.8,74,7.3,74,8,74h2.3c1.3,0,2.3-0.2,3-0.5
		c0.7-0.3,1.2-0.9,1.5-1.7c0.3-0.8,0.5-1.9,0.7-3.3h0.8c-0.1,0.6-0.1,1.3-0.1,2.3c0,0.4,0,1,0.1,1.7c0,0.8,0.1,1.5,0.2,2.3
		c-1.1-0.1-2.3-0.1-3.6-0.1c-1.3,0-2.6,0-3.6,0c-0.7,0-1.4,0-2.5,0s-2.2,0-3.3,0s-2.4,0-3.4,0v-0.7c0.8-0.1,1.3-0.2,1.7-0.3
		c0.4-0.2,0.6-0.4,0.8-0.8c0.2-0.4,0.2-0.9,0.2-1.8V55.8c0-0.8-0.1-1.4-0.2-1.7c-0.2-0.4-0.4-0.6-0.8-0.8C1.3,53.1,0.8,53.1,0,53
		v-0.7c1.1,0,2.1,0.1,3.3,0.1s2.3,0,3.3,0s1.9,0,2.5,0c1,0,2,0,3.3,0S14.8,52.5,15.8,52.4z M10.3,63.3v0.7H4.5v-0.7H10.3z
		 M11.2,59.1c-0.1,1.2-0.2,2.1-0.2,2.8c0,0.7,0,1.2,0,1.7c0,0.5,0,1.1,0,1.7c0,0.7,0.1,1.6,0.2,2.8h-0.8c-0.1-0.7-0.2-1.3-0.3-2
		c-0.2-0.7-0.4-1.2-0.8-1.6c-0.4-0.4-1.1-0.6-2-0.6v-0.7c0.9,0,1.6-0.3,2-0.8c0.4-0.5,0.6-1.1,0.8-1.7c0.2-0.7,0.2-1.3,0.3-1.8
		L11.2,59.1C11.2,59,11.2,59.1,11.2,59.1z"/>
	<path d="M29.3,58.1c0.8,0,1.4,0.2,1.9,0.3s1,0.5,1.4,0.8c0.4,0.4,0.7,1,0.8,1.7c0.2,0.7,0.2,1.5,0.2,2.5v8.4c0,0.8,0.2,1.5,0.5,1.8
		c0.4,0.3,1,0.5,1.8,0.5v0.7c-0.3,0-0.9-0.1-1.7-0.1s-1.4-0.1-2.2-0.1c-0.8,0-1.4,0-2,0.1c-0.7,0-1.2,0.1-1.5,0.1v-0.7
		c0.8,0,1.3-0.2,1.6-0.5c0.3-0.3,0.5-0.9,0.5-1.8v-9.2c0-0.7-0.1-1.3-0.2-1.8c-0.1-0.5-0.3-1-0.7-1.3c-0.3-0.3-0.8-0.5-1.7-0.5
		c-0.8,0-1.6,0.3-2.2,0.8c-0.7,0.5-1.1,1.2-1.5,2c-0.4,0.8-0.5,1.8-0.5,2.9v7c0,0.8,0.2,1.5,0.5,1.7c0.3,0.3,0.8,0.5,1.6,0.5v0.7
		c-0.3,0-0.8-0.1-1.5-0.1s-1.3-0.1-2-0.1c-0.7,0-1.4,0-2.2,0.1c-0.8,0.1-1.3,0.1-1.7,0.1V74c0.8,0,1.4-0.2,1.8-0.5
		c0.4-0.3,0.5-0.9,0.5-1.7V62c0-0.9-0.2-1.7-0.5-2.1c-0.3-0.5-1-0.7-1.9-0.7v-0.7c0.7,0.1,1.3,0.1,2,0.1c0.6,0,1.2-0.1,1.8-0.2
		c0.5-0.1,1.1-0.2,1.5-0.3v3.8c0.5-1.4,1.3-2.3,2.3-3C27.3,58.3,28.3,58.1,29.3,58.1z M38.8,58.1c0.8,0,1.4,0.2,1.9,0.3
		c0.5,0.2,1,0.5,1.4,0.8c0.4,0.4,0.7,1,0.8,1.7c0.2,0.7,0.2,1.5,0.2,2.5v8.4c0,0.8,0.2,1.5,0.5,1.8c0.3,0.3,1,0.5,1.8,0.5v0.7
		c-0.3,0-0.9-0.1-1.7-0.1c-0.8,0-1.4-0.1-2.2-0.1c-0.8,0-1.4,0-2,0.1c-0.6,0.1-1.2,0.1-1.5,0.1v-0.7c0.8,0,1.3-0.2,1.6-0.5
		c0.3-0.3,0.5-0.9,0.5-1.8v-9.2c0-0.7-0.1-1.3-0.2-1.8c-0.1-0.5-0.3-1-0.7-1.3c-0.3-0.3-0.8-0.5-1.7-0.5c-1.3,0-2.3,0.5-3,1.7
		c-0.7,1.2-1.2,2.4-1.2,4.1l-0.1-3c0.6-1.4,1.3-2.4,2.3-3C36.8,58.3,37.7,58.1,38.8,58.1z"/>
	<path d="M51.1,75c-1.4,0-2.3-0.3-3-1.1c-0.6-0.7-0.9-1.6-0.9-2.8c0-0.8,0.2-1.7,0.7-2.2c0.5-0.6,1-1.1,1.7-1.4
		c0.7-0.3,1.4-0.7,2.1-0.9c0.8-0.3,1.4-0.5,2.1-0.8c0.7-0.3,1.3-0.5,1.7-0.8c0.5-0.3,0.7-0.8,0.7-1.2v-2c0-0.8-0.2-1.6-0.4-2
		c-0.3-0.5-0.6-0.8-1.1-0.9c-0.5-0.2-0.9-0.3-1.5-0.3c-0.5,0-1.1,0.1-1.8,0.2c-0.6,0.2-1.1,0.5-1.4,0.9c0.4,0.1,0.8,0.3,1.1,0.7
		c0.3,0.3,0.5,0.8,0.5,1.3c0,0.5-0.2,0.9-0.5,1.3c-0.3,0.3-0.8,0.5-1.3,0.5s-1.1-0.2-1.3-0.6c-0.2-0.4-0.4-0.8-0.4-1.3
		s0.2-1,0.4-1.3c0.3-0.3,0.6-0.7,1.1-0.9c0.5-0.3,1.1-0.7,1.9-0.8c0.8-0.3,1.7-0.4,2.7-0.4c0.8,0,1.6,0.2,2.2,0.3
		c0.6,0.2,1.1,0.5,1.5,0.8c0.5,0.5,0.9,1.1,1.1,1.8c0.2,0.8,0.3,1.6,0.3,2.7v8.7c0,0.5,0.1,0.8,0.2,1.1c0.2,0.3,0.4,0.4,0.8,0.4
		c0.3,0,0.5-0.1,0.8-0.2c0.3-0.1,0.5-0.3,0.7-0.5l0.3,0.5c-0.5,0.3-0.8,0.6-1.3,0.8C60,74.8,59.5,75,58.8,75c-1.1,0-1.8-0.3-2.2-0.8
		c-0.3-0.6-0.5-1.3-0.5-2c-0.7,1.1-1.4,1.8-2.3,2.3C52.9,74.8,52,75,51.1,75z M52.4,73.8c0.7,0,1.3-0.2,1.8-0.5
		c0.6-0.4,1.2-1,1.8-1.8v-6.2c-0.3,0.5-0.8,0.8-1.4,1.1c-0.7,0.3-1.3,0.6-2,0.9c-0.7,0.3-1.3,0.8-1.8,1.3C50.3,69.1,50,70,50,70.9
		s0.3,1.8,0.8,2.2C51.1,73.5,51.8,73.8,52.4,73.8z"/>
	<path d="M67.8,58.2v13.7c0,0.8,0.2,1.5,0.5,1.8c0.4,0.3,1,0.5,1.8,0.5v0.7c-0.3,0-0.9-0.1-1.7-0.1s-1.4-0.1-2.2-0.1
		c-0.8,0-1.4,0-2.2,0.1c-0.7,0.1-1.3,0.1-1.7,0.1v-0.7c0.8,0,1.4-0.2,1.8-0.5c0.4-0.3,0.5-0.9,0.5-1.8V62c0-0.9-0.2-1.7-0.5-2.1
		c-0.3-0.4-1-0.7-1.9-0.7v-0.7c0.7,0.1,1.3,0.1,2,0.1c0.6,0,1.2-0.1,1.8-0.2C66.7,58.4,67.3,58.3,67.8,58.2z M66.2,50.7
		c0.5,0,1.1,0.2,1.4,0.6c0.4,0.4,0.6,0.8,0.6,1.4c0,0.5-0.2,1.1-0.6,1.4c-0.4,0.4-0.8,0.6-1.4,0.6c-0.5,0-1.1-0.2-1.4-0.6
		c-0.4-0.4-0.6-0.8-0.6-1.4c0-0.5,0.2-1.1,0.6-1.4C65.2,50.8,65.6,50.7,66.2,50.7z"/>
	<path d="M76.8,50v21.8c0,0.8,0.2,1.5,0.5,1.8c0.4,0.3,1,0.5,1.8,0.5v0.7c-0.3,0-0.9-0.1-1.7-0.1s-1.4-0.1-2.2-0.1s-1.4,0-2.2,0.1
		c-0.8,0.1-1.3,0.1-1.7,0.1v-0.7c0.8,0,1.4-0.2,1.8-0.5s0.5-0.9,0.5-1.8v-18c0-0.9-0.2-1.7-0.5-2.1c-0.3-0.4-1-0.7-1.9-0.7v-0.7
		c0.7,0.1,1.3,0.1,2,0.1c0.6,0,1.2-0.1,1.8-0.2C75.8,50.3,76.4,50.2,76.8,50z"/>
</g>
</svg>
