<?xml version="1.0" encoding="utf-8"?>
<!-- Generator: Adobe Illustrator 25.0.1, SVG Export Plug-In . SVG Version: 6.00 Build 0)  -->
<svg version="1.1" id="Layer_1" xmlns="http://www.w3.org/2000/svg" xmlns:xlink="http://www.w3.org/1999/xlink" x="0px" y="0px"
	 viewBox="0 0 300 75" style="enable-background:new 0 0 300 75;" xml:space="preserve">
<g>
	<path d="M24.6,52.3V53c-0.7,0-1.2,0.2-1.7,0.2c-0.4,0.1-0.6,0.4-0.7,0.7S22,54.9,22,55.6v15.4c0,0.7,0.1,1.3,0.2,1.7
		c0.2,0.4,0.4,0.7,0.7,0.7c0.4,0.2,0.9,0.2,1.7,0.2v0.7c-0.4-0.1-1.1-0.1-1.8-0.1s-1.4,0-2.2,0c-0.7,0-1.6,0-2.2,0
		c-0.7,0-1.3,0.1-1.7,0.1v-0.7c0.7-0.1,1.2-0.2,1.7-0.2c0.4-0.2,0.6-0.4,0.7-0.7c0.2-0.4,0.2-0.9,0.2-1.7V54l0.2,0.1l-7.7,20.5h-0.5
		L3.3,54.3v16.4c0,0.7,0.1,1.3,0.2,1.7c0.2,0.4,0.4,0.7,0.7,0.9c0.3,0.2,1.1,0.2,1.8,0.3v0.7c-0.4-0.1-0.8-0.1-1.5-0.1
		c-0.6,0-1.2,0-1.7,0s-1.1,0-1.6,0c-0.5,0-0.9,0.1-1.2,0.1v-0.7c0.7-0.1,1.2-0.2,1.7-0.3s0.6-0.4,0.7-0.9c0.1-0.4,0.1-1,0.1-1.7
		V55.6c0-0.7-0.1-1.3-0.2-1.7c-0.2-0.4-0.4-0.6-0.7-0.7C1.2,53.1,0.7,53.1,0,53v-0.7c0.3,0,0.7,0.1,1.3,0.1c0.6,0,1.1,0,1.6,0
		c0.4,0,0.9,0,1.4,0c0.5,0,0.9-0.1,1.2-0.1l7.1,18.6l-0.5,0.3l7.1-18.8c0.2,0,0.5,0,0.7,0c0.2,0,0.4,0,0.7,0c0.7,0,1.4,0,2.2,0
		C23.5,52.4,24.2,52.4,24.6,52.3z"/>
	<path d="M33.9,57.9c1.3,0,2.5,0.2,3.6,0.8c1,0.6,1.9,1.5,2.5,2.7c0.7,1.2,1,2.8,1,4.9c0,2-0.3,3.7-1,4.9c-0.7,1.2-1.5,2.2-2.5,2.7
		c-1,0.6-2.2,0.8-3.6,0.8c-1.3,0-2.5-0.2-3.6-0.8c-1.1-0.6-1.9-1.5-2.5-2.7c-0.7-1.2-1-2.8-1-4.9c0-2,0.3-3.7,1-4.9
		c0.7-1.2,1.5-2.2,2.5-2.7C31.4,58.2,32.6,57.9,33.9,57.9z M33.9,58.6c-1.2,0-2.2,0.6-2.9,1.8s-1.2,3.2-1.2,6.1s0.4,4.8,1.2,6
		s1.7,1.8,2.9,1.8s2.2-0.6,2.9-1.8c0.7-1.2,1.2-3.2,1.2-6c0-2.8-0.4-4.8-1.2-6.1C36,59.1,35,58.6,33.9,58.6z"/>
	<path d="M47.6,50v22.8c-0.2,0.2-0.5,0.4-0.8,0.7c-0.2,0.2-0.6,0.4-0.8,0.7c-0.2,0.2-0.5,0.4-0.8,0.7l-0.5-0.2
		c0.1-0.2,0.2-0.6,0.2-0.9c0-0.3,0.1-0.6,0.1-0.9V53.9c0-0.9-0.2-1.7-0.5-2.1c-0.3-0.4-1-0.7-1.9-0.7v-0.7c0.7,0.1,1.3,0.1,1.9,0.1
		s1.2-0.1,1.7-0.2C46.8,50.2,47.2,50.2,47.6,50z M52.6,57.9c1.7,0,3.2,0.7,4.2,2.1c1.1,1.4,1.7,3.5,1.7,6.4c0,1.9-0.3,3.4-1,4.7
		c-0.7,1.2-1.5,2.2-2.5,2.8c-1.1,0.7-2.2,0.9-3.4,0.9c-1.1,0-2-0.3-3-0.9c-1-0.6-1.7-1.5-2.2-2.7l0.7,0.3c0.5,0.8,1.2,1.4,1.9,1.9
		c0.7,0.4,1.6,0.6,2.3,0.6c1.3,0,2.5-0.7,3.2-1.9c0.7-1.2,1.1-3.2,1.1-5.8c0-1.7-0.2-3.2-0.4-4.2c-0.2-1.1-0.7-1.9-1.2-2.5
		c-0.6-0.5-1.3-0.8-2.2-0.8c-1-0.1-1.8,0.3-2.7,1.2c-0.8,0.8-1.3,2.2-1.5,3.7l-0.4-0.4c0.2-1.7,0.8-3.2,1.9-4.1
		C50,58.5,51.2,57.9,52.6,57.9z"/>
	<path d="M66,58.1v13.5c0,0.8,0.2,1.5,0.5,1.7c0.4,0.3,1,0.4,1.8,0.4v0.7c-0.3,0-0.9-0.1-1.7-0.1s-1.4-0.1-2.2-0.1
		c-0.7,0-1.4,0-2.2,0.1c-0.7,0.1-1.3,0.1-1.7,0.1v-0.7c0.8,0,1.4-0.2,1.8-0.4C63,73,63,72.4,63,71.6v-9.8c0-0.9-0.2-1.7-0.5-2.1
		c-0.3-0.4-1-0.7-1.9-0.7v-0.7c0.7,0.1,1.3,0.1,1.9,0.1c0.6,0,1.2-0.1,1.7-0.2C65.1,58.3,65.5,58.1,66,58.1z M64.4,50.6
		c0.5,0,1.1,0.2,1.4,0.6s0.6,0.8,0.6,1.4c0,0.5-0.2,1.1-0.6,1.4c-0.4,0.3-0.8,0.6-1.4,0.6c-0.5,0-1-0.2-1.4-0.6s-0.6-0.8-0.6-1.4
		c0-0.5,0.2-1.1,0.6-1.4C63.5,50.7,63.9,50.6,64.4,50.6z"/>
	<path d="M74.9,50v21.5c0,0.8,0.2,1.5,0.5,1.7c0.4,0.3,1,0.4,1.8,0.4v0.7c-0.3,0-0.9-0.1-1.7-0.1c-0.7,0-1.4-0.1-2.2-0.1
		c-0.7,0-1.4,0-2.2,0.1c-0.7,0.1-1.3,0.1-1.7,0.1v-0.7c0.8,0,1.4-0.2,1.8-0.4c0.4-0.2,0.5-0.9,0.5-1.7V53.7c0-0.9-0.2-1.7-0.5-2.1
		s-1-0.7-1.9-0.7v-0.7c0.7,0.1,1.3,0.1,1.9,0.1c0.6,0,1.2-0.1,1.7-0.2C73.8,50.2,74.5,50.2,74.9,50z"/>
	<path d="M86.1,57.9c1.8,0,3.2,0.6,4.3,1.7c1.1,1.1,1.6,2.8,1.6,5.2H81v-0.6h8c0.1-1-0.1-1.9-0.2-2.8c-0.2-0.8-0.5-1.6-1-2.1
		c-0.5-0.5-1.1-0.7-1.7-0.7c-1,0-1.8,0.4-2.5,1.4c-0.7,1-1.2,2.5-1.3,4.6l0.1,0.2c-0.1,0.3-0.1,0.7-0.1,1.1s0,0.7,0,1.1
		c0,1.4,0.2,2.6,0.7,3.7c0.4,1.1,1.1,1.8,1.8,2.3c0.7,0.5,1.5,0.7,2.2,0.7c0.9,0,1.8-0.2,2.6-0.7c0.7-0.4,1.4-1.3,2-2.4l0.7,0.2
		c-0.2,0.7-0.6,1.3-1.1,2s-1.2,1.2-1.9,1.6c-0.7,0.4-1.7,0.6-2.7,0.6c-1.5,0-2.8-0.3-3.8-1.1c-1-0.7-1.9-1.7-2.5-2.8
		c-0.6-1.2-0.8-2.6-0.8-4.2c0-1.8,0.2-3.4,0.8-4.7c0.6-1.3,1.4-2.3,2.5-3.1C83.6,58.2,84.7,57.9,86.1,57.9z"/>
</g>
</svg>
