<?xml version="1.0" encoding="utf-8"?>
<!-- Generator: Adobe Illustrator 25.0.1, SVG Export Plug-In . SVG Version: 6.00 Build 0)  -->
<svg version="1.1" id="Layer_1" xmlns="http://www.w3.org/2000/svg" xmlns:xlink="http://www.w3.org/1999/xlink" x="0px" y="0px"
	 viewBox="0 0 238.7 77.1" style="enable-background:new 0 0 238.7 77.1;" xml:space="preserve">
<style type="text/css">
	.st0{fill:#FFFFFF;}
</style>
<g>
	<path class="st0" d="M23.1,8.1c0-0.3,0.3-0.5,0.8-0.5l0.7,0.1c4.3,0,7-1.6,7-3.1c0-1.3-2-2.5-6.8-2.5C19.6,2.1,6.7,5,6.7,12.4
		c0,9,26.8,9,26.8,20.2c-0.6,9.5-13.8,13.1-22.4,13.1C7,45.8,0,45.5,0,42.3c0-2.4,5.7-3.6,10-3.6c3.2,0,7,0.5,7.4,0.8
		c0.2,0.2,0.2,0.3,0.2,0.4c0,0.2-0.2,0.3-0.4,0.3c-0.1,0-0.2,0-0.3-0.1c-0.6-0.2-4.7-0.6-6.2-0.6c-3.8,0-9,0.8-9,2.5
		c0,2.4,5.2,2.6,10.2,2.6c11,0,20.1-4.7,20.1-11.6c0-9.6-27.1-7.7-27.1-19.8c0-9.2,13.9-12,20-12c6,0,8.3,1.6,8.3,3.3
		c0,2.1-3.6,4.5-8.1,4.5C23.1,9.1,23.1,8.1,23.1,8.1z"/>
	<path class="st0" d="M40.9,31.6c0.2,2.1,0.3,4.4,0.3,6.7c0,0.2,0,0.5,0.1,0.5c0,0,2.8-7.7,8.6-7.7c5.1,0,5.3,10.7,9.3,10.7
		c1.7,0,4.1-1.9,7.8-7.2c0.7-1,1.2-2.2,1.8-3.3l1,0.3c-0.5,1-1,2.1-1.7,3.2c-4.5,6.5-7.4,8.7-9.5,8.7c-4.7,0-5.3-11.1-9.6-11.1
		c-4.5,0-6.4,4.8-7.6,8c-0.4,0.8-0.4,2.1-0.6,2.6c-0.2,0.4-0.5,0.9-1,0.9c-0.5,0-0.8-0.4-0.8-0.9c0-1.3,0.4-1.5,0.4-3.2
		c0-13.6-1.6-18.7-1.6-22.4C37.7,8,41,3.7,44.3,3.7c3.6,0,4.9,2.3,4.9,5.8C49.2,15.8,44.7,25.7,40.9,31.6z M40.8,30.3
		C43.6,26,47.5,16,47.5,9.9c0-3.2-1-5.3-3.7-5.3c-3.9,0-4.4,7.9-4.4,10.8C39.4,18.2,40.3,23.5,40.8,30.3z"/>
	<path class="st0" d="M82.9,29.1c1.2,0,1.9,0.7,1.9,2.2c0,2.8-0.9,5.2-2.3,7c1,1.8,2.4,2.7,4,2.7c2.6,0,5.8-2.3,8.6-6.5
		c0.7-1,1.2-2.2,1.8-3.3l1,0.3c-0.5,1-1,2.1-1.7,3.2c-3.4,5.2-7.2,7.8-10.4,7.8c-1.9,0-3.5-0.9-4.5-2.8c-2.4,2.4-5.6,3.7-8.5,3.7
		c-3.5,0-6.4-1.9-6.4-6.1c0-4.9,4.8-11,11.3-11c2.6,0,4.1,0.9,4.1,1.6c0,0.3-0.4,0.4-0.6,0.4c-0.1,0-0.2-0.1-0.2-0.1
		c-0.8-0.8-1.7-1.2-3.7-1.2c-5.4,0-8.8,5.1-8.8,9.4c0,4.1,2.3,5.9,5.1,5.9c2.3,0,5.1-1.2,7.1-3.4c-0.5-1.3-0.8-2.9-0.8-4.9
		C80.1,31.4,81.2,29.1,82.9,29.1z M82.9,29.9c-1.1,0-1.8,1.3-1.8,3c0.2,1.9,0.5,3.4,1,4.6c1.1-1.6,1.9-3.6,1.9-5.8
		C83.9,30.6,83.6,29.9,82.9,29.9z"/>
	<path class="st0" d="M116,34.6c0.7-1,1.2-2.2,1.8-3.3l1,0.3c-0.5,1-1,2.1-1.7,3.2c-3.9,5.7-7.7,8.1-11,8.1
		c-6.1,0-10.5-8.1-10.5-18.7c0-15.6,4.9-23,8.2-23c1.8,0,3.1,2,3.1,5.8c0,5-2.2,13-8.6,23.9c1.6,6,4.6,10.7,8.7,10.7
		C109.6,41.6,112.7,39.5,116,34.6z M102.9,2.6c-2.4,0-5.8,6-5.8,19.6c0,2.5,0.3,5.1,0.8,7.6c5.6-9.5,7.5-17,7.5-21.6
		C105.4,4.5,104.3,2.6,102.9,2.6z"/>
	<path class="st0" d="M117.6,29.7c0-0.9,0.4-1,1.2-1c0.8,0,0.8,0.8,0.8,1c0.1,3.7,0.2,12.4,3,12.4c3.1,0,5.3-2.9,6.2-6
		c-1.7-1.1-2.9-3-2.9-5.1c0-2.2,0.8-3.2,1.8-3.2c1.3,0,3,1.9,3,4.5c0,1-0.2,2-0.5,3.1c0.6,0.3,1.3,0.4,2.1,0.4
		c2.3,0,4.7-1.5,6.1-5.3l0.8,0.6c-1.6,4.3-4.4,6.1-7,6.1c-0.9,0-1.7-0.2-2.5-0.5c-1.5,3.6-4.7,6.8-7.7,6.8
		C118.5,43.5,117.6,34.4,117.6,29.7z M129.1,34.9c0,0,0.1-0.6,0.1-1c0-2.3-1.1-4.4-1.7-4.4c-0.3,0-0.5,0.4-0.5,1.2
		C127,32.5,127.8,34,129.1,34.9z"/>
	<path class="st0" d="M137.5,20.4c0-0.8,0.4-1.8,1.3-1.8c1.3,0,1.5,0.8,1.5,1.9c0,0.8-0.3,1.8-1.3,1.8
		C139,22.4,137.5,22.3,137.5,20.4z M142.4,43c-2.7,0-4.9-2.4-4.9-9.5c0-1.3,0.1-2.6,0.2-3.6c0.1-0.8,1.2-0.8,1.4-0.8
		c0.3,0,0.3,0.5,0.3,0.5c-0.1,0.8-0.2,2-0.2,3.2c0,5.8,1.9,8.4,4.5,8.4c2.5,0,5.7-2.4,8.5-6.6c0.7-1,1.2-2.2,1.8-3.3l1,0.3
		c-0.5,1-1,2.1-1.7,3.2C151.7,37.8,146.4,43,142.4,43z"/>
	<path class="st0" d="M174.5,37.8c-2-0.5-3.9-0.8-5.8-1.1c-0.7-0.1-1.3-0.3-1.3-0.8c0-0.2,0.3-0.4,0.8-0.4c2.1-0.1,4.2-0.4,6.2-0.8
		v-1.6C174.4,20,180.9,0,197.9,0c6.6,0,9.7,3.2,9.7,7.7c0,9-12.1,23-31.4,27.3c0,0.8,0.1,1.6,0.2,2.4c6.6,1.2,13.6,2.8,20.8,6
		c0.6,0.3,0.8,0.5,0.8,0.8c0,0.3-0.5,1.3-1.1,1.3c-0.2,0-0.3-0.1-0.6-0.2c-3.4-1.7-11.4-4.9-19.8-7.1c0.2,2.4,0.5,4.7,0.9,5.6
		c0,0.3-0.3,0.5-1.1,0.6c-0.4,0-0.8-0.2-1-1.2C174.9,42.4,174.7,40.4,174.5,37.8z M174.4,35.3c-1.3,0.3-2.6,0.5-3.9,0.6
		c-0.3,0-0.4,0.1-0.4,0.2c0,0.1,0.1,0.2,0.3,0.2l4.2,0.7L174.4,35.3z M196.4,1.3c-12.6,0-20.2,17-20.2,31.1v2
		c18.3-4.1,29.1-17.2,29.1-25.7C205.3,4.3,202.5,1.3,196.4,1.3z"/>
	<path class="st0" d="M218.2,29.1c1.2,0,1.9,0.7,1.9,2.2c0,2.8-0.9,5.2-2.3,7c1,1.8,2.4,2.7,4,2.7c2.6,0,5.8-2.3,8.6-6.5
		c0.7-1,1.2-2.2,1.8-3.3l1,0.3c-0.5,1-1,2.1-1.7,3.2c-3.4,5.2-7.2,7.8-10.4,7.8c-1.9,0-3.5-0.9-4.5-2.8c-2.4,2.4-5.6,3.7-8.5,3.7
		c-3.5,0-6.4-1.9-6.4-6.1c0-4.9,4.8-11,11.3-11c2.6,0,4.1,0.9,4.1,1.6c0,0.3-0.4,0.4-0.6,0.4c-0.1,0-0.2-0.1-0.2-0.1
		c-0.8-0.8-1.7-1.2-3.7-1.2c-5.4,0-8.8,5.1-8.8,9.4c0,4.1,2.3,5.9,5.1,5.9c2.3,0,5.1-1.2,7.1-3.4c-0.5-1.3-0.8-2.9-0.8-4.9
		C215.4,31.4,216.4,29.1,218.2,29.1z M218.2,29.9c-1.1,0-1.8,1.3-1.8,3c0.2,1.9,0.5,3.4,1,4.6c1.1-1.6,1.9-3.6,1.9-5.8
		C219.2,30.6,218.9,29.9,218.2,29.9z"/>
	<path class="st0" d="M233.6,28.7c0.3,0,0.4,0.1,0.4,0.6c0,3.4,0.3,6.6,0.6,9.6c1.6-1.4,2.7-2.4,3.4-3c0.1-0.1,0.2-0.1,0.2-0.1
		c0.3,0,0.4,0.2,0.4,0.4c0,0.2-0.1,0.3-0.3,0.5c-1.3,1-2.5,2-3.6,2.9c1.3,9.8,4,17.9,4,24.1c0,6.5-2.5,13.5-8,13.5
		c-7.4,0-9.8-8.9-9.8-13.7c0-5.8,4-14.4,6.5-17.2c1.9-2.2,3.8-4.1,5.4-5.7c-0.5-3.3-0.8-6.8-0.8-10.8
		C232,28.8,232.6,28.7,233.6,28.7z M232.9,41.2c-1.9,1.8-3.4,3.6-4.7,5.1c-2.7,3.4-5.7,10.3-5.7,15.8c0,5.7,2.1,14.2,8.1,14.2
		c5.4,0,6.7-6.8,6.7-11.1C237.3,58,234.4,50.7,232.9,41.2z M231.5,20.2c0-0.8,0.4-1.8,1.3-1.8c1.3,0,1.5,0.8,1.5,1.9
		c0,0.8-0.3,1.8-1.3,1.8C233,22.2,231.5,22,231.5,20.2z"/>
</g>
</svg>
