<?xml version="1.0" encoding="utf-8"?>
<!-- Generator: Adobe Illustrator 25.0.1, SVG Export Plug-In . SVG Version: 6.00 Build 0)  -->
<svg version="1.1" id="Layer_1" xmlns="http://www.w3.org/2000/svg" xmlns:xlink="http://www.w3.org/1999/xlink" x="0px" y="0px"
	 viewBox="0 0 238.7 75" style="enable-background:new 0 0 238.7 75;" xml:space="preserve">
<g>
	<g>
		<g>
			<path d="M30.3,15c1.2,0,2.2,0.2,2.8,0.4c0.6,0.2,1.2,0.6,1.7,1c0.2,0.2,0.5,0.2,0.7,0.4s0.4,0.2,0.5,0.2c0.4,0,0.6-0.5,0.9-1.6
				h0.9c0,0.4,0,0.9-0.2,1.4c0,0.6,0,1.4-0.2,2.3c0,1,0,2.2,0,3.7h-0.9c-0.2-1.2-0.4-2.3-0.7-3.4c-0.5-1.1-1.1-1.9-1.9-2.7
				c-0.9-0.7-1.9-1-3.3-1c-1.4,0-2.3,0.4-3.2,1.2c-0.9,0.7-1.2,1.8-1.2,3c0,1.1,0.2,2.1,0.9,2.8s1.4,1.4,2.2,1.9
				c1,0.6,1.9,1.2,3,1.9c1.2,0.7,2.5,1.6,3.4,2.3c1,0.7,1.7,1.6,2.3,2.6c0.6,1,0.9,2.1,0.9,3.4c0,1.6-0.4,2.8-1.1,3.9
				c-0.7,1-1.6,1.8-2.8,2.3s-2.5,0.7-3.9,0.7c-1.4,0-2.3-0.2-3-0.5c-0.7-0.2-1.4-0.6-1.9-1c-0.5-0.4-1-0.5-1.2-0.5
				c-0.4,0-0.6,0.5-0.9,1.6h-1c0-0.5,0.2-1.1,0.2-1.8s0-1.6,0-2.7c0-1.1,0-2.6,0-4.3h0.9c0.2,1.4,0.4,2.8,0.9,4.2
				c0.5,1.2,1.1,2.3,2.1,3c1,0.7,2.2,1.1,3.8,1.1c1.2,0,2.3-0.4,3.3-1.1c1-0.7,1.4-1.9,1.4-3.7c0-1.4-0.5-2.7-1.6-3.7
				c-1.1-1-2.5-1.9-4.2-3c-1.1-0.7-2.2-1.4-3.2-2.2c-1-0.7-1.8-1.6-2.5-2.6c-0.6-1-0.9-2.1-0.9-3.5c0-1.4,0.4-2.7,1-3.5
				c0.6-1,1.4-1.6,2.6-2.1C28,15,29,15,30.3,15z"/>
			<path d="M53.8,21.9c0.9,0,1.6,0.2,2.2,0.4s1.2,0.6,1.6,1c0.5,0.5,0.7,1.1,1,1.9c0.2,0.7,0.2,1.7,0.2,3v9.8c0,1,0.2,1.7,0.6,2.1
				c0.4,0.4,1.1,0.6,2.2,0.6v0.7c-0.4,0-1.1,0-1.9-0.2c-0.9-0.2-1.7,0-2.5,0c-0.8,0-1.6,0-2.3,0s-1.4,0.2-1.7,0.2v-0.7
				c0.9,0,1.4-0.2,1.8-0.6c0.4-0.4,0.6-1.1,0.6-2.1V27.2c0-0.7,0-1.4-0.2-2.1c-0.2-0.6-0.4-1.1-0.7-1.6c-0.4-0.4-1-0.6-1.9-0.6
				c-1,0-1.8,0.2-2.6,0.9c-0.7,0.6-1.4,1.4-1.7,2.5c-0.4,1-0.6,2.2-0.6,3.4v8.2c0,1,0.2,1.7,0.6,2.1c0.4,0.4,1,0.6,1.8,0.6v0.7
				c-0.4,0-1,0-1.7-0.2c-0.7-0.2-1.6,0-2.3,0s-1.6,0-2.5,0c-0.9,0-1.4,0.2-1.9,0.2v-0.7c1,0,1.7-0.2,2.2-0.6
				c0.5-0.4,0.6-1.1,0.6-2.1V26.4c0-1.1-0.2-1.9-0.6-2.5c-0.4-0.4-1.1-0.7-2.2-0.7v-0.7c0.7,0.2,1.6,0.2,2.3,0.2s1.4,0,2.1-0.2
				c0.6-0.2,1.2-0.2,1.8-0.4v4.3c0.6-1.6,1.4-2.7,2.6-3.4C52.1,22.2,52.7,21.9,53.8,21.9z M65,21.9c0.9,0,1.6,0.2,2.2,0.4
				c0.6,0.2,1.1,0.6,1.6,1c0.5,0.5,0.7,1.1,1,1.9c0.2,0.9,0.2,1.7,0.2,3v9.8c0,1,0.2,1.7,0.6,2.1c0.4,0.4,1.1,0.6,2.2,0.6v0.7
				c-0.4,0-1.1,0-1.9-0.2c-0.9,0-1.7,0-2.5,0c-0.9,0-1.6,0-2.3,0s-1.4,0.2-1.7,0.2v-0.7c0.9,0,1.4-0.2,1.8-0.6
				c0.4-0.4,0.6-1.1,0.6-2.1V27.2c0-0.7,0-1.4-0.2-2.1s-0.4-1.1-0.7-1.6c-0.4-0.4-1-0.6-1.9-0.6c-1.4,0-2.6,0.6-3.5,1.9
				c-1,1.2-1.4,2.8-1.4,4.8L59,26.2c0.6-1.7,1.6-2.8,2.7-3.4C62.9,22.1,63.7,21.9,65,21.9z"/>
			<path d="M79.3,41.6c-1.6,0-2.7-0.4-3.4-1.2c-0.7-0.9-1.1-1.8-1.1-3.2c0-1,0.2-1.8,0.7-2.6c0.5-0.6,1.1-1.2,1.9-1.7
				c0.7-0.4,1.6-0.7,2.5-1.1c0.9-0.4,1.7-0.6,2.5-0.9c0.7-0.2,1.4-0.6,1.9-1c0.5-0.3,0.7-0.9,0.7-1.4v-2.3c0-1-0.2-1.8-0.5-2.3
				c-0.4-0.5-0.7-0.9-1.2-1.1c-0.5-0.2-1.1-0.2-1.7-0.2s-1.2,0.2-1.9,0.2C79,23,78.5,23.3,78,24c0.5,0.2,0.9,0.4,1.2,0.7
				c0.4,0.4,0.5,0.9,0.5,1.4s-0.2,1.1-0.6,1.4c-0.4,0.3-0.7,0.6-1.4,0.6c-0.7,0-1.2-0.2-1.6-0.7c-0.4-0.5-0.5-1-0.5-1.4
				c0-0.6,0.2-1.1,0.5-1.6c0.4-0.4,0.7-0.7,1.2-1.1c0.6-0.4,1.4-0.7,2.2-1s1.9-0.4,3-0.4c1,0,1.8,0.2,2.6,0.4s1.4,0.6,1.7,1
				c0.6,0.6,1.1,1.4,1.2,2.2c0.2,0.9,0.2,1.8,0.2,3v10.2c0,0.6,0.2,1,0.2,1.4c0.2,0.2,0.5,0.4,0.9,0.4c0.4,0,0.6-0.2,0.9-0.2
				c0.2-0.2,0.5-0.4,0.7-0.6l0.4,0.6c-0.5,0.4-1,0.7-1.4,1c-0.5,0.2-1.1,0.4-1.8,0.4c-1.2,0-2.1-0.4-2.6-1C85,40,85,39.3,85,38.4
				c-0.7,1.4-1.7,2.2-2.7,2.6C81.4,41.3,80.3,41.6,79.3,41.6z M80.8,40.1c0.7,0,1.4-0.2,2.2-0.6c0.8-0.4,1.4-1.1,1.9-2.2V30
				c-0.4,0.5-1,1-1.7,1.2c-0.7,0.4-1.6,0.6-2.5,1.1c-0.9,0.4-1.4,0.9-2.1,1.6c-0.6,0.7-0.9,1.4-0.9,2.7c0,1.1,0.2,1.9,0.9,2.6
				C79.4,39.7,80,40.1,80.8,40.1z"/>
			<path d="M104.1,21.9c0.6,0,1.2,0.2,1.7,0.4s0.9,0.6,1.2,1.1c0.2,0.5,0.4,0.9,0.4,1.4s-0.2,1.1-0.6,1.6c-0.4,0.5-0.9,0.7-1.4,0.7
				c-0.5,0-1-0.2-1.4-0.5c-0.4-0.4-0.6-0.9-0.6-1.4c0-0.5,0.2-0.9,0.4-1.2c0.2-0.4,0.5-0.6,0.9-0.7c-0.2-0.2-0.5-0.4-0.7-0.4
				c-1,0-1.9,0.4-2.7,1.1c-0.7,0.7-1.4,1.7-1.8,2.8c-0.5,1.1-0.6,2.1-0.6,3v7.8c0,1.2,0.4,1.9,1.1,2.5c0.7,0.4,1.6,0.6,2.8,0.6v0.7
				c-0.6,0-1.4,0-2.3-0.2c-1-0.2-2.1,0-3.3,0c-0.9,0-1.7,0-2.5,0s-1.4,0.2-1.8,0.2v-0.9c1,0,1.7-0.2,2.2-0.6
				c0.4-0.4,0.6-1.1,0.6-2.1V26.4c0-1.1-0.2-1.9-0.6-2.5c-0.4-0.5-1.1-0.7-2.2-0.7v-0.7c0.7,0.2,1.6,0.2,2.3,0.2s1.4,0,2.1-0.2
				c0.6-0.2,1.2-0.2,1.8-0.4v4.6c0.2-0.7,0.6-1.4,1.1-2.2c0.5-0.8,1.1-1.4,1.8-1.8C102.4,22.2,103.2,21.9,104.1,21.9z"/>
			<path d="M114.9,16.2v6.1h5.4V23h-5.4v14.2c0,1.1,0.2,1.9,0.6,2.5c0.4,0.5,1,0.7,1.7,0.7c0.7,0,1.4-0.2,1.9-0.9
				c0.6-0.6,1-1.6,1.4-3l0.7,0.2c-0.2,1.4-0.7,2.6-1.4,3.5c-0.7,1-1.8,1.4-3.3,1.4c-0.9,0-1.4-0.2-2.1-0.4c-0.6-0.2-1-0.5-1.4-0.9
				c-0.5-0.6-0.9-1.2-1.1-1.9s-0.4-1.8-0.4-3.2v-12h-3.5v-0.7h3.5v-5.6c0.6,0,1.2-0.2,1.7-0.2C113.8,16.4,114.4,16.4,114.9,16.2z"/>
		</g>
		<g>
			<path d="M52.3,48.6v0.7c-0.9,0-1.4,0.2-1.8,0.2c-0.5,0.2-0.7,0.5-0.9,0.9c-0.2,0.4-0.2,1.1-0.2,1.9v18.2c0,0.9,0.2,1.6,0.2,1.9
				c0.2,0.5,0.5,0.7,0.9,0.9c0.4,0.2,1.1,0.2,1.8,0.2v0.7c-0.6,0-1.2-0.2-2.1-0.2c-0.9,0-1.7,0-2.6,0c-1,0-1.8,0-2.7,0
				c-0.9,0-1.4,0-2.1,0.2v-0.7c0.9,0,1.4-0.2,1.8-0.2c0.4-0.1,0.7-0.5,0.9-0.9c0.2-0.5,0.2-1.1,0.2-1.9V50.4l0.2,0.2l-9,24.1h-0.6
				L27,50.8v19.4c0,0.9,0.2,1.6,0.2,2.1c0.2,0.5,0.5,0.9,1,1.1c0.5,0.2,1.2,0.4,2.2,0.4v0.7c-0.5,0-1-0.2-1.7-0.2
				c-0.7,0-1.4,0-2.1,0c-0.6,0-1.2,0-1.8,0s-1.1,0-1.6,0.2v-0.7c0.9,0,1.4-0.2,1.8-0.4c0.4-0.2,0.7-0.6,0.9-1.1
				c0.2-0.5,0.2-1.2,0.2-2.1V52.6c0-0.9-0.2-1.6-0.2-1.9c-0.2-0.4-0.5-0.7-0.9-0.9c-0.5-0.2-1.1-0.2-1.8-0.2v-0.7c0.4,0,1,0,1.6,0.2
				c0.6,0,1.2,0,1.8,0c0.5,0,1.1,0,1.7,0c0.6,0,1.1,0,1.4-0.2l8.3,21.9L37.5,71l8.3-22.2c0.2,0,0.6,0,0.9,0s0.6,0,0.9,0
				c0.9,0,1.7,0,2.6,0C51,48.6,51.7,48.6,52.3,48.6z"/>
			<path d="M61,55.2v15.9c0,1,0.2,1.7,0.6,2.1c0.4,0.4,1.1,0.6,2.2,0.6v0.7c-0.4,0-1.1,0-1.8-0.2c-0.7-0.2-1.7,0-2.6,0
				c-0.9,0-1.7,0-2.6,0c-0.9,0-1.4,0.2-1.9,0.2v-0.7c1,0,1.7-0.2,2.2-0.6c0.6-0.4,0.6-1.1,0.6-2.1V59.6c0-1.1-0.2-1.9-0.6-2.5
				c-0.4-0.5-1.1-0.7-2.2-0.7v-0.7c0.7,0.2,1.6,0.2,2.3,0.2s1.4,0,2.1-0.2C59.8,55.6,60.4,55.6,61,55.2z M59,46.5
				c0.6,0,1.2,0.2,1.7,0.7s0.7,1,0.7,1.7c0,0.7-0.2,1.2-0.7,1.6c-0.5,0.5-1,0.7-1.7,0.7s-1.2-0.2-1.7-0.7c-0.5-0.5-0.7-1-0.7-1.6
				s0.2-1.2,0.7-1.7S58.4,46.5,59,46.5z"/>
			<path d="M77,55.2c0.6,0,1.2,0.2,1.7,0.4c0.5,0.2,0.9,0.6,1.2,1.1c0.2,0.5,0.4,0.9,0.4,1.4c0,0.6-0.2,1.1-0.6,1.6
				s-0.9,0.7-1.4,0.7c-0.5,0-1-0.2-1.4-0.5c-0.4-0.4-0.6-0.9-0.6-1.4c0-0.5,0.2-0.9,0.4-1.2c0.2-0.3,0.5-0.6,0.9-0.7
				c-0.2-0.2-0.4-0.4-0.7-0.4c-1,0-1.9,0.4-2.7,1.1c-0.7,0.7-1.4,1.7-1.8,2.8c-0.5,1.1-0.6,2.1-0.6,3v7.8c0,1.2,0.4,1.9,1.1,2.5
				c0.7,0.4,1.6,0.6,2.8,0.6v0.7c-0.6,0-1.4,0-2.5-0.2c-1.1-0.2-2.1,0-3.3,0c-0.9,0-1.7,0-2.5,0c-0.7,0-1.4,0.2-1.8,0.2V74
				c1,0,1.7-0.2,2.2-0.6c0.4-0.4,0.6-1.1,0.6-2.1V59.7c0-1.1-0.2-1.9-0.6-2.5c-0.4-0.5-1.1-0.7-2.2-0.7v-0.7C66.2,56,67,56,67.8,56
				s1.4,0,2.1-0.2c0.6-0.2,1.2-0.2,1.8-0.4V60c0.2-0.7,0.6-1.4,1.1-2.2c0.5-0.8,1.1-1.4,1.8-1.8C75.4,55.6,76.2,55.2,77,55.2z"/>
			<path d="M93.4,55.2c0.6,0,1.2,0.2,1.7,0.4c0.5,0.2,0.9,0.6,1.2,1.1c0.2,0.5,0.4,0.9,0.4,1.4c0,0.6-0.2,1.1-0.6,1.6
				c-0.4,0.5-0.9,0.7-1.4,0.7c-0.5,0-1-0.2-1.4-0.5c-0.4-0.4-0.6-0.9-0.6-1.4c0-0.5,0.2-0.9,0.4-1.2c0.2-0.3,0.5-0.6,0.9-0.7
				c-0.2-0.2-0.4-0.4-0.7-0.4c-1,0-1.9,0.4-2.7,1.1c-0.7,0.7-1.4,1.7-1.8,2.8c-0.5,1.1-0.6,2.1-0.6,3v7.8c0,1.2,0.4,1.9,1.1,2.5
				c0.7,0.4,1.6,0.6,2.8,0.6v0.7c-0.6,0-1.4,0-2.5-0.2c-1.1-0.2-2.1,0-3.3,0c-0.9,0-1.7,0-2.5,0c-0.7,0-1.4,0.2-1.8,0.2V74
				c1,0,1.7-0.2,2.2-0.6c0.4-0.4,0.6-1.1,0.6-2.1V59.7c0-1.1-0.2-1.9-0.6-2.5c-0.4-0.5-1.1-0.7-2.2-0.7v-0.7
				c0.7,0.2,1.6,0.2,2.3,0.2s1.4,0,2.1-0.2c0.6-0.2,1.2-0.2,1.8-0.4V60c0.2-0.7,0.6-1.4,1.1-2.2c0.5-0.7,1.1-1.4,1.8-1.8
				C91.8,55.6,92.6,55.2,93.4,55.2z"/>
			<path d="M106.6,55.2c1.6,0,3,0.4,4.3,1c1.4,0.6,2.2,1.7,3,3.2c0.7,1.4,1.1,3.4,1.1,5.8s-0.4,4.3-1.1,5.8s-1.7,2.6-3,3.2
				c-1.2,0.6-2.7,1-4.3,1s-3-0.4-4.2-1c-1.2-0.6-2.3-1.7-3-3.2c-0.7-1.4-1.1-3.3-1.1-5.8c0-2.5,0.4-4.3,1.1-5.8
				c0.7-1.4,1.7-2.6,3-3.2C103.8,55.5,105,55.2,106.6,55.2z M106.6,55.9c-1.4,0-2.6,0.7-3.4,2.2c-0.9,1.4-1.4,3.8-1.4,7.1
				c0,3.4,0.5,5.6,1.4,7.1c0.9,1.5,2.1,2.2,3.4,2.2s2.6-0.7,3.4-2.2c0.9-1.4,1.4-3.8,1.4-7.1c0-3.4-0.5-5.6-1.4-7.1
				C109.1,56.5,108,55.9,106.6,55.9z"/>
			<path d="M129,55.2c0.6,0,1.2,0.2,1.7,0.4c0.5,0.2,0.9,0.6,1.2,1.1c0.2,0.5,0.4,0.9,0.4,1.4c0,0.6-0.2,1.1-0.6,1.6
				c-0.4,0.5-0.9,0.7-1.4,0.7c-0.5,0-1-0.2-1.4-0.5c-0.4-0.4-0.6-0.9-0.6-1.4c0-0.5,0.2-0.9,0.4-1.2c0.2-0.4,0.5-0.6,0.9-0.7
				c-0.2-0.2-0.5-0.4-0.7-0.4c-1,0-1.9,0.4-2.7,1.1c-0.7,0.7-1.4,1.7-1.8,2.8c-0.5,1.1-0.6,2.1-0.6,3v7.8c0,1.2,0.4,1.9,1.1,2.5
				c0.7,0.4,1.6,0.6,2.8,0.6v0.7c-0.6,0-1.4,0-2.3-0.2s-2.1,0-3.3,0c-0.9,0-1.7,0-2.5,0c-0.7,0-1.4,0.2-1.8,0.2V74
				c1,0,1.7-0.2,2.2-0.6c0.4-0.4,0.6-1.1,0.6-2.1V59.7c0-1.1-0.2-1.9-0.6-2.5c-0.4-0.5-1.1-0.7-2.2-0.7v-0.7
				c0.7,0.2,1.6,0.2,2.3,0.2c0.7,0,1.4,0,2.1-0.2c0.6-0.2,1.2-0.2,1.8-0.4V60c0.2-0.7,0.6-1.4,1.1-2.2c0.5-0.7,1.1-1.4,1.8-1.8
				C127.4,55.6,128.2,55.2,129,55.2z"/>
		</g>
	</g>
	<g>
		<path d="M5.4,55.4c1.2,0,2.2,0.3,3,0.9c0.8,0.6,1.2,1.4,1.2,2.4c0,0.7-0.2,1.4-0.6,2.1c-0.4,0.6-1,1.2-1.6,1.6
			c-0.6,0.5-1.4,0.8-2.1,1.1c0.9,0,1.8,0.2,2.6,0.5s1.4,0.8,2,1.4s0.8,1.4,0.8,2.5c0,1.1-0.3,2.1-1,3s-1.4,1.6-2.5,2.2
			c-1,0.6-2.2,1.1-3.4,1.4C2.5,74.8,1.2,75,0,75v-0.5c1,0,1.9-0.2,2.9-0.5s1.8-0.7,2.6-1.3c0.7-0.6,1.4-1.3,1.8-2.1
			c0.5-0.8,0.6-1.8,0.6-2.8c0-1.1-0.2-2.1-0.8-2.8S5.8,64,4.9,63.9c-0.3,0.1-0.6,0.2-0.8,0.3s-0.4,0.2-0.6,0.2C3.2,64.4,3,64.2,3,64
			c0-0.2,0.1-0.3,0.2-0.4c0.2-0.1,0.3-0.2,0.5-0.2s0.3,0,0.5,0.1c0.2,0,0.3,0.1,0.6,0.1c0.8-0.6,1.4-1.3,1.7-2S7,60.1,7,59.4
			c0-0.9-0.2-1.5-0.6-2c-0.5-0.4-1-0.6-1.8-0.6S3,57,2.3,57.4c-0.6,0.4-1.2,1-1.7,1.9L0.2,59c0.3-0.6,0.6-1.2,1.1-1.8
			c0.5-0.6,1-1,1.7-1.4C3.7,55.6,4.6,55.4,5.4,55.4z"/>
		<path d="M15.5,67.4c0.5,0,1,0.2,1.3,0.6c0.4,0.4,0.6,0.8,0.6,1.3c0,0.5-0.2,1-0.6,1.3c-0.4,0.3-0.8,0.6-1.3,0.6s-1-0.2-1.3-0.6
			c-0.4-0.4-0.6-0.8-0.6-1.3c0-0.5,0.2-1,0.6-1.3C14.6,67.6,15,67.4,15.5,67.4z"/>
	</g>
</g>
</svg>
