<?xml version="1.0" encoding="utf-8"?>
<!-- Generator: Adobe Illustrator 25.0.1, SVG Export Plug-In . SVG Version: 6.00 Build 0)  -->
<svg version="1.1" id="Layer_1" xmlns="http://www.w3.org/2000/svg" xmlns:xlink="http://www.w3.org/1999/xlink" x="0px" y="0px"
	 viewBox="0 0 238.7 75" style="enable-background:new 0 0 238.7 75;" xml:space="preserve">
<g>
	<g>
		<path d="M55.6,3.5c-0.1,1.2-0.2,2.3-0.2,3.3c0,1.1-0.1,1.9-0.1,2.5c0,0.7,0,1.4,0,2.1c0,0.6,0.1,1.2,0.1,1.7h-1
			c-0.2-2.1-0.5-3.8-0.9-5s-1-2.1-1.9-2.7c-0.9-0.5-2.3-0.8-4.2-0.8h-2.5v25.9c0,1.2,0.1,2.1,0.3,2.7c0.2,0.6,0.7,1,1.3,1.2
			c0.7,0.2,1.6,0.4,2.9,0.4v0.9c-0.8-0.1-1.8-0.1-3-0.1s-2.4,0-3.7,0c-1.4,0-2.7,0-3.9,0s-2.2,0.1-2.9,0.1v-0.9
			c1.3-0.1,2.2-0.2,2.9-0.4s1.1-0.6,1.3-1.2c0.2-0.6,0.3-1.5,0.3-2.7v-26h-2.3c-1.8,0-3.2,0.3-4.2,0.8C33,5.9,32.4,6.8,32,8
			c-0.4,1.2-0.7,2.9-0.9,5h-1c0.1-0.5,0.1-1,0.1-1.7c0-0.6,0-1.3,0-2.1c0-0.6,0-1.4-0.1-2.5c0-1.1-0.1-2.2-0.3-3.3
			c1.3,0,2.7,0.1,4.2,0.1s3,0,4.5,0s2.9,0,4.1,0c1.2,0,2.6,0,4.1,0s3,0,4.5,0C52.9,3.5,54.3,3.5,55.6,3.5z"/>
		<path d="M63.7,36c-2,0-3.4-0.5-4.3-1.5c-0.9-1-1.3-2.3-1.3-3.9c0-1.3,0.3-2.3,0.9-3.2c0.6-0.8,1.4-1.5,2.4-2.1c1-0.5,2-1,3.1-1.4
			c1.1-0.4,2.1-0.8,3.1-1.1c1-0.4,1.8-0.8,2.4-1.2c0.6-0.5,0.9-1,0.9-1.7v-2.8c0-1.3-0.2-2.2-0.6-2.9s-0.9-1.1-1.5-1.3
			s-1.4-0.3-2.1-0.3c-0.8,0-1.6,0.1-2.4,0.3c-0.9,0.2-1.6,0.7-2.1,1.3c0.6,0.1,1.1,0.4,1.5,0.9s0.6,1.1,0.6,1.9s-0.2,1.4-0.7,1.8
			c-0.5,0.4-1.1,0.7-1.9,0.7c-0.9,0-1.5-0.3-1.9-0.8c-0.4-0.6-0.6-1.2-0.6-1.9c0-0.8,0.2-1.4,0.6-1.9c0.4-0.5,0.9-0.9,1.5-1.4
			c0.7-0.5,1.6-0.9,2.7-1.3c1.1-0.4,2.4-0.5,3.8-0.5c1.2,0,2.3,0.1,3.2,0.4c0.9,0.3,1.6,0.7,2.2,1.3c0.8,0.7,1.3,1.6,1.5,2.7
			c0.2,1,0.4,2.3,0.4,3.8v12.7c0,0.7,0.1,1.3,0.3,1.6c0.2,0.3,0.6,0.5,1.1,0.5c0.4,0,0.8-0.1,1.1-0.3c0.3-0.2,0.6-0.4,0.9-0.7
			l0.5,0.8c-0.6,0.5-1.2,0.9-1.8,1.2s-1.4,0.5-2.3,0.5c-1.6,0-2.6-0.4-3.1-1.2S71,33.2,71,32.2c-1,1.6-2.1,2.7-3.3,3.2
			C66.3,35.8,65,36,63.7,36z M65.7,34.2c0.9,0,1.8-0.3,2.7-0.8s1.7-1.4,2.5-2.7v-8.9c-0.5,0.7-1.2,1.2-2.1,1.6c-1,0.4-1.9,0.8-3,1.3
			c-1,0.5-1.9,1.1-2.6,1.9s-1.1,2-1.1,3.4s0.3,2.4,1,3.1C63.8,33.9,64.6,34.2,65.7,34.2z"/>
		<path d="M95.6,11.6c1.2,0,2.1,0.2,2.9,0.5s1.4,0.7,1.9,1.3c0.6,0.6,1,1.4,1.2,2.3c0.2,0.9,0.4,2.1,0.4,3.7v12.2
			c0,1.3,0.3,2.1,0.8,2.6s1.4,0.7,2.7,0.7v1c-0.5,0-1.3-0.1-2.4-0.1s-2.1-0.1-3.1-0.1s-2,0-2.9,0.1c-1,0-1.7,0.1-2.2,0.1v-1
			c1.1,0,1.9-0.2,2.3-0.7c0.5-0.5,0.7-1.3,0.7-2.6V18.3c0-0.9-0.1-1.8-0.2-2.6c-0.2-0.8-0.5-1.4-1-1.9s-1.3-0.7-2.4-0.7
			c-1.9,0-3.5,0.8-4.6,2.4c-1.2,1.6-1.8,3.6-1.8,5.9v10.1c0,1.3,0.2,2.1,0.7,2.6s1.2,0.7,2.3,0.7v1c-0.5,0-1.2-0.1-2.2-0.1
			s-1.9-0.1-2.9-0.1s-2,0-3.1,0.1c-1.1,0-1.9,0.1-2.4,0.1v-1c1.2,0,2.1-0.2,2.7-0.7c0.5-0.5,0.8-1.3,0.8-2.6V17.2
			c0-1.4-0.2-2.4-0.7-3c-0.5-0.7-1.4-1-2.7-1v-1c1,0.1,1.9,0.1,2.8,0.1s1.7-0.1,2.5-0.2c0.8-0.1,1.5-0.3,2.2-0.5V17
			c0.8-2.1,1.9-3.5,3.3-4.3C92.5,12,94,11.6,95.6,11.6z"/>
		<path d="M115.4,44.3c-1.6,0-3.1-0.2-4.6-0.5c-1.4-0.3-2.6-0.9-3.4-1.6c-0.9-0.7-1.3-1.6-1.3-2.7c0-1.1,0.4-2,1.3-2.7
			c0.8-0.8,2-1.3,3.5-1.7l0.3,0.7c-0.8,0.2-1.3,0.6-1.7,1.2s-0.6,1.4-0.6,2.1c0,1.4,0.6,2.5,1.9,3.2s3,1.1,5,1.1
			c1.4,0,2.7-0.2,4-0.5c1.3-0.4,2.4-0.9,3.2-1.8c0.8-0.8,1.3-1.9,1.3-3.2c0-1-0.4-1.8-1.1-2.5s-2.1-1-4.2-1h-3.4
			c-1,0-1.9-0.1-2.8-0.2c-0.9-0.2-1.7-0.5-2.2-1c-0.6-0.5-0.9-1.2-0.9-2.2s0.4-2,1.3-3c0.8-1,2.4-1.9,4.7-2.9l0.5,0.4
			c-1,0.5-1.9,1.1-2.7,1.7c-0.8,0.6-1.1,1.2-1.1,2c0,1,0.7,1.5,2.2,1.5h5.7c1.9,0,3.5,0.4,5,1.3c1.4,0.8,2.2,2.2,2.2,4.1
			c0,1.4-0.5,2.8-1.4,4s-2.3,2.3-4.1,3C120.3,43.9,118.1,44.3,115.4,44.3z M115.6,26c-2.2,0-4.1-0.6-5.7-1.7c-1.5-1.2-2.3-3-2.3-5.5
			s0.8-4.4,2.3-5.5s3.4-1.7,5.7-1.7c2.2,0,4.1,0.6,5.7,1.7c1.5,1.1,2.3,3,2.3,5.5s-0.8,4.3-2.3,5.5C119.7,25.4,117.9,26,115.6,26z
			 M115.6,25.2c1.2,0,2.1-0.5,2.7-1.4c0.7-0.9,1-2.6,1-5s-0.3-4.1-1-5s-1.6-1.4-2.7-1.4s-2,0.5-2.7,1.4s-1,2.6-1,5s0.3,4.1,1,5
			S114.5,25.2,115.6,25.2z M122.2,15.4l-0.8-0.3c0.4-1,1.2-1.9,2.2-2.7s2.1-1.2,3.2-1.2c0.8,0,1.4,0.2,1.9,0.7
			c0.5,0.4,0.7,1.1,0.7,2s-0.3,1.6-0.8,2s-1,0.6-1.5,0.6s-0.9-0.2-1.3-0.5c-0.4-0.3-0.6-0.8-0.7-1.5s0.2-1.6,0.6-2.7l0.6,0.1
			c-1.3,0.5-2.2,1-2.7,1.5C123.1,13.9,122.6,14.6,122.2,15.4z"/>
		<path d="M138.6,11.8v19.7c0,1.3,0.3,2.1,0.8,2.6s1.4,0.7,2.7,0.7v1c-0.5,0-1.3-0.1-2.3-0.1s-2.1-0.1-3.2-0.1c-1,0-2.1,0-3.1,0.1
			c-1.1,0-1.9,0.1-2.4,0.1v-1c1.2,0,2.1-0.2,2.7-0.7c0.5-0.5,0.8-1.3,0.8-2.6V17.2c0-1.4-0.2-2.4-0.7-3c-0.5-0.7-1.4-1-2.7-1v-1
			c1,0.1,1.9,0.1,2.8,0.1c0.9,0,1.7-0.1,2.5-0.2C137.2,12.1,137.9,12,138.6,11.8z M136.2,0.9c0.8,0,1.5,0.3,2,0.9s0.9,1.3,0.9,2.1
			s-0.3,1.5-0.9,2c-0.6,0.6-1.3,0.9-2,0.9c-0.8,0-1.5-0.3-2-0.9c-0.6-0.6-0.9-1.3-0.9-2s0.3-1.5,0.9-2.1
			C134.8,1.2,135.5,0.9,136.2,0.9z"/>
		<path d="M150.8,0v33.3c-0.4,0.3-0.8,0.7-1.2,1s-0.8,0.7-1.2,1s-0.8,0.7-1.2,1l-0.8-0.3c0.1-0.4,0.2-0.9,0.3-1.3
			c0-0.4,0.1-0.9,0.1-1.3v-28c0-1.4-0.2-2.4-0.7-3c-0.5-0.7-1.4-1-2.7-1v-1c1,0.1,1.9,0.1,2.8,0.1c0.9,0,1.7-0.1,2.5-0.2
			C149.4,0.4,150.2,0.3,150.8,0z M157.9,11.6c2.5,0,4.6,1,6.2,3.1c1.6,2.1,2.5,5.2,2.5,9.3c0,2.7-0.5,5-1.4,6.9
			c-0.9,1.8-2.2,3.2-3.7,4.1s-3.2,1.4-5.1,1.4c-1.5,0-3-0.4-4.4-1.3c-1.4-0.9-2.5-2.1-3.2-3.9l0.9,0.5c0.8,1.2,1.7,2.1,2.8,2.7
			s2.3,0.9,3.5,0.9c2,0,3.6-0.9,4.6-2.8c1-1.8,1.5-4.7,1.5-8.5c0-2.5-0.2-4.5-0.6-6.2c-0.4-1.6-1-2.9-1.8-3.7s-1.9-1.2-3.1-1.2
			c-1.4,0-2.7,0.6-3.9,1.9s-1.9,3.1-2.2,5.5l-0.5-0.6c0.3-2.6,1.2-4.6,2.7-6C154.1,12.3,155.9,11.6,157.9,11.6z"/>
		<path d="M176.8,0v31.5c0,1.3,0.3,2.1,0.8,2.6s1.4,0.7,2.7,0.7v1c-0.5,0-1.3-0.1-2.3-0.1s-2.1-0.1-3.2-0.1c-1,0-2.1,0-3.1,0.1
			c-1.1,0-1.9,0.1-2.4,0.1v-1c1.2,0,2.1-0.2,2.7-0.7c0.5-0.5,0.8-1.3,0.8-2.6v-26c0-1.4-0.2-2.4-0.7-3c-0.5-0.7-1.4-1-2.7-1v-1
			c1,0.1,1.9,0.1,2.8,0.1c0.9,0,1.7-0.1,2.5-0.2C175.4,0.4,176.2,0.2,176.8,0z"/>
		<path d="M193.2,11.6c2.7,0,4.8,0.8,6.3,2.4s2.3,4.2,2.3,7.6h-16.1v-0.9h11.8c0.1-1.5-0.1-2.9-0.4-4.1c-0.3-1.3-0.8-2.3-1.4-3
			c-0.7-0.8-1.5-1.1-2.5-1.1c-1.4,0-2.6,0.7-3.7,2.1s-1.7,3.6-1.9,6.7l0.1,0.2c-0.1,0.5-0.1,1-0.1,1.5s0,1.1,0,1.6
			c0,2.1,0.3,3.8,1,5.3c0.7,1.5,1.5,2.6,2.6,3.4c1.1,0.8,2.2,1.2,3.3,1.2c1.4,0,2.6-0.3,3.8-1s2.1-1.9,2.9-3.6l0.9,0.4
			c-0.3,1-0.9,2-1.6,2.9c-0.8,0.9-1.7,1.7-2.9,2.3s-2.5,0.9-4,0.9c-2.2,0-4.1-0.5-5.6-1.5c-1.6-1-2.8-2.4-3.6-4.2s-1.3-3.8-1.3-6.1
			c0-2.7,0.4-5,1.3-6.9c0.8-1.9,2.1-3.4,3.6-4.5C189.4,12.1,191.2,11.6,193.2,11.6z"/>
	</g>
	<g>
		<path d="M45.4,41.5c2,0,3.6,0.3,4.8,0.9c1.2,0.6,2.4,1.3,3.4,2.1c0.4,0.3,0.7,0.5,0.9,0.5c0.6,0,1-0.9,1.1-2.8h1
			c-0.1,1.1-0.1,2.5-0.1,4.1s0,3.7,0,6.4h-1c-0.2-1.3-0.5-2.5-0.8-3.7s-0.8-2.2-1.5-3.1c-0.9-1.1-2-2-3.5-2.6
			c-1.4-0.6-2.9-0.9-4.4-0.9s-2.9,0.4-4.1,1.1c-1.2,0.7-2.3,1.8-3.2,3.2s-1.6,3.1-2,5c-0.5,2-0.7,4.2-0.7,6.6c0,5.5,0.9,9.5,2.6,12
			c1.8,2.5,4.5,3.8,8.2,3.8c1.1,0,2-0.2,2.8-0.5s1.4-0.6,1.9-0.9c0.6-0.4,0.9-0.8,1.1-1.1c0.2-0.3,0.2-0.8,0.2-1.4v-4.4
			c0-1.2-0.1-2.2-0.4-2.8c-0.2-0.6-0.7-1-1.3-1.2c-0.7-0.2-1.6-0.3-2.9-0.4v-0.9c0.5,0,1.2,0.1,1.9,0.1s1.5,0,2.3,0s1.5,0,2.2,0
			c1,0,1.9,0,2.7,0s1.5-0.1,2-0.1v0.9c-1,0.1-1.6,0.3-1.9,0.7s-0.4,1.5-0.4,3.2v9h-0.9c0-0.5-0.1-1.1-0.3-1.7s-0.5-0.9-0.9-0.9
			c-0.2,0-0.4,0-0.5,0.1c-0.2,0.1-0.5,0.3-1,0.6c-1,0.8-2.1,1.4-3.2,1.8c-1.1,0.4-2.4,0.7-3.9,0.7c-4.7,0-8.4-1.4-11-4.3
			s-3.9-6.8-3.9-11.9c0-3.6,0.6-6.6,1.9-9.2c1.3-2.5,3.1-4.5,5.3-5.9C40.1,42.2,42.6,41.5,45.4,41.5z"/>
		<path d="M67.5,74.7c-2,0-3.4-0.5-4.3-1.5c-0.9-1-1.3-2.3-1.3-3.9c0-1.3,0.3-2.3,0.9-3.2c0.6-0.8,1.4-1.5,2.4-2.1
			c1-0.5,2-1,3.1-1.4s2.1-0.8,3.1-1.1c1-0.4,1.8-0.8,2.4-1.2c0.6-0.5,0.9-1,0.9-1.7v-2.8c0-1.3-0.2-2.2-0.6-2.9s-0.9-1.1-1.5-1.3
			s-1.4-0.3-2.1-0.3c-0.8,0-1.6,0.1-2.4,0.3c-0.9,0.2-1.6,0.7-2.1,1.3c0.6,0.1,1.1,0.4,1.5,0.9s0.6,1.1,0.6,1.9
			c0,0.8-0.2,1.4-0.7,1.8c-0.5,0.3-1.2,0.5-1.9,0.5c-0.9,0-1.5-0.3-1.9-0.8c-0.5-0.6-0.7-1.2-0.7-1.9c0-0.8,0.2-1.4,0.6-1.9
			s0.9-0.9,1.5-1.4c0.7-0.5,1.6-0.9,2.7-1.3c1.1-0.3,2.4-0.5,3.8-0.5c1.2,0,2.3,0.1,3.2,0.4c0.9,0.3,1.6,0.7,2.2,1.3
			c0.8,0.7,1.3,1.6,1.5,2.7c0.2,1.1,0.4,2.3,0.4,3.8V71c0,0.7,0.1,1.3,0.3,1.6c0.2,0.3,0.6,0.5,1.1,0.5c0.4,0,0.8-0.1,1.1-0.3
			c0.3-0.2,0.6-0.4,0.9-0.7l0.5,0.8c-0.6,0.5-1.2,0.9-1.8,1.2c-0.6,0.3-1.4,0.5-2.3,0.5c-1.6,0-2.6-0.4-3.1-1.2
			c-0.5-0.8-0.8-1.8-0.8-2.8c-1,1.6-2.1,2.7-3.3,3.2C70.1,74.4,68.9,74.7,67.5,74.7z M69.5,72.9c0.9,0,1.8-0.3,2.7-0.8
			s1.7-1.4,2.5-2.7v-8.9c-0.5,0.7-1.2,1.2-2.1,1.6c-1,0.4-1.9,0.8-3,1.3c-1,0.5-1.9,1.1-2.6,1.9c-0.7,0.8-1.1,2-1.1,3.4
			s0.4,2.4,1,3.1C67.6,72.5,68.5,72.9,69.5,72.9z"/>
		<path d="M99.1,50.3c1.1,0,2,0.2,2.8,0.5s1.4,0.7,2,1.3s1,1.4,1.2,2.4s0.3,2.2,0.3,3.6v12.2c0,1.3,0.3,2.1,0.8,2.6s1.4,0.7,2.7,0.7
			v1c-0.5,0-1.3-0.1-2.4-0.1s-2.1-0.1-3.1-0.1s-2,0-2.9,0.1c-1,0-1.7,0.1-2.2,0.1v-1c1.1,0,1.9-0.2,2.3-0.7c0.5-0.5,0.7-1.3,0.7-2.6
			V57c0-0.9-0.1-1.8-0.2-2.6s-0.4-1.4-0.9-1.9s-1.3-0.7-2.4-0.7c-1.2,0-2.2,0.4-3.2,1.1c-0.9,0.7-1.7,1.7-2.2,3s-0.8,2.7-0.8,4.2
			v10.1c0,1.3,0.2,2.1,0.7,2.6s1.2,0.7,2.3,0.7v1c-0.5,0-1.2-0.1-2.2-0.1s-1.9-0.1-2.9-0.1s-2,0-3.1,0.1c-1.1,0-1.9,0.1-2.4,0.1v-1
			c1.2,0,2.1-0.2,2.7-0.7c0.5-0.5,0.8-1.3,0.8-2.6V55.9c0-1.4-0.2-2.4-0.7-3c-0.5-0.7-1.4-1-2.7-1v-1c1,0.1,1.9,0.1,2.8,0.1
			s1.7-0.1,2.5-0.2c0.8-0.1,1.5-0.3,2.2-0.5v5.4c0.8-2,1.9-3.4,3.2-4.2C96.3,50.7,97.7,50.3,99.1,50.3z M112.9,50.3
			c1.1,0,2,0.2,2.8,0.5s1.4,0.7,2,1.3s1,1.4,1.2,2.4s0.3,2.2,0.3,3.6v12.2c0,1.3,0.3,2.1,0.8,2.6s1.4,0.7,2.7,0.7v1
			c-0.5,0-1.3-0.1-2.4-0.1s-2.1-0.1-3.1-0.1s-2,0-2.9,0.1c-1,0-1.7,0.1-2.2,0.1v-1c1.1,0,1.9-0.2,2.3-0.7c0.5-0.5,0.7-1.3,0.7-2.6
			V57c0-0.9-0.1-1.8-0.2-2.6s-0.4-1.4-0.9-1.9s-1.3-0.7-2.4-0.7c-1.8,0-3.2,0.8-4.4,2.4c-1.2,1.6-1.8,3.5-1.8,5.9l-0.1-4.2
			c0.8-2.1,1.9-3.5,3.3-4.3C110,50.6,111.4,50.3,112.9,50.3z"/>
		<path d="M135.6,50.3c2.7,0,4.8,0.8,6.3,2.4c1.5,1.6,2.3,4.2,2.3,7.6h-16.1v-0.9h11.8c0.1-1.5-0.1-2.9-0.4-4.1
			c-0.3-1.3-0.8-2.3-1.4-3c-0.7-0.8-1.5-1.1-2.5-1.1c-1.4,0-2.6,0.7-3.7,2.1c-1.1,1.4-1.7,3.6-1.9,6.7l0.1,0.2
			c-0.1,0.5-0.1,1-0.1,1.5s0,1.1,0,1.6c0,2.1,0.3,3.8,1,5.3s1.5,2.6,2.6,3.4s2.2,1.2,3.3,1.2c1.4,0,2.6-0.3,3.8-1s2.1-1.9,2.9-3.6
			l0.9,0.4c-0.3,1-0.9,2-1.6,2.9c-0.8,0.9-1.7,1.7-2.9,2.3c-1.2,0.6-2.5,0.9-4,0.9c-2.2,0-4.1-0.5-5.6-1.5c-1.6-1-2.8-2.4-3.6-4.2
			c-0.8-1.8-1.3-3.8-1.3-6.1c0-2.7,0.4-5,1.3-6.9c0.8-1.9,2.1-3.4,3.6-4.5C131.8,50.8,133.6,50.3,135.6,50.3z"/>
		<path d="M155.8,50.3c1.2,0,2.2,0.2,3.1,0.6c0.8,0.4,1.5,0.8,1.9,1.1c1,0.8,1.6,0.3,1.8-1.6h1c-0.1,0.9-0.1,1.9-0.1,3
			c0,1.2,0,2.7,0,4.7h-1c-0.2-1.1-0.5-2.2-0.9-3.3s-1.1-1.9-1.9-2.6c-0.9-0.7-2-1-3.3-1c-1.1,0-2,0.3-2.7,0.9
			c-0.7,0.6-1.1,1.5-1.1,2.6c0,0.9,0.3,1.7,0.8,2.3c0.5,0.7,1.3,1.3,2.1,1.8c0.9,0.6,1.8,1.2,2.9,1.8c1.7,1.1,3.2,2.3,4.4,3.4
			c1.2,1.2,1.8,2.7,1.8,4.6c0,1.4-0.4,2.6-1.1,3.5c-0.7,0.9-1.7,1.7-2.8,2.1c-1.2,0.5-2.5,0.7-3.9,0.7c-0.7,0-1.3-0.1-1.9-0.2
			c-0.6-0.1-1.2-0.3-1.7-0.5c-0.3-0.2-0.6-0.3-0.9-0.5s-0.6-0.4-0.9-0.7c-0.3-0.2-0.6-0.2-0.8,0c-0.2,0.3-0.4,0.8-0.5,1.5h-1
			c0.1-1,0.1-2.2,0.1-3.6s0-3.3,0-5.6h1c0.2,1.7,0.5,3.2,0.9,4.5s1,2.3,1.9,3c0.8,0.7,2,1.1,3.6,1.1c0.9,0,1.8-0.3,2.7-1
			c0.9-0.6,1.3-1.8,1.3-3.4c0-1.3-0.5-2.4-1.5-3.3c-1-0.8-2.2-1.7-3.7-2.7c-1.1-0.7-2.1-1.4-3.1-2.1c-1-0.7-1.7-1.5-2.3-2.4
			s-0.9-1.9-0.9-3.2c0-1.4,0.3-2.5,0.9-3.3c0.6-0.9,1.5-1.5,2.5-1.9C153.5,50.5,154.6,50.3,155.8,50.3z"/>
	</g>
</g>
<g>
	<path d="M7.4,55.6v15.2c0,1.2,0.3,1.9,0.8,2.3s1.4,0.6,2.7,0.6v0.8c-0.5,0-1.2-0.1-2.1-0.1s-1.9-0.1-2.9-0.1c-1.1,0-2.2,0-3.2,0.1
		c-1,0-1.8,0.1-2.4,0.1v-0.8c1.2,0,2.1-0.2,2.8-0.6s1-1.2,1-2.4V62c0-1.2-0.1-2-0.4-2.6c-0.2-0.6-0.7-0.9-1.3-1.1
		C1.8,58.1,0.9,58-0.1,58v-0.8c1.7,0,3.2-0.2,4.3-0.5C5.5,56.7,6.5,56.2,7.4,55.6z"/>
	<path d="M16.2,70.4c0.6,0,1.2,0.2,1.6,0.7c0.5,0.5,0.7,1,0.7,1.6s-0.2,1.2-0.7,1.6s-1,0.7-1.6,0.7s-1.2-0.2-1.6-0.7
		c-0.5-0.5-0.7-1-0.7-1.6s0.2-1.2,0.7-1.6C15,70.6,15.5,70.4,16.2,70.4z"/>
</g>
</svg>
