<?xml version="1.0" encoding="utf-8"?>
<!-- Generator: Adobe Illustrator 25.0.1, SVG Export Plug-In . SVG Version: 6.00 Build 0)  -->
<svg version="1.1" id="Layer_1" xmlns="http://www.w3.org/2000/svg" xmlns:xlink="http://www.w3.org/1999/xlink" x="0px" y="0px"
	 viewBox="0 0 238.7 75" style="enable-background:new 0 0 238.7 75;" xml:space="preserve">
<g>
	<g>
		<g>
			<path d="M31.1,17.7v0.7c-0.6,0.1-1.1,0.2-1.4,0.4c-0.3,0.2-0.4,0.5-0.4,1c0,0.4,0.2,1,0.4,1.8l5.7,17.3l-0.9,0.9l5.1-16.3
				l0.6,0.9l-6.1,19.5c-0.1,0-0.1,0-0.2,0s-0.1,0-0.2,0c-0.1,0-0.1,0-0.2,0c-0.1,0-0.1,0-0.2,0l-7.7-23c-0.3-1-0.7-1.6-1.2-1.8
				c-0.5-0.3-1-0.5-1.4-0.5v-0.7c0.5,0,1.1,0.1,1.8,0.1c0.7,0,1.4,0,2.1,0c0.8,0,1.6,0,2.2,0C30,17.8,30.6,17.8,31.1,17.7z
				 M56.6,17.7v0.7c-0.5,0.1-1,0.4-1.5,0.8c-0.6,0.5-1,1.3-1.4,2.4l-6.9,22.2c-0.1,0-0.1,0-0.2,0s-0.1,0-0.2,0s-0.1,0-0.2,0
				c-0.1,0-0.1,0-0.2,0l-7.7-23c-0.3-1-0.6-1.6-1-1.8c-0.4-0.3-0.7-0.5-1.1-0.5v-0.7c0.5,0,1,0.1,1.7,0.1c0.6,0,1.3,0,1.9,0
				c1,0,1.8,0,2.7,0c0.8,0,1.5-0.1,2-0.1v0.7c-0.7,0-1.3,0.1-1.8,0.2c-0.4,0.2-0.6,0.4-0.7,0.8c-0.1,0.4,0.1,1.1,0.3,2.1l5.4,16.9
				l-0.5,0.5l4.9-15.1c0.5-1.4,0.6-2.4,0.6-3.1s-0.3-1.3-0.8-1.6c-0.5-0.3-1.3-0.5-2.3-0.5v-0.9c0.7,0,1.4,0.1,2.2,0.1s1.4,0,2.1,0
				c0.6,0,1.2,0,1.6,0C55.9,17.8,56.3,17.8,56.6,17.7z"/>
			<path d="M63.1,15v13.7c0.6-1.7,1.5-2.8,2.6-3.4c1.1-0.6,2.3-1,3.6-1c1,0,1.7,0.2,2.3,0.4c0.6,0.2,1.1,0.6,1.6,1s0.8,1.1,1,1.8
				c0.2,0.7,0.3,1.8,0.3,2.9v9.8c0,1,0.2,1.8,0.6,2.1c0.4,0.4,1.1,0.6,2.2,0.6v0.8c-0.4,0-1-0.1-1.9-0.1c-0.9,0-1.7-0.1-2.5-0.1
				s-1.6,0-2.4,0.1c-0.8,0-1.4,0.1-1.8,0.1V43c0.9,0,1.5-0.2,1.8-0.6c0.4-0.4,0.6-1,0.6-2.1V29.7c0-0.7-0.1-1.4-0.2-2.1
				c-0.2-0.6-0.4-1.1-0.8-1.5c-0.4-0.4-1.1-0.6-2-0.6c-1.5,0-2.7,0.6-3.7,1.8c-1,1.2-1.4,2.8-1.4,4.8v8.1c0,1,0.2,1.8,0.6,2.1
				c0.4,0.4,1,0.6,1.8,0.6v0.8c-0.4,0-1-0.1-1.8-0.1s-1.5-0.1-2.4-0.1c-0.8,0-1.7,0-2.5,0.1c-0.9,0-1.5,0.1-1.9,0.1v-0.8
				c1,0,1.7-0.2,2.2-0.6c0.4-0.4,0.6-1,0.6-2.1V19.4c0-1.1-0.2-1.9-0.6-2.5c-0.4-0.6-1.1-0.8-2.2-0.8v-0.8c0.8,0.1,1.5,0.1,2.2,0.1
				s1.4-0.1,2-0.2C61.9,15.3,62.5,15.2,63.1,15z"/>
			<path d="M87.8,24.3c1.6,0,2.9,0.3,4.2,1c1.3,0.7,2.2,1.8,2.9,3.2s1.1,3.3,1.1,5.7s-0.4,4.2-1.1,5.7c-0.7,1.4-1.8,2.5-2.9,3.2
				c-1.3,0.7-2.6,1-4.2,1c-1.5,0-2.9-0.3-4.2-1c-1.3-0.7-2.2-1.8-3-3.2c-0.7-1.4-1.1-3.3-1.1-5.7s0.4-4.2,1.1-5.7
				c0.7-1.4,1.8-2.5,3-3.2C84.9,24.6,86.3,24.3,87.8,24.3z M87.8,25c-1.4,0-2.5,0.7-3.4,2.2C83.5,28.6,83,31,83,34.3
				c0,3.3,0.5,5.6,1.4,7c0.9,1.4,2,2.2,3.4,2.2c1.4,0,2.5-0.7,3.4-2.2c0.9-1.4,1.4-3.7,1.4-7s-0.5-5.7-1.4-7.1
				C90.4,25.8,89.2,25,87.8,25z"/>
		</g>
		<g>
			<path d="M113.3,17.7v0.7c-0.6,0.1-1.1,0.2-1.4,0.4c-0.3,0.2-0.4,0.5-0.4,1c0,0.4,0.2,1,0.4,1.8l5.7,17.3l-0.9,0.9l5.1-16.3
				l0.6,0.9l-6.1,19.5c-0.1,0-0.1,0-0.2,0c-0.1,0-0.1,0-0.2,0c-0.1,0-0.1,0-0.2,0c-0.1,0-0.1,0-0.2,0l-7.7-23
				c-0.3-1-0.7-1.6-1.2-1.8c-0.5-0.3-1-0.5-1.4-0.5v-0.7c0.5,0,1.1,0.1,1.8,0.1c0.7,0,1.4,0,2.1,0c0.8,0,1.6,0,2.2,0
				C112.4,17.8,112.9,17.8,113.3,17.7z M138.9,17.7v0.7c-0.5,0.1-1,0.4-1.5,0.8c-0.6,0.5-1,1.3-1.4,2.4l-6.9,22.2
				c-0.1,0-0.1,0-0.2,0s-0.1,0-0.2,0s-0.1,0-0.2,0s-0.1,0-0.2,0l-7.7-23c-0.3-1-0.6-1.6-1-1.8c-0.4-0.3-0.7-0.5-1.1-0.5v-0.7
				c0.5,0,1,0.1,1.7,0.1c0.6,0,1.3,0,1.9,0c1,0,1.8,0,2.7,0c0.8,0,1.5-0.1,2-0.1v0.7c-0.7,0-1.3,0.1-1.8,0.2
				c-0.4,0.2-0.6,0.4-0.7,0.8c-0.1,0.4,0.1,1.1,0.3,2.1l5.4,16.9l-0.5,0.5l4.9-15.1c0.5-1.4,0.6-2.4,0.6-3.1c0-0.7-0.3-1.3-0.8-1.6
				c-0.5-0.3-1.3-0.5-2.3-0.5v-0.9c0.7,0,1.4,0.1,2.2,0.1c0.7,0,1.4,0,2.1,0s1.2,0,1.6,0C138.1,17.8,138.5,17.8,138.9,17.7z"/>
			<path d="M142.9,43.9c-1.6,0-2.7-0.4-3.4-1.2c-0.7-0.8-1.1-1.8-1.1-3.2c0-1,0.2-1.8,0.7-2.5c0.5-0.6,1.1-1.2,1.9-1.7
				c0.8-0.4,1.6-0.8,2.5-1.1c0.9-0.3,1.7-0.6,2.5-0.9c0.8-0.3,1.4-0.6,1.9-1c0.5-0.4,0.7-0.8,0.7-1.4v-2.2c0-1-0.2-1.8-0.5-2.3
				c-0.3-0.6-0.7-0.9-1.2-1.1c-0.5-0.2-1.1-0.2-1.8-0.2s-1.3,0.1-2,0.2c-0.7,0.2-1.3,0.6-1.7,1c0.5,0.1,0.9,0.3,1.2,0.7
				c0.3,0.4,0.5,0.9,0.5,1.5c0,0.6-0.2,1.1-0.6,1.4c-0.4,0.3-0.9,0.6-1.5,0.6c-0.7,0-1.2-0.2-1.6-0.6c-0.3-0.5-0.5-1-0.5-1.5
				c0-0.6,0.2-1.1,0.5-1.5c0.3-0.4,0.7-0.7,1.2-1.1c0.6-0.4,1.3-0.7,2.2-1c0.9-0.3,1.9-0.4,3-0.4c1,0,1.8,0.1,2.5,0.3
				c0.7,0.2,1.3,0.6,1.8,1c0.6,0.6,1,1.3,1.3,2.2s0.3,1.8,0.3,3v10.2c0,0.6,0.1,1,0.2,1.3c0.2,0.3,0.5,0.4,0.9,0.4
				c0.3,0,0.6-0.1,0.9-0.2s0.5-0.3,0.7-0.6l0.4,0.6c-0.5,0.4-1,0.7-1.4,1c-0.5,0.2-1.1,0.4-1.8,0.4c-1.3,0-2.1-0.3-2.5-1
				c-0.4-0.6-0.6-1.4-0.6-2.2c-0.8,1.3-1.7,2.2-2.6,2.6C145,43.7,144,43.9,142.9,43.9z M144.5,42.4c0.7,0,1.4-0.2,2.2-0.6
				c0.7-0.4,1.4-1.1,2-2.2v-7.2c-0.4,0.6-1,1-1.7,1.3c-0.8,0.3-1.6,0.6-2.4,1c-0.8,0.4-1.5,0.9-2.1,1.5c-0.6,0.6-0.9,1.6-0.9,2.8
				c0,1.1,0.3,2,0.9,2.5C143,42.2,143.7,42.4,144.5,42.4z"/>
			<path d="M162.8,24.3c1,0,1.8,0.2,2.5,0.5c0.7,0.3,1.2,0.6,1.5,0.9c0.8,0.6,1.3,0.2,1.4-1.4h0.9c-0.1,0.7-0.1,1.5-0.1,2.5
				c0,1,0,2.2,0,3.7h-0.9c-0.2-0.9-0.4-1.8-0.7-2.6s-0.9-1.6-1.5-2.1c-0.7-0.6-1.6-0.8-2.7-0.8c-0.9,0-1.6,0.2-2.2,0.7
				c-0.6,0.5-0.9,1.2-0.9,2.1c0,0.7,0.2,1.4,0.6,1.9c0.5,0.6,1,1,1.8,1.4c0.7,0.5,1.5,1,2.3,1.5c1.4,0.9,2.5,1.8,3.6,2.7
				c1,1,1.4,2.2,1.4,3.7c0,1.1-0.3,2.1-0.9,2.8s-1.4,1.4-2.3,1.8c-1,0.4-2,0.6-3.1,0.6c-0.6,0-1-0.1-1.5-0.2c-0.5-0.1-1-0.2-1.4-0.4
				c-0.2-0.2-0.5-0.2-0.7-0.5c-0.2-0.2-0.5-0.3-0.7-0.6c-0.2-0.2-0.5-0.2-0.6,0c-0.2,0.2-0.3,0.6-0.5,1.2h-0.9
				c0.1-0.8,0.1-1.8,0.1-2.9c0-1.1,0-2.6,0-4.5h0.9c0.2,1.4,0.4,2.5,0.7,3.6c0.3,1,0.8,1.8,1.5,2.4c0.7,0.6,1.6,0.9,2.9,0.9
				c0.7,0,1.4-0.2,2.2-0.8c0.7-0.5,1.1-1.4,1.1-2.7c0-1-0.4-1.9-1.2-2.6c-0.8-0.7-1.8-1.4-2.9-2.2c-0.9-0.6-1.7-1.1-2.5-1.7
				c-0.8-0.6-1.4-1.2-1.8-1.9c-0.5-0.7-0.7-1.6-0.7-2.5c0-1.1,0.2-2,0.7-2.7s1.2-1.2,2-1.5C161,24.3,161.8,24.3,162.8,24.3z"/>
		</g>
		<g>
			<path d="M33.7,48c1.2,0,2.2,0.2,2.8,0.4c0.6,0.3,1.2,0.6,1.7,1c0.3,0.2,0.6,0.3,0.7,0.4c0.2,0.1,0.4,0.2,0.6,0.2
				c0.4,0,0.6-0.6,0.8-1.6h0.9c0,0.4-0.1,0.9-0.1,1.5c0,0.6-0.1,1.4-0.1,2.2c0,1,0,2.2,0,3.7h-0.9c-0.1-1.2-0.3-2.3-0.8-3.3
				c-0.5-1-1.1-1.9-1.9-2.6c-0.9-0.7-1.9-1-3.3-1c-1.3,0-2.4,0.4-3.2,1.2c-0.9,0.8-1.3,1.8-1.3,3.1c0,1.1,0.3,2,0.9,2.8
				c0.6,0.7,1.3,1.4,2.2,2c1,0.6,2,1.3,3,1.9c1.3,0.8,2.4,1.6,3.3,2.3c1,0.8,1.8,1.6,2.3,2.5c0.6,1,0.9,2.1,0.9,3.3
				c0,1.6-0.3,2.9-1,3.9c-0.7,1-1.7,1.8-2.8,2.3c-1.1,0.6-2.5,0.8-3.9,0.8c-1.3,0-2.3-0.2-3.1-0.5c-0.7-0.3-1.4-0.6-1.9-0.9
				c-0.6-0.3-1-0.5-1.3-0.5c-0.4,0-0.6,0.6-0.8,1.6h-0.8c0.1-0.5,0.1-1.1,0.1-1.8s0-1.6,0-2.7s0-2.5,0-4.2h0.9
				c0.1,1.4,0.4,2.8,0.8,4.1c0.4,1.3,1.1,2.3,2.1,3c1,0.8,2.2,1.1,3.7,1.1c1.2,0,2.3-0.4,3.3-1.1c1-0.8,1.5-2,1.5-3.7
				c0-1.5-0.6-2.7-1.6-3.7c-1-1-2.4-2-4.1-3c-1.1-0.7-2.2-1.4-3.2-2.2c-1-0.7-1.8-1.6-2.4-2.5s-0.9-2.2-0.9-3.5c0-1.4,0.3-2.6,1-3.6
				c0.6-1,1.5-1.6,2.5-2.1C31.4,48.1,32.5,48,33.7,48z"/>
			<path d="M50.8,45.6v13.7c0.6-1.7,1.5-2.8,2.6-3.4c1.1-0.6,2.3-1,3.6-1c1,0,1.7,0.2,2.3,0.4s1.1,0.6,1.6,1c0.5,0.5,0.8,1.1,1,1.8
				c0.2,0.7,0.3,1.8,0.3,2.9v9.8c0,1,0.2,1.8,0.6,2.1c0.4,0.4,1.1,0.6,2.2,0.6v0.8c-0.4,0-1-0.1-1.9-0.1c-0.9,0-1.7-0.1-2.5-0.1
				c-0.8,0-1.6,0-2.4,0.1c-0.8,0-1.4,0.1-1.8,0.1v-0.8c0.9,0,1.5-0.2,1.8-0.6c0.4-0.4,0.6-1,0.6-2.1V60.3c0-0.7-0.1-1.4-0.2-2.1
				c-0.2-0.6-0.4-1.1-0.8-1.5c-0.4-0.4-1.1-0.6-2-0.6c-1.5,0-2.7,0.6-3.7,1.8c-1,1.2-1.4,2.8-1.4,4.8v8.1c0,1,0.2,1.8,0.6,2.1
				c0.4,0.4,1,0.6,1.8,0.6v0.8c-0.4,0-1-0.1-1.8-0.1c-0.8,0-1.5-0.1-2.4-0.1c-0.8,0-1.7,0-2.5,0.1c-0.9,0-1.5,0.1-1.9,0.1v-0.8
				c1,0,1.7-0.2,2.2-0.6c0.4-0.4,0.6-1,0.6-2.1V50c0-1.1-0.2-1.9-0.6-2.5c-0.4-0.6-1.1-0.8-2.2-0.8v-0.8c0.8,0.1,1.5,0.1,2.2,0.1
				c0.7,0,1.4-0.1,2-0.2C49.7,45.9,50.4,45.8,50.8,45.6z"/>
			<path d="M75.6,54.9c1.6,0,2.9,0.3,4.2,1s2.2,1.8,2.9,3.2s1.1,3.3,1.1,5.7c0,2.4-0.4,4.2-1.1,5.7s-1.8,2.5-2.9,3.2
				c-1.3,0.7-2.6,1-4.2,1c-1.5,0-2.9-0.3-4.2-1c-1.3-0.7-2.2-1.8-3-3.2c-0.7-1.4-1.1-3.3-1.1-5.7c0-2.3,0.4-4.2,1.1-5.7
				c0.7-1.4,1.8-2.5,3-3.2C72.7,55.2,74,54.9,75.6,54.9z M75.6,55.6c-1.4,0-2.5,0.7-3.4,2.2c-0.9,1.4-1.4,3.8-1.4,7.1s0.5,5.6,1.4,7
				s2,2.2,3.4,2.2c1.4,0,2.5-0.7,3.4-2.2c0.9-1.4,1.4-3.7,1.4-7c0-3.3-0.5-5.7-1.4-7.1C78.1,56.4,77,55.6,75.6,55.6z"/>
			<path d="M92.6,49.3v6.1H98v0.7h-5.4v14.2c0,1.1,0.2,1.9,0.6,2.4c0.4,0.5,1,0.7,1.8,0.7c0.7,0,1.4-0.3,1.9-0.9
				c0.6-0.6,1-1.6,1.4-3l0.7,0.2c-0.2,1.4-0.7,2.6-1.4,3.6c-0.7,1-1.8,1.4-3.3,1.4c-0.8,0-1.5-0.1-2.1-0.3c-0.6-0.2-1-0.5-1.4-0.9
				c-0.6-0.6-0.9-1.2-1.1-2c-0.2-0.8-0.3-1.8-0.3-3.1V56.2h-3.5v-0.7h3.5v-5.6c0.6,0,1.2-0.1,1.8-0.2C91.6,49.7,92.1,49.5,92.6,49.3
				z"/>
			<path d="M106.4,45.7c2.3,0,4.1,0.6,5.6,1.8s2.2,2.8,2.2,4.9c0,2.1-0.7,3.7-2.2,5.1c-1.5,1.4-3.5,2.3-6,2.9v5.3h-0.7V60
				c1.6-0.6,2.9-1.3,3.7-2s1.4-1.5,1.6-2.4c0.3-0.9,0.4-1.8,0.4-2.7c0-2.3-0.5-4-1.4-5c-1-1-2.2-1.5-3.7-1.5c-0.6,0-1.2,0.1-1.9,0.2
				c-0.7,0.2-1.3,0.6-1.7,1c0.5,0.1,0.8,0.3,1.1,0.6c0.3,0.3,0.4,0.7,0.4,1.3c0,0.6-0.2,1.1-0.6,1.4s-0.9,0.6-1.4,0.6
				c-0.6,0-1-0.2-1.4-0.6c-0.4-0.4-0.6-0.8-0.6-1.4c0-0.5,0.2-1,0.5-1.4c0.3-0.5,0.7-0.9,1.3-1.2c0.5-0.3,1.2-0.6,2-0.9
				C104.2,45.8,105.3,45.7,106.4,45.7z M105.5,70.1c0.6,0,1.2,0.2,1.7,0.7c0.5,0.5,0.7,1,0.7,1.7c0,0.6-0.2,1.2-0.7,1.7
				c-0.5,0.5-1,0.7-1.7,0.7s-1.2-0.2-1.7-0.7c-0.5-0.5-0.7-1-0.7-1.7s0.2-1.2,0.7-1.7C104.4,70.3,104.9,70.1,105.5,70.1z"/>
		</g>
	</g>
	<g>
		<path d="M9.3,55.6l0.1,0.7l-8,11.4v-0.5h8.8c0.8,0,1.3-0.1,1.5-0.3c0.2-0.2,0.3-0.6,0.4-1.1h0.5c0,1,0,1.7,0,2.2s0.1,1,0.1,1.4
			c-0.2,0-0.5-0.1-1-0.1c-0.5,0-1,0-1.6-0.1c-0.6-0.1-1.2,0-1.8,0H0v-0.6L9.3,55.6z M9.8,55.6v19.2H7.5V58.6l1.8-3H9.8z"/>
		<path d="M17.3,67.4c0.5,0,1,0.2,1.3,0.6c0.4,0.4,0.6,0.8,0.6,1.3s-0.2,1-0.6,1.3c-0.4,0.3-0.8,0.6-1.3,0.6s-1-0.2-1.3-0.6
			c-0.4-0.4-0.6-0.8-0.6-1.3s0.2-1,0.6-1.3C16.3,67.6,16.8,67.4,17.3,67.4z"/>
	</g>
</g>
</svg>
