<?xml version="1.0" encoding="utf-8"?>
<!-- Generator: Adobe Illustrator 25.0.1, SVG Export Plug-In . SVG Version: 6.00 Build 0)  -->
<svg version="1.1" id="Layer_1" xmlns="http://www.w3.org/2000/svg" xmlns:xlink="http://www.w3.org/1999/xlink" x="0px" y="0px"
	 viewBox="0 0 238.7 75" style="enable-background:new 0 0 238.7 75;" xml:space="preserve">
<g>
	<g>
		<path d="M39,3.4v0.9c-0.8,0.1-1.4,0.2-1.7,0.5C36.9,5,36.8,5.4,36.8,6c0,0.5,0.2,1.3,0.5,2.2l7.1,21.7L43.3,31l6.4-20.5l0.7,1.1
			l-7.6,24.5c-0.1,0-0.1,0-0.2,0c-0.1,0-0.1,0-0.2,0s-0.1,0-0.2,0c-0.1,0-0.1,0-0.2,0L32.3,7.2c-0.4-1.2-0.9-2-1.5-2.3
			c-0.6-0.4-1.2-0.6-1.7-0.6V3.4c0.6,0,1.4,0.1,2.3,0.1c0.9,0,1.8,0,2.6,0c1,0,2,0,2.8,0C37.7,3.5,38.4,3.5,39,3.4z M71,3.4v0.9
			c-0.6,0.1-1.2,0.5-1.9,1c-0.7,0.6-1.3,1.6-1.7,3l-8.7,27.8c-0.1,0-0.1,0-0.2,0c-0.1,0-0.1,0-0.2,0c-0.1,0-0.1,0-0.2,0
			c-0.1,0-0.1,0-0.2,0L48.2,7.2c-0.4-1.2-0.8-2-1.3-2.3c-0.5-0.4-0.9-0.6-1.4-0.6V3.4c0.6,0,1.2,0.1,2.1,0.1c0.8,0,1.6,0,2.4,0
			c1.2,0,2.3,0,3.4,0c1,0,1.9-0.1,2.5-0.1v0.9c-0.9,0-1.6,0.1-2.2,0.3c-0.5,0.2-0.8,0.5-0.9,1c-0.1,0.5,0.1,1.4,0.4,2.6L60,29.4
			L59.4,30l6.1-19c0.6-1.7,0.8-3,0.8-3.9s-0.4-1.6-1-2s-1.6-0.6-2.9-0.6V3.4c0.9,0,1.8,0.1,2.7,0.1s1.8,0,2.6,0c0.8,0,1.5,0,2,0
			C70.1,3.5,70.6,3.5,71,3.4z"/>
		<path d="M79.2,0v17.2c0.8-2.1,1.9-3.5,3.3-4.3s2.9-1.2,4.5-1.2c1.2,0,2.1,0.2,2.9,0.5s1.4,0.7,2,1.3s1,1.4,1.2,2.3
			c0.2,0.9,0.4,2.2,0.4,3.7v12.3c0,1.3,0.3,2.2,0.8,2.6c0.5,0.5,1.4,0.7,2.7,0.7v1c-0.5,0-1.3-0.1-2.4-0.1s-2.1-0.1-3.1-0.1
			s-2,0-3,0.1c-1,0-1.7,0.1-2.2,0.1v-1c1.1,0,1.9-0.2,2.3-0.7c0.5-0.5,0.7-1.3,0.7-2.6V18.4c0-0.9-0.1-1.8-0.2-2.6
			c-0.2-0.8-0.5-1.4-1-1.9s-1.4-0.7-2.5-0.7c-1.9,0-3.4,0.8-4.6,2.3s-1.8,3.5-1.8,6v10.2c0,1.3,0.2,2.2,0.7,2.6
			c0.5,0.5,1.2,0.7,2.3,0.7v1c-0.5,0-1.2-0.1-2.2-0.1s-1.9-0.1-3-0.1c-1,0-2.1,0-3.1,0.1c-1.1,0-1.9,0.1-2.4,0.1v-1
			c1.3,0,2.1-0.2,2.7-0.7c0.5-0.5,0.8-1.3,0.8-2.6V5.5c0-1.4-0.2-2.4-0.7-3.1s-1.4-1-2.8-1v-1c1,0.1,1.9,0.1,2.8,0.1
			s1.7-0.1,2.5-0.2C77.7,0.4,78.5,0.2,79.2,0z"/>
		<path d="M110.2,11.7c2,0,3.7,0.4,5.3,1.3c1.6,0.9,2.8,2.2,3.7,4s1.4,4.2,1.4,7.2s-0.5,5.3-1.4,7.1s-2.2,3.2-3.7,4
			c-1.6,0.9-3.3,1.3-5.3,1.3c-1.9,0-3.7-0.4-5.3-1.3c-1.6-0.9-2.8-2.2-3.8-4c-0.9-1.8-1.4-4.2-1.4-7.1s0.5-5.3,1.4-7.2
			c0.9-1.8,2.2-3.2,3.8-4C106.5,12.1,108.3,11.7,110.2,11.7z M110.2,12.6c-1.7,0-3.2,0.9-4.3,2.7s-1.7,4.8-1.7,8.9s0.6,7,1.7,8.8
			s2.5,2.7,4.3,2.7c1.7,0,3.2-0.9,4.3-2.7s1.7-4.7,1.7-8.8s-0.6-7.1-1.7-8.9C113.4,13.5,111.9,12.6,110.2,12.6z"/>
	</g>
	<g>
		<path d="M142.2,3.4v0.9c-0.8,0.1-1.4,0.2-1.7,0.5C140.1,5,140,5.4,140,6c0,0.5,0.2,1.3,0.5,2.2l7.1,21.7l-1.1,1.1l6.4-20.5
			l0.7,1.1L146,36.1c-0.1,0-0.1,0-0.2,0c-0.1,0-0.1,0-0.2,0c-0.1,0-0.1,0-0.2,0c-0.1,0-0.1,0-0.2,0l-9.7-28.9
			c-0.4-1.2-0.9-2-1.5-2.3c-0.6-0.4-1.2-0.6-1.7-0.6V3.4c0.6,0,1.4,0.1,2.3,0.1c0.9,0,1.8,0,2.6,0c1,0,2,0,2.8,0
			C141,3.5,141.7,3.5,142.2,3.4z M174.3,3.4v0.9c-0.6,0.1-1.2,0.5-1.9,1c-0.7,0.6-1.3,1.6-1.7,3L162,36.1c-0.1,0-0.1,0-0.2,0
			c-0.1,0-0.1,0-0.2,0c-0.1,0-0.1,0-0.2,0c-0.1,0-0.1,0-0.2,0l-9.7-28.9c-0.4-1.2-0.8-2-1.3-2.3c-0.5-0.4-0.9-0.6-1.4-0.6V3.4
			c0.6,0,1.2,0.1,2.1,0.1c0.8,0,1.6,0,2.4,0c1.2,0,2.3,0,3.4,0c1,0,1.9-0.1,2.5-0.1v0.9c-0.9,0-1.6,0.1-2.2,0.3
			c-0.5,0.2-0.8,0.5-0.9,1c-0.1,0.5,0.1,1.4,0.4,2.6l6.8,21.2l-0.6,0.6l6.1-19c0.6-1.7,0.8-3,0.8-3.9s-0.4-1.6-1-2s-1.6-0.6-2.9-0.6
			V3.4c0.9,0,1.8,0.1,2.7,0.1s1.8,0,2.6,0s1.5,0,2,0C173.3,3.5,173.8,3.5,174.3,3.4z"/>
		<path d="M179.4,36.3c-2,0-3.4-0.5-4.3-1.5c-0.9-1-1.4-2.3-1.4-4c0-1.3,0.3-2.3,0.9-3.2c0.6-0.8,1.4-1.5,2.4-2.1c1-0.5,2-1,3.1-1.4
			s2.1-0.8,3.1-1.1c1-0.4,1.8-0.8,2.4-1.2c0.6-0.5,0.9-1,0.9-1.7v-2.8c0-1.3-0.2-2.3-0.6-2.9c-0.4-0.7-0.9-1.1-1.5-1.4
			c-0.6-0.2-1.4-0.3-2.2-0.3s-1.6,0.1-2.5,0.3s-1.6,0.7-2.1,1.3c0.6,0.1,1.1,0.4,1.5,0.9s0.6,1.1,0.6,1.9c0,0.8-0.2,1.4-0.7,1.8
			s-1.1,0.7-1.9,0.7c-0.9,0-1.5-0.3-2-0.8c-0.4-0.6-0.6-1.2-0.6-1.9c0-0.8,0.2-1.4,0.6-1.9c0.4-0.5,0.9-0.9,1.5-1.4
			c0.7-0.5,1.6-0.9,2.7-1.3c1.1-0.4,2.4-0.5,3.8-0.5c1.3,0,2.3,0.1,3.2,0.4c0.9,0.3,1.6,0.7,2.2,1.3c0.8,0.7,1.3,1.6,1.6,2.7
			s0.4,2.3,0.4,3.8v12.8c0,0.7,0.1,1.3,0.3,1.6c0.2,0.4,0.6,0.5,1.1,0.5c0.4,0,0.8-0.1,1.1-0.3s0.6-0.4,0.9-0.7l0.5,0.8
			c-0.6,0.5-1.3,0.9-1.8,1.2c-0.6,0.3-1.4,0.5-2.3,0.5c-1.6,0-2.6-0.4-3.2-1.2c-0.5-0.8-0.8-1.8-0.8-2.8c-1,1.6-2.1,2.7-3.3,3.3
			C182,36,180.7,36.3,179.4,36.3z M181.4,34.4c0.9,0,1.8-0.3,2.7-0.8s1.7-1.4,2.5-2.7v-9c-0.5,0.7-1.2,1.2-2.1,1.6
			c-1,0.4-2,0.8-3,1.3s-1.9,1.1-2.6,1.9c-0.7,0.8-1.1,2-1.1,3.5c0,1.4,0.4,2.5,1.1,3.1C179.5,34.1,180.4,34.4,181.4,34.4z"/>
		<path d="M204.3,11.7c1.2,0,2.3,0.2,3.1,0.6c0.9,0.4,1.5,0.8,1.9,1.1c1,0.8,1.6,0.3,1.8-1.7h1.1c-0.1,0.9-0.1,1.9-0.1,3.1
			s0,2.8,0,4.7H211c-0.2-1.1-0.5-2.2-0.9-3.3c-0.4-1.1-1.1-2-1.9-2.6c-0.9-0.7-2-1-3.4-1c-1.1,0-2,0.3-2.7,0.9
			c-0.7,0.6-1.1,1.5-1.1,2.6c0,0.9,0.3,1.7,0.8,2.4c0.6,0.7,1.3,1.3,2.2,1.8c0.9,0.6,1.9,1.2,2.9,1.9c1.7,1.1,3.2,2.3,4.5,3.4
			c1.2,1.2,1.8,2.7,1.8,4.6c0,1.4-0.4,2.6-1.1,3.5c-0.7,0.9-1.7,1.7-2.9,2.2s-2.5,0.7-3.9,0.7c-0.7,0-1.3-0.1-1.9-0.2
			c-0.6-0.1-1.2-0.3-1.7-0.5c-0.3-0.2-0.6-0.3-0.9-0.6c-0.3-0.2-0.6-0.4-0.9-0.7c-0.3-0.2-0.6-0.2-0.8,0c-0.2,0.3-0.4,0.8-0.6,1.5
			h-1.1c0.1-1,0.1-2.2,0.1-3.6c0-1.4,0-3.3,0-5.6h1.1c0.2,1.7,0.5,3.2,0.9,4.5c0.4,1.3,1,2.3,1.9,3s2,1.1,3.6,1.1
			c0.9,0,1.8-0.3,2.7-1c0.9-0.6,1.4-1.8,1.4-3.4c0-1.3-0.5-2.4-1.5-3.3s-2.2-1.8-3.7-2.7c-1.1-0.7-2.1-1.4-3.1-2.1s-1.7-1.5-2.3-2.4
			s-0.9-2-0.9-3.2c0-1.4,0.3-2.5,0.9-3.4c0.6-0.9,1.5-1.5,2.5-1.9S203.1,11.7,204.3,11.7z"/>
	</g>
	<g>
		<path d="M42.3,41.4c1.5,0,2.7,0.2,3.5,0.5c0.8,0.4,1.5,0.7,2.1,1.2c0.4,0.2,0.7,0.4,0.9,0.5s0.5,0.2,0.7,0.2c0.5,0,0.8-0.7,1-2
			h1.1c0,0.5-0.1,1.1-0.1,1.9c0,0.7-0.1,1.7-0.1,2.8c0,1.2,0,2.7,0,4.7h-1.1c-0.1-1.5-0.4-2.9-1-4.2s-1.4-2.4-2.4-3.3
			c-1.1-0.9-2.4-1.3-4.2-1.3c-1.6,0-3,0.5-4,1.5c-1.1,1-1.6,2.3-1.6,3.9c0,1.4,0.4,2.5,1.1,3.5c0.7,0.9,1.6,1.8,2.8,2.5
			s2.5,1.6,3.8,2.4c1.6,1,3,2,4.2,2.9c1.2,1,2.2,2,2.9,3.2s1.1,2.6,1.1,4.2c0,2-0.4,3.6-1.3,4.9c-0.9,1.3-2.1,2.2-3.5,2.9
			c-1.4,0.7-3.1,1-4.9,1c-1.6,0-2.9-0.2-3.9-0.6c-0.9-0.4-1.8-0.7-2.4-1.1c-0.7-0.4-1.2-0.6-1.6-0.6c-0.5,0-0.8,0.7-1,2h-1
			c0.1-0.6,0.1-1.4,0.1-2.3s0-2,0-3.4s0-3.2,0-5.3h1.1c0.1,1.8,0.5,3.5,1,5.1s1.4,2.9,2.6,3.8c1.2,1,2.7,1.4,4.7,1.4
			c1.5,0,2.9-0.5,4.1-1.4c1.2-1,1.9-2.5,1.9-4.7c0-1.9-0.7-3.4-2-4.6c-1.3-1.2-3-2.5-5.2-3.8c-1.4-0.9-2.8-1.8-4-2.7
			c-1.3-0.9-2.3-2-3-3.2s-1.1-2.7-1.1-4.4c0-1.8,0.4-3.3,1.2-4.5s1.9-2,3.2-2.6C39.4,41.6,40.8,41.4,42.3,41.4z"/>
		<path d="M63.8,38.4v17.2c0.8-2.1,1.9-3.5,3.3-4.3s2.9-1.2,4.5-1.2c1.2,0,2.1,0.2,2.9,0.5s1.4,0.7,2,1.3s1,1.4,1.2,2.3
			c0.2,0.9,0.4,2.2,0.4,3.7v12.3c0,1.3,0.3,2.2,0.8,2.6c0.5,0.5,1.4,0.7,2.7,0.7v1c-0.5,0-1.3-0.1-2.4-0.1s-2.1-0.1-3.1-0.1
			s-2,0-3,0.1c-1,0-1.7,0.1-2.2,0.1v-1c1.1,0,1.9-0.2,2.3-0.7c0.5-0.5,0.7-1.3,0.7-2.6V56.8c0-0.9-0.1-1.8-0.2-2.6
			c-0.2-0.8-0.5-1.4-1-1.9s-1.4-0.7-2.5-0.7c-1.9,0-3.4,0.8-4.6,2.3s-1.8,3.5-1.8,6v10.2c0,1.3,0.2,2.2,0.7,2.6
			c0.5,0.5,1.2,0.7,2.3,0.7v1c-0.5,0-1.2-0.1-2.2-0.1s-1.9-0.1-3-0.1c-1,0-2.1,0-3.1,0.1c-1.1,0-1.9,0.1-2.4,0.1v-1
			c1.3,0,2.1-0.2,2.7-0.7c0.5-0.5,0.8-1.3,0.8-2.6V43.9c0-1.4-0.2-2.4-0.7-3.1c-0.5-0.7-1.4-1-2.8-1v-1c1,0.1,1.9,0.1,2.8,0.1
			c0.9,0,1.7-0.1,2.5-0.2C62.4,38.8,63.2,38.6,63.8,38.4z"/>
		<path d="M94.9,50.1c2,0,3.7,0.4,5.3,1.3c1.6,0.9,2.8,2.2,3.7,4s1.4,4.2,1.4,7.2s-0.5,5.3-1.4,7.1c-0.9,1.8-2.2,3.2-3.7,4
			c-1.6,0.9-3.3,1.3-5.3,1.3c-1.9,0-3.7-0.4-5.3-1.3s-2.8-2.2-3.8-4c-0.9-1.8-1.4-4.2-1.4-7.1s0.5-5.3,1.4-7.2
			c0.9-1.8,2.2-3.2,3.8-4C91.2,50.5,92.9,50.1,94.9,50.1z M94.9,51c-1.7,0-3.2,0.9-4.3,2.7s-1.7,4.8-1.7,8.9s0.6,7,1.7,8.8
			s2.5,2.7,4.3,2.7c1.7,0,3.2-0.9,4.3-2.7c1.1-1.8,1.7-4.7,1.7-8.8s-0.6-7.1-1.7-8.9C98,51.9,96.6,51,94.9,51z"/>
		<path d="M116.2,43.1v7.7h6.8v0.9h-6.8v17.8c0,1.4,0.3,2.4,0.8,3s1.2,0.9,2.2,0.9c0.9,0,1.7-0.4,2.4-1.1s1.3-2,1.7-3.8l0.9,0.2
			c-0.3,1.8-0.9,3.3-1.8,4.5s-2.3,1.8-4.2,1.8c-1,0-1.9-0.1-2.6-0.4s-1.3-0.6-1.8-1.1c-0.7-0.7-1.1-1.5-1.4-2.5s-0.4-2.3-0.4-3.9
			V51.7h-4.4v-0.9h4.4v-7c0.8,0,1.5-0.1,2.2-0.2C114.9,43.5,115.6,43.3,116.2,43.1z"/>
		<path d="M133.5,38.5c2.9,0,5.2,0.7,7,2.2s2.7,3.5,2.7,6.1s-0.9,4.7-2.8,6.4c-1.9,1.7-4.4,2.9-7.5,3.7v6.7H132v-7.1
			c2-0.8,3.6-1.6,4.6-2.5s1.7-1.9,2-3c0.4-1.1,0.5-2.2,0.5-3.4c0-2.9-0.6-5-1.8-6.3s-2.7-1.9-4.6-1.9c-0.7,0-1.5,0.1-2.4,0.3
			s-1.6,0.7-2.1,1.3c0.6,0.1,1,0.4,1.4,0.8c0.4,0.4,0.5,0.9,0.5,1.6c0,0.8-0.2,1.4-0.7,1.8c-0.5,0.4-1.1,0.7-1.8,0.7
			s-1.3-0.2-1.7-0.7c-0.5-0.5-0.7-1-0.7-1.7c0-0.6,0.2-1.2,0.6-1.8s0.9-1.1,1.6-1.5c0.6-0.4,1.5-0.8,2.5-1.1
			C130.8,38.6,132.1,38.5,133.5,38.5z M132.4,69.1c0.8,0,1.5,0.3,2.1,0.9s0.9,1.3,0.9,2.1c0,0.8-0.3,1.5-0.9,2.1
			c-0.6,0.6-1.3,0.9-2.1,0.9s-1.5-0.3-2.1-0.9s-0.9-1.3-0.9-2.1c0-0.8,0.3-1.5,0.9-2.1C131,69.4,131.6,69.1,132.4,69.1z"/>
	</g>
</g>
<g>
	<path d="M11.7,50.9l0.1,0.9L1.7,66.1v-0.6h11c1,0,1.6-0.1,1.9-0.4c0.3-0.3,0.4-0.8,0.5-1.4h0.6c0,1.2,0,2.1,0,2.7s0.1,1.2,0.1,1.7
		c-0.2,0-0.6-0.1-1.2-0.1c-0.6,0-1.2,0-2-0.1s-1.5,0-2.2,0H0v-0.8L11.7,50.9z M12.3,50.9V75H9.4V54.7l2.3-3.8H12.3z"/>
	<path d="M21.7,65.8c0.6,0,1.2,0.2,1.6,0.7c0.5,0.5,0.7,1,0.7,1.6s-0.2,1.2-0.7,1.6s-1,0.7-1.6,0.7s-1.2-0.2-1.6-0.7
		c-0.5-0.5-0.7-1-0.7-1.6s0.2-1.2,0.7-1.6C20.5,66,21.1,65.8,21.7,65.8z"/>
</g>
</svg>
