<?xml version="1.0" encoding="utf-8"?>
<!-- Generator: Adobe Illustrator 25.0.1, SVG Export Plug-In . SVG Version: 6.00 Build 0)  -->
<svg version="1.1" id="Layer_1" xmlns="http://www.w3.org/2000/svg" xmlns:xlink="http://www.w3.org/1999/xlink" x="0px" y="0px"
	 viewBox="0 0 238.7 75" style="enable-background:new 0 0 238.7 75;" xml:space="preserve">
<g>
	<g>
		<g>
			<path d="M44.5,17.8c-0.1,1-0.2,1.8-0.2,2.6c0,0.9-0.1,1.5-0.1,2c0,0.6,0,1.1,0,1.7c0,0.5,0.1,1,0.1,1.4h-0.8
				c-0.2-1.7-0.4-3-0.7-4c-0.3-1-0.8-1.7-1.5-2.2c-0.7-0.4-1.8-0.6-3.4-0.6h-2v20.7c0,1,0.1,1.7,0.2,2.2c0.2,0.5,0.6,0.8,1,1
				c0.6,0.2,1.3,0.3,2.3,0.3v0.7c-0.6-0.1-1.4-0.1-2.4-0.1c-1,0-1.9,0-3,0c-1.1,0-2.2,0-3.1,0s-1.8,0.1-2.3,0.1v-0.7
				c1-0.1,1.8-0.2,2.3-0.3c0.6-0.2,0.9-0.5,1-1c0.2-0.5,0.2-1.2,0.2-2.2V18.6h-1.8c-1.4,0-2.6,0.2-3.4,0.6c-0.7,0.5-1.2,1.2-1.5,2.2
				s-0.6,2.3-0.7,4h-0.8c0.1-0.4,0.1-0.8,0.1-1.4c0-0.5,0-1,0-1.7c0-0.5,0-1.1-0.1-2c0-0.9-0.1-1.8-0.2-2.6c1,0,2.2,0.1,3.4,0.1
				s2.4,0,3.6,0s2.3,0,3.3,0c1,0,2.1,0,3.3,0s2.4,0,3.6,0C42.3,17.8,43.5,17.8,44.5,17.8z"/>
			<path d="M51,43.8c-1.6,0-2.7-0.4-3.4-1.2s-1-1.8-1-3.1c0-1,0.2-1.8,0.7-2.6c0.5-0.6,1.1-1.2,1.9-1.7c0.8-0.4,1.6-0.8,2.5-1.1
				c0.9-0.3,1.7-0.6,2.5-0.9c0.8-0.3,1.4-0.6,1.9-1c0.5-0.4,0.7-0.8,0.7-1.4v-2.2c0-1-0.2-1.8-0.5-2.3s-0.7-0.9-1.2-1
				c-0.5-0.2-1.1-0.2-1.7-0.2c-0.6,0-1.3,0.1-1.9,0.2c-0.7,0.2-1.3,0.6-1.7,1c0.5,0.1,0.9,0.3,1.2,0.7c0.3,0.4,0.5,0.9,0.5,1.5
				s-0.2,1.1-0.6,1.4c-0.4,0.3-0.9,0.6-1.5,0.6c-0.7,0-1.2-0.2-1.5-0.6c-0.3-0.5-0.5-1-0.5-1.5c0-0.6,0.2-1.1,0.5-1.5
				c0.3-0.4,0.7-0.7,1.2-1.1c0.6-0.4,1.3-0.7,2.2-1c0.9-0.3,1.9-0.4,3-0.4c1,0,1.8,0.1,2.6,0.3c0.7,0.2,1.3,0.6,1.8,1
				c0.6,0.6,1,1.3,1.2,2.2c0.2,0.8,0.3,1.8,0.3,3V41c0,0.6,0.1,1,0.2,1.3c0.2,0.2,0.5,0.4,0.9,0.4c0.3,0,0.6-0.1,0.9-0.2
				c0.2-0.2,0.5-0.3,0.7-0.6l0.4,0.6c-0.5,0.4-1,0.7-1.4,1c-0.5,0.2-1.1,0.4-1.8,0.4c-1.3,0-2.1-0.3-2.5-1s-0.6-1.4-0.6-2.2
				c-0.8,1.3-1.7,2.2-2.6,2.6C53,43.6,52,43.8,51,43.8z M52.6,42.3c0.7,0,1.4-0.2,2.2-0.6s1.4-1.1,2-2.2v-7.1c-0.4,0.6-1,1-1.7,1.3
				c-0.8,0.3-1.5,0.6-2.4,1c-0.8,0.4-1.5,0.9-2.1,1.5c-0.6,0.6-0.9,1.6-0.9,2.7s0.2,1.9,0.8,2.5C51.1,42.1,51.7,42.3,52.6,42.3z"/>
			<path d="M76.5,24.3c1,0,1.7,0.2,2.3,0.4c0.6,0.2,1.1,0.6,1.5,1c0.5,0.5,0.8,1.1,1,1.8c0.2,0.7,0.3,1.7,0.3,3v9.7
				c0,1,0.2,1.7,0.6,2.1s1.1,0.6,2.2,0.6v0.8c-0.4,0-1-0.1-1.9-0.1s-1.7-0.1-2.5-0.1s-1.6,0-2.3,0.1c-0.8,0-1.4,0.1-1.8,0.1v-0.8
				c0.9,0,1.5-0.2,1.8-0.6c0.4-0.4,0.6-1,0.6-2.1V29.6c0-0.7-0.1-1.4-0.2-2.1c-0.2-0.6-0.4-1.1-0.8-1.5c-0.4-0.4-1-0.6-1.9-0.6
				c-1.5,0-2.8,0.6-3.7,1.9c-1,1.3-1.4,2.9-1.4,4.7v8.1c0,1,0.2,1.7,0.6,2.1s1,0.6,1.8,0.6v0.8c-0.4,0-1-0.1-1.8-0.1
				s-1.5-0.1-2.3-0.1s-1.6,0-2.5,0.1c-0.9,0-1.5,0.1-1.9,0.1v-0.8c1,0,1.7-0.2,2.2-0.6c0.4-0.4,0.6-1,0.6-2.1V28.7
				c0-1.1-0.2-1.9-0.6-2.4c-0.4-0.6-1.1-0.8-2.2-0.8v-0.8c0.8,0.1,1.5,0.1,2.2,0.1s1.4-0.1,2-0.2s1.2-0.2,1.8-0.4v4.3
				c0.6-1.7,1.5-2.8,2.6-3.4C74,24.6,75.2,24.3,76.5,24.3z"/>
			<path d="M92.3,50.4c-1.3,0-2.5-0.2-3.7-0.4c-1.1-0.2-2.1-0.7-2.7-1.3c-0.7-0.6-1-1.3-1-2.2c0-0.9,0.3-1.6,1-2.2
				c0.6-0.6,1.6-1,2.8-1.4l0.2,0.6c-0.6,0.2-1,0.5-1.4,1s-0.5,1.1-0.5,1.7c0,1.1,0.5,2,1.5,2.6c1,0.6,2.4,0.9,4,0.9
				c1.1,0,2.2-0.2,3.2-0.4c1-0.3,1.9-0.7,2.6-1.4c0.6-0.6,1-1.5,1-2.6c0-0.8-0.3-1.4-0.9-2c-0.6-0.6-1.7-0.8-3.4-0.8h-2.7
				c-0.8,0-1.5-0.1-2.2-0.2c-0.7-0.2-1.4-0.4-1.8-0.8c-0.5-0.4-0.7-1-0.7-1.8s0.3-1.6,1-2.4c0.6-0.8,1.9-1.5,3.8-2.3l0.4,0.3
				c-0.8,0.4-1.5,0.9-2.2,1.4c-0.6,0.5-0.9,1-0.9,1.6c0,0.8,0.6,1.2,1.8,1.2h4.6c1.5,0,2.8,0.3,4,1c1.1,0.6,1.8,1.8,1.8,3.3
				c0,1.1-0.4,2.2-1.1,3.2s-1.8,1.8-3.3,2.4C96.2,50.1,94.4,50.4,92.3,50.4z M92.4,35.8c-1.8,0-3.3-0.5-4.6-1.4
				C86.7,33.5,86,32,86,30s0.6-3.5,1.8-4.4c1.2-0.9,2.7-1.4,4.6-1.4c1.8,0,3.3,0.5,4.6,1.4c1.2,0.9,1.8,2.4,1.8,4.4
				s-0.6,3.4-1.8,4.4C95.7,35.3,94.3,35.8,92.4,35.8z M92.4,35.1c1,0,1.7-0.4,2.2-1.1c0.6-0.7,0.8-2.1,0.8-4s-0.2-3.3-0.8-4
				c-0.6-0.7-1.3-1.1-2.2-1.1c-0.9,0-1.6,0.4-2.2,1.1c-0.6,0.7-0.8,2.1-0.8,4s0.2,3.3,0.8,4C90.8,34.7,91.6,35.1,92.4,35.1z
				 M97.7,27.3l-0.6-0.2c0.3-0.8,1-1.5,1.8-2.2s1.7-1,2.6-1c0.6,0,1.1,0.2,1.5,0.6c0.4,0.3,0.6,0.9,0.6,1.6c0,0.7-0.2,1.3-0.6,1.6
				c-0.4,0.3-0.8,0.5-1.2,0.5s-0.7-0.2-1-0.4c-0.3-0.2-0.5-0.6-0.6-1.2s0.2-1.3,0.5-2.2l0.5,0.1c-1,0.4-1.8,0.8-2.2,1.2
				C98.4,26.1,98,26.7,97.7,27.3z"/>
			<path d="M110.8,24.4v15.7c0,1,0.2,1.7,0.6,2.1s1.1,0.6,2.2,0.6v0.8c-0.4,0-1-0.1-1.8-0.1s-1.7-0.1-2.6-0.1c-0.8,0-1.7,0-2.5,0.1
				c-0.9,0-1.5,0.1-1.9,0.1v-0.8c1,0,1.7-0.2,2.2-0.6c0.4-0.4,0.6-1,0.6-2.1V28.7c0-1.1-0.2-1.9-0.6-2.4c-0.4-0.6-1.1-0.8-2.2-0.8
				v-0.8c0.8,0.1,1.5,0.1,2.2,0.1c0.7,0,1.4-0.1,2-0.2C109.7,24.7,110.3,24.6,110.8,24.4z M108.9,15.7c0.6,0,1.2,0.2,1.6,0.7
				c0.4,0.5,0.7,1,0.7,1.7c0,0.6-0.2,1.2-0.7,1.6c-0.5,0.5-1,0.7-1.6,0.7c-0.6,0-1.2-0.2-1.6-0.7c-0.5-0.5-0.7-1-0.7-1.6
				s0.2-1.2,0.7-1.7C107.8,16,108.3,15.7,108.9,15.7z"/>
			<path d="M120.6,15v26.6c-0.3,0.2-0.6,0.6-1,0.8c-0.3,0.2-0.6,0.6-1,0.8c-0.3,0.2-0.6,0.6-1,0.8l-0.6-0.2c0.1-0.3,0.2-0.7,0.2-1
				c0-0.3,0.1-0.7,0.1-1V19.3c0-1.1-0.2-1.9-0.6-2.4c-0.4-0.6-1.1-0.8-2.2-0.8v-0.8c0.8,0.1,1.5,0.1,2.2,0.1c0.7,0,1.4-0.1,2-0.2
				C119.4,15.3,120.1,15.2,120.6,15z M126.2,24.3c2,0,3.7,0.8,5,2.5s2,4.2,2,7.4c0,2.2-0.4,4-1.1,5.5c-0.7,1.4-1.8,2.6-3,3.3
				c-1.2,0.7-2.6,1.1-4.1,1.1c-1.2,0-2.4-0.3-3.5-1c-1.1-0.7-2-1.7-2.6-3.1l0.7,0.4c0.6,1,1.4,1.7,2.2,2.2c0.9,0.5,1.8,0.7,2.8,0.7
				c1.6,0,2.9-0.7,3.7-2.2c0.8-1.4,1.2-3.8,1.2-6.8c0-2-0.2-3.6-0.5-5c-0.3-1.3-0.8-2.3-1.4-3c-0.6-0.6-1.5-1-2.5-1
				c-1.1,0-2.2,0.5-3.1,1.5s-1.5,2.5-1.8,4.4l-0.4-0.5c0.2-2.1,1-3.7,2.2-4.8C123.2,24.8,124.6,24.3,126.2,24.3z"/>
			<path d="M141.3,15v25.2c0,1,0.2,1.7,0.6,2.1c0.4,0.4,1.1,0.6,2.2,0.6v0.8c-0.4,0-1-0.1-1.8-0.1s-1.7-0.1-2.6-0.1
				c-0.8,0-1.7,0-2.5,0.1c-0.9,0-1.5,0.1-1.9,0.1v-0.8c1,0,1.7-0.2,2.2-0.6c0.4-0.4,0.6-1,0.6-2.1V19.4c0-1.1-0.2-1.9-0.6-2.4
				c-0.4-0.6-1.1-0.8-2.2-0.8v-0.8c0.8,0.1,1.5,0.1,2.2,0.1c0.7,0,1.4-0.1,2-0.2C140.2,15.3,140.9,15.2,141.3,15z"/>
			<path d="M154.4,24.3c2.2,0,3.8,0.6,5,1.9c1.2,1.3,1.8,3.4,1.8,6.1h-12.9v-0.7h9.4c0.1-1.2-0.1-2.3-0.3-3.3
				c-0.2-1-0.6-1.8-1.1-2.4c-0.6-0.6-1.2-0.9-2-0.9c-1.1,0-2.1,0.6-3,1.7c-0.9,1.1-1.4,2.9-1.5,5.4l0.1,0.2
				c-0.1,0.4-0.1,0.8-0.1,1.2c0,0.4,0,0.9,0,1.3c0,1.7,0.2,3,0.8,4.2c0.6,1.2,1.2,2.1,2.1,2.7s1.8,1,2.6,1c1.1,0,2.1-0.2,3-0.8
				c1-0.6,1.7-1.5,2.3-2.9l0.7,0.3c-0.2,0.8-0.7,1.6-1.3,2.3c-0.6,0.7-1.4,1.4-2.3,1.8c-1,0.5-2,0.7-3.2,0.7c-1.8,0-3.3-0.4-4.5-1.2
				c-1.3-0.8-2.2-1.9-2.9-3.4c-0.6-1.4-1-3-1-4.9c0-2.2,0.3-4,1-5.5c0.6-1.5,1.7-2.7,2.9-3.6C151.4,24.7,152.8,24.3,154.4,24.3z"/>
		</g>
		<g>
			<path d="M36.4,48.2c1.6,0,2.9,0.2,3.8,0.7c1,0.5,1.9,1,2.7,1.7c0.3,0.2,0.6,0.4,0.7,0.4c0.5,0,0.8-0.7,0.9-2.2h0.8
				c-0.1,0.9-0.1,2-0.1,3.3c0,1.3,0,3,0,5.1h-0.8c-0.2-1-0.4-2-0.6-3c-0.2-1-0.6-1.8-1.2-2.5c-0.7-0.9-1.6-1.6-2.8-2.1
				c-1.1-0.5-2.3-0.7-3.5-0.7S34,49.2,33,49.8c-1,0.6-1.8,1.4-2.6,2.6c-0.7,1.1-1.3,2.5-1.6,4c-0.4,1.6-0.6,3.4-0.6,5.3
				c0,4.4,0.7,7.6,2.1,9.6c1.4,2,3.6,3,6.6,3c0.9,0,1.6-0.2,2.2-0.4c0.6-0.2,1.1-0.5,1.5-0.7c0.5-0.3,0.7-0.6,0.9-0.9
				c0.2-0.2,0.2-0.6,0.2-1.1v-3.5c0-1-0.1-1.8-0.3-2.2c-0.2-0.5-0.6-0.8-1-1c-0.6-0.2-1.3-0.2-2.3-0.3v-0.7c0.4,0,1,0.1,1.5,0.1
				s1.2,0,1.8,0c0.6,0,1.2,0,1.8,0c0.8,0,1.5,0,2.2,0s1.2-0.1,1.6-0.1v0.7c-0.8,0.1-1.3,0.2-1.5,0.6c-0.2,0.3-0.3,1.2-0.3,2.6v7.2
				h-0.7c0-0.4-0.1-0.9-0.2-1.4c-0.2-0.5-0.4-0.7-0.7-0.7c-0.2,0-0.3,0-0.4,0.1c-0.2,0.1-0.4,0.2-0.8,0.5c-0.8,0.6-1.7,1.1-2.6,1.4
				c-0.9,0.3-1.9,0.6-3.1,0.6c-3.8,0-6.7-1.1-8.8-3.4c-2.1-2.3-3.1-5.4-3.1-9.5c0-2.9,0.5-5.3,1.5-7.4c1-2,2.5-3.6,4.2-4.7
				C32.1,48.7,34.1,48.2,36.4,48.2z"/>
			<path d="M54,74.7c-1.6,0-2.7-0.4-3.4-1.2c-0.7-0.8-1-1.8-1-3.1c0-1,0.2-1.8,0.7-2.6c0.5-0.6,1.1-1.2,1.9-1.7
				c0.8-0.4,1.6-0.8,2.5-1.1c0.9-0.3,1.7-0.6,2.5-0.9c0.8-0.3,1.4-0.6,1.9-1c0.5-0.4,0.7-0.8,0.7-1.4v-2.2c0-1-0.2-1.8-0.5-2.3
				c-0.3-0.6-0.7-0.9-1.2-1S57,56,56.4,56c-0.6,0-1.3,0.1-1.9,0.2c-0.7,0.2-1.3,0.6-1.7,1c0.5,0.1,0.9,0.3,1.2,0.7s0.5,0.9,0.5,1.5
				c0,0.6-0.2,1.1-0.6,1.4c-0.4,0.2-1,0.4-1.5,0.4c-0.7,0-1.2-0.2-1.5-0.6c-0.4-0.5-0.6-1-0.6-1.5c0-0.6,0.2-1.1,0.5-1.5
				s0.7-0.7,1.2-1.1c0.6-0.4,1.3-0.7,2.2-1c0.9-0.2,1.9-0.4,3-0.4c1,0,1.8,0.1,2.6,0.3c0.7,0.2,1.3,0.6,1.8,1c0.6,0.6,1,1.3,1.2,2.2
				c0.2,0.9,0.3,1.8,0.3,3v10.1c0,0.6,0.1,1,0.2,1.3c0.2,0.2,0.5,0.4,0.9,0.4c0.3,0,0.6-0.1,0.9-0.2c0.2-0.2,0.5-0.3,0.7-0.6
				l0.4,0.6c-0.5,0.4-1,0.7-1.4,1c-0.5,0.2-1.1,0.4-1.8,0.4c-1.3,0-2.1-0.3-2.5-1c-0.4-0.6-0.6-1.4-0.6-2.2
				c-0.8,1.3-1.7,2.2-2.6,2.6C56.1,74.4,55.1,74.7,54,74.7z M55.6,73.2c0.7,0,1.4-0.2,2.2-0.6c0.7-0.4,1.4-1.1,2-2.2v-7.1
				c-0.4,0.6-1,1-1.7,1.3c-0.8,0.3-1.5,0.6-2.4,1c-0.8,0.4-1.5,0.9-2.1,1.5c-0.6,0.6-0.9,1.6-0.9,2.7s0.3,1.9,0.8,2.5
				C54.1,72.9,54.8,73.2,55.6,73.2z"/>
			<path d="M79.3,55.2c0.9,0,1.6,0.2,2.2,0.4c0.6,0.2,1.1,0.6,1.6,1c0.5,0.5,0.8,1.1,1,1.9c0.2,0.8,0.2,1.8,0.2,2.9v9.7
				c0,1,0.2,1.7,0.6,2.1s1.1,0.6,2.2,0.6v0.8c-0.4,0-1-0.1-1.9-0.1c-0.9,0-1.7-0.1-2.5-0.1s-1.6,0-2.3,0.1c-0.8,0-1.4,0.1-1.8,0.1
				v-0.8c0.9,0,1.5-0.2,1.8-0.6c0.4-0.4,0.6-1,0.6-2.1V60.5c0-0.7-0.1-1.4-0.2-2.1c-0.1-0.6-0.3-1.1-0.7-1.5s-1-0.6-1.9-0.6
				c-1,0-1.8,0.3-2.6,0.9c-0.7,0.6-1.4,1.4-1.8,2.4c-0.4,1-0.6,2.2-0.6,3.4v8.1c0,1,0.2,1.7,0.6,2.1s1,0.6,1.8,0.6v0.8
				c-0.4,0-1-0.1-1.8-0.1s-1.5-0.1-2.3-0.1s-1.6,0-2.5,0.1c-0.9,0-1.5,0.1-1.9,0.1v-0.8c1,0,1.7-0.2,2.2-0.6c0.4-0.4,0.6-1,0.6-2.1
				V59.7c0-1.1-0.2-1.9-0.6-2.4c-0.4-0.6-1.1-0.8-2.2-0.8v-0.8c0.8,0.1,1.5,0.1,2.2,0.1s1.4-0.1,2-0.2c0.6-0.1,1.2-0.2,1.8-0.4v4.3
				c0.6-1.6,1.5-2.7,2.6-3.4C77,55.5,78.1,55.2,79.3,55.2z M90.3,55.2c0.9,0,1.6,0.2,2.2,0.4c0.6,0.2,1.1,0.6,1.6,1s0.8,1.1,1,1.9
				c0.2,0.8,0.2,1.8,0.2,2.9v9.7c0,1,0.2,1.7,0.6,2.1s1.1,0.6,2.2,0.6v0.8c-0.4,0-1-0.1-1.9-0.1c-0.9,0-1.7-0.1-2.5-0.1
				s-1.6,0-2.3,0.1c-0.8,0-1.4,0.1-1.8,0.1v-0.8c0.9,0,1.5-0.2,1.8-0.6c0.4-0.4,0.6-1,0.6-2.1V60.5c0-0.7-0.1-1.4-0.2-2.1
				c-0.1-0.6-0.3-1.1-0.7-1.5s-1-0.6-1.9-0.6c-1.4,0-2.6,0.6-3.5,1.9c-1,1.3-1.4,2.8-1.4,4.7l-0.1-3.4c0.6-1.7,1.5-2.8,2.6-3.4
				C88,55.4,89.1,55.2,90.3,55.2z"/>
			<path d="M108.4,55.2c2.2,0,3.8,0.6,5,1.9c1.2,1.3,1.8,3.4,1.8,6.1h-12.9v-0.7h9.4c0.1-1.2-0.1-2.3-0.3-3.3
				c-0.2-1-0.6-1.8-1.1-2.4c-0.6-0.6-1.2-0.9-2-0.9c-1.1,0-2.1,0.6-3,1.7c-0.9,1.1-1.4,2.9-1.5,5.4l0.1,0.2
				c-0.1,0.4-0.1,0.8-0.1,1.2c0,0.4,0,0.9,0,1.3c0,1.7,0.2,3,0.8,4.2c0.6,1.2,1.2,2.1,2.1,2.7c0.9,0.6,1.8,1,2.6,1
				c1.1,0,2.1-0.2,3-0.8c1-0.6,1.7-1.5,2.3-2.9l0.7,0.3c-0.2,0.8-0.7,1.6-1.3,2.3c-0.6,0.7-1.4,1.4-2.3,1.8c-1,0.5-2,0.7-3.2,0.7
				c-1.8,0-3.3-0.4-4.5-1.2c-1.3-0.8-2.2-1.9-2.9-3.4c-0.6-1.4-1-3-1-4.9c0-2.2,0.3-4,1-5.5c0.6-1.5,1.7-2.7,2.9-3.6
				C105.4,55.6,106.8,55.2,108.4,55.2z"/>
			<path d="M124.6,55.2c1,0,1.8,0.2,2.5,0.5c0.6,0.3,1.2,0.6,1.5,0.9c0.8,0.6,1.3,0.2,1.4-1.3h0.8c-0.1,0.7-0.1,1.5-0.1,2.4
				c0,1,0,2.2,0,3.8h-0.8c-0.2-0.9-0.4-1.8-0.7-2.6s-0.9-1.5-1.5-2.1c-0.7-0.6-1.6-0.8-2.6-0.8c-0.9,0-1.6,0.2-2.2,0.7
				c-0.6,0.5-0.9,1.2-0.9,2.1c0,0.7,0.2,1.4,0.6,1.8c0.4,0.6,1,1,1.7,1.4c0.7,0.5,1.4,1,2.3,1.4c1.4,0.9,2.6,1.8,3.5,2.7
				c1,1,1.4,2.2,1.4,3.7c0,1.1-0.3,2.1-0.9,2.8c-0.6,0.7-1.4,1.4-2.2,1.7c-1,0.4-2,0.6-3.1,0.6c-0.6,0-1-0.1-1.5-0.2
				c-0.5-0.1-1-0.2-1.4-0.4c-0.2-0.2-0.5-0.2-0.7-0.4s-0.5-0.3-0.7-0.6c-0.2-0.2-0.5-0.2-0.6,0c-0.2,0.2-0.3,0.6-0.4,1.2h-0.8
				c0.1-0.8,0.1-1.8,0.1-2.9s0-2.6,0-4.5h0.8c0.2,1.4,0.4,2.6,0.7,3.6c0.3,1,0.8,1.8,1.5,2.4c0.6,0.6,1.6,0.9,2.9,0.9
				c0.7,0,1.4-0.2,2.2-0.8c0.7-0.5,1-1.4,1-2.7c0-1-0.4-1.9-1.2-2.6c-0.8-0.6-1.8-1.4-3-2.2c-0.9-0.6-1.7-1.1-2.5-1.7
				c-0.8-0.6-1.4-1.2-1.8-1.9c-0.5-0.7-0.7-1.5-0.7-2.6c0-1.1,0.2-2,0.7-2.6c0.5-0.7,1.2-1.2,2-1.5
				C122.7,55.3,123.6,55.2,124.6,55.2z"/>
		</g>
	</g>
	<g>
		<path d="M6,59.4v12.1c0,1,0.2,1.5,0.6,1.8c0.4,0.3,1.1,0.5,2.2,0.5v0.6c-0.4,0-1-0.1-1.7-0.1s-1.5-0.1-2.3-0.1
			c-0.9,0-1.8,0-2.6,0.1c-0.8,0-1.4,0.1-1.9,0.1v-0.6c1,0,1.7-0.2,2.2-0.5c0.6-0.3,0.8-1,0.8-1.9v-7c0-1-0.1-1.6-0.3-2.1
			c-0.2-0.5-0.6-0.7-1-0.9c-0.5-0.2-1.2-0.2-2-0.2v-0.6c1.4,0,2.6-0.2,3.4-0.4C4.5,60.3,5.3,59.9,6,59.4z"/>
		<path d="M13,71.2c0.5,0,1,0.2,1.3,0.6c0.4,0.4,0.6,0.8,0.6,1.3s-0.2,1-0.6,1.3c-0.4,0.3-0.8,0.6-1.3,0.6c-0.5,0-1-0.2-1.3-0.6
			c-0.4-0.4-0.6-0.8-0.6-1.3s0.2-1,0.6-1.3C12.1,71.4,12.5,71.2,13,71.2z"/>
	</g>
</g>
</svg>
