<?xml version="1.0" encoding="utf-8"?>
<!-- Generator: Adobe Illustrator 25.0.1, SVG Export Plug-In . SVG Version: 6.00 Build 0)  -->
<svg version="1.1" id="Layer_1" xmlns="http://www.w3.org/2000/svg" xmlns:xlink="http://www.w3.org/1999/xlink" x="0px" y="0px"
	 viewBox="0 0 238.7 75" style="enable-background:new 0 0 238.7 75;" xml:space="preserve">
<g>
	<g>
		<path d="M42.3,3.4v0.9c-1.1,0-1.8,0.2-2.3,0.3c-0.6,0.1-0.9,0.6-1,1.1c-0.2,0.4-0.3,1.3-0.3,2.4v22.8c0,1.1,0.2,2,0.3,2.4
			c0.2,0.6,0.6,0.9,1.1,1.1c0.5,0.2,1.4,0.3,2.3,0.3h3.4c2,0,3.4-0.3,4.4-0.8c1.1-0.6,1.7-1.4,2.1-2.8c0.5-1.2,0.8-2.9,0.9-5h1.1
			c-0.2,0.9-0.2,2.1-0.2,3.8c0,0.6,0,1.4,0,2.4c0,1.1,0.2,2.1,0.3,3.4c-1.5,0-3.4-0.2-5.4-0.2s-3.7,0-5.2,0c-0.9,0-2.1,0-3.7,0
			c-1.6,0-3.1,0-4.9,0c-1.7,0-3.4,0-4.9,0.2v-0.9c1.1,0,1.8-0.2,2.3-0.3c0.5-0.2,0.9-0.6,1.1-1.1C33.9,32.8,34,32,34,31V8.3
			c0-1.1-0.2-2-0.3-2.4c-0.1-0.7-0.5-1-1-1.2c-0.6-0.1-1.4-0.3-2.3-0.3V3.5c0.6,0,1.5,0,2.6,0.2c1.1,0,2.1,0,3.4,0
			c1.1,0,2.1,0,3.2,0C40.8,3.4,41.6,3.4,42.3,3.4z"/>
		<path d="M64.5,11.6v19.9c0,1.2,0.3,2.1,0.8,2.6s1.4,0.8,2.8,0.8v0.9c-0.5,0-1.4,0-2.3-0.2c-1.1,0-2.1,0-3.2,0s-2.1,0-3.2,0
			c-1.1,0-1.8,0.2-2.4,0.2v-0.9c1.2,0,2.1-0.3,2.8-0.8c0.5-0.5,0.8-1.4,0.8-2.6V17.1c0-1.4-0.3-2.4-0.8-3.1
			c-0.5-0.6-1.4-0.9-2.8-0.9v-0.9c0.9,0.2,2,0.2,2.9,0.2s1.7,0,2.6-0.2C63.1,12.1,63.9,11.9,64.5,11.6z M62.2,0.8
			c0.8,0,1.5,0.3,2,0.9c0.5,0.6,0.9,1.2,0.9,2.1s-0.3,1.5-0.9,2c-0.6,0.6-1.2,0.9-2,0.9s-1.5-0.3-2.1-0.9s-0.9-1.2-0.9-2
			s0.3-1.5,0.9-2.1S61.5,0.8,62.2,0.8z"/>
		<path d="M81.8,0c0.9,0,1.7,0.2,2.3,0.3c0.6,0.2,1.2,0.5,1.7,0.9c0.5,0.3,0.8,0.8,1.1,1.2c0.3,0.4,0.3,1.1,0.3,1.5
			c0,0.8-0.3,1.2-0.8,1.7s-1.1,0.6-1.7,0.6S83.5,6,82.9,5.6c-0.6-0.5-0.8-1.1-0.8-1.8c0-0.6,0.2-1.2,0.5-1.5
			c0.3-0.5,0.8-0.6,1.4-0.8c-0.2-0.3-0.3-0.5-0.8-0.8c-0.5-0.2-0.9-0.3-1.5-0.3c-0.8,0-1.4,0.2-1.8,0.5c-0.5,0.3-0.9,0.8-1.2,1.2
			c-0.3,0.6-0.6,1.5-0.6,2.9c-0.2,1.2-0.2,3.2-0.2,5.8V12h5v1H78v17.9c0,1.5,0.5,2.4,1.4,3.1c0.9,0.6,2,0.8,3.5,0.8v0.9
			c-0.8,0-1.7,0-3.1-0.2s-2.6,0-4.1,0c-1.1,0-2.1,0-3.1,0s-1.8,0.2-2.3,0.2v-0.9c1.2,0,2.1-0.3,2.8-0.8c0.5-0.5,0.8-1.4,0.8-2.6V13
			h-3.7v-0.9h3.5c0-2.8,0.2-4.7,0.5-6.3c0.3-1.4,1-2.8,1.8-3.7c0.6-0.8,1.4-1.2,2.3-1.7C79.2-0.1,80.6,0,81.8,0z"/>
		<path d="M96,11.6c2.8,0,4.7,0.8,6.3,2.4s2.3,4.1,2.3,7.6H88.4v-0.9h11.8c0-1.5,0-2.9-0.3-4.1s-0.8-2.3-1.4-3.1s-1.5-1.2-2.6-1.2
			c-1.4,0-2.6,0.8-3.7,2.1c-1.1,1.4-1.7,3.7-2,6.7l0.2,0.2c0,0.5-0.2,0.9-0.2,1.5s0,1.1,0,1.7c0,2.1,0.3,3.8,1.1,5.4
			c0.6,1.5,1.5,2.6,2.6,3.4s2.1,1.2,3.4,1.2c1.4,0,2.6-0.3,3.8-1.1c1.2-0.6,2.1-1.8,2.9-3.5l0.9,0.3c-0.3,1.1-0.9,2-1.7,2.9
			c-0.8,0.9-1.7,1.7-2.9,2.3c-1.2,0.6-2.4,0.9-4,0.9c-2.1,0-4.1-0.5-5.7-1.5s-2.8-2.4-3.7-4.1c-0.9-1.8-1.2-3.8-1.2-6.1
			c0-2.8,0.5-5,1.2-6.9c0.9-2,2-3.5,3.7-4.4C92,12.1,93.9,11.6,96,11.6z"/>
		<path d="M132.3,3.7c1.2,0,2.1,0.2,2.9,0.5c0.8,0.3,1.4,0.6,1.8,0.9c0.6,0.5,1.1,1.1,1.4,1.5c0.3,0.6,0.5,1.1,0.5,1.5
			c0,0.8-0.3,1.4-0.8,1.8c-0.5,0.5-1.1,0.6-1.8,0.6c-0.6,0-1.2-0.2-1.7-0.6c-0.5-0.5-0.8-0.9-0.8-1.7c0-0.6,0.3-1.2,0.8-1.7
			s1.1-0.8,1.7-0.8c-0.2-0.5-0.5-0.8-1.1-1.1c-0.6-0.3-1.4-0.5-2.3-0.5c-1.5,0-2.9,0.5-3.8,1.4c-0.9,0.9-1.5,2.3-1.5,4.1
			c0,0.9,0.2,1.7,0.5,2.6c0.3,0.9,0.9,1.8,1.8,2.6c0.5-0.2,1.1-0.2,1.5-0.2c0.6,0,0.9,0,1.2,0c1.2,0,1.8,0.3,1.8,1.1
			c0,0.3-0.2,0.5-0.3,0.6c-0.3,0.2-0.6,0.2-0.9,0.2c-0.6,0-1.2-0.2-1.8-0.5c-0.6-0.3-1.2-0.5-1.5-0.6c-1.8,0.5-3.2,1.4-4.3,2.6
			c-1.1,1.2-1.7,2.9-1.7,5s0.6,3.8,1.7,5.4c1.1,1.5,2.6,2.6,4.4,3.4c1.8,0.8,4,1.2,6.3,1.2c1.7,0,3.2-0.2,4.6-0.6
			c1.4-0.5,2.8-0.9,3.8-1.7c1.1-0.8,2-1.7,2.6-2.6c0.6-1.1,0.9-2.1,0.9-3.5c0-0.6-0.2-1.4-0.3-2.3c-0.3-0.9-0.8-1.8-1.5-2.6
			c-0.8-0.9-2-1.5-3.5-2l0.6-0.5c2.3,0.6,3.8,1.7,4.7,3.2s1.4,3.2,1.4,5s-0.6,3.7-1.7,5.4c-1.1,1.7-2.8,3.1-4.7,4.1
			c-2.1,1.1-4.6,1.5-7.6,1.5c-2.6,0-5-0.5-7.3-1.4s-4.1-2.3-5.5-4s-2.1-3.7-2.1-6.1c0-1.7,0.3-3.1,0.9-4.3s1.4-2.1,2.4-2.9
			c0.9-0.8,1.8-1.4,2.9-1.8c0.9-0.5,1.7-0.8,2.3-0.9c-1.5-0.6-2.8-1.5-3.5-2.6c-0.8-1.1-1.2-2.1-1.2-3.4c0-0.8,0.2-1.4,0.5-2.1
			c0.3-0.6,0.8-1.4,1.5-1.8c0.6-0.6,1.4-0.9,2.4-1.2C129.8,3.8,131.1,3.7,132.3,3.7z M149,2.8c1.8,0,3.5,0.6,4.7,1.7s2,2.6,2,4.6
			c0,1.5-0.5,2.9-1.2,4c-0.9,1.1-1.8,1.8-3.1,2.4c-0.8,0.3-1.7,0.8-2.8,1.1c-1.2,0.5-2.4,0.8-3.7,1.2c-1.4,0.5-2.6,0.8-3.7,1.2
			c-1.2,0.5-2.1,0.8-2.9,0.9c-1.1,0.5-2.1,0.9-2.9,1.5s-1.2,1.4-1.2,2.4c0,0.8,0.3,1.5,0.8,2c0.5,0.6,1.1,0.9,1.7,1.2
			c0.6,0.3,1.2,0.5,1.8,0.5c0.5,0,0.9-0.2,1.7-0.3c0.6-0.2,1.1-0.5,1.1-0.8c-0.5-0.2-0.9-0.3-1.4-0.6c-0.5-0.3-0.8-0.9-0.8-1.7
			s0.3-1.4,0.8-1.7c0.5-0.5,1.1-0.6,1.8-0.6c0.8,0,1.4,0.3,1.8,0.8c0.5,0.5,0.6,1.1,0.6,1.8c0,0.9-0.3,1.5-0.9,2.1
			c-0.6,0.6-1.2,1.1-2.1,1.4c-0.8,0.3-1.7,0.5-2.4,0.5c-0.9,0-1.7-0.2-2.6-0.6c-0.9-0.3-1.7-0.9-2.1-1.7c-0.6-0.8-0.9-1.8-0.9-3.1
			c0-1.5,0.5-2.9,1.5-4c1.1-1.1,2.6-2,4.7-2.8c0.9-0.3,2-0.6,3.4-1.1c1.4-0.3,2.6-0.8,4.1-1.2c1.4-0.5,2.6-0.9,3.8-1.4
			c1.5-0.8,2.6-1.4,3.1-2.1c0.6-0.8,0.8-1.5,0.8-2.3c0-1.4-0.5-2.4-1.5-3.4s-2.3-1.4-3.7-1.4c-0.3,0-0.6,0-0.9,0.2
			c-0.3,0-0.5,0.2-0.5,0.3c0.5,0.2,0.8,0.5,0.9,0.9c0.2,0.5,0.3,0.8,0.3,1.2c0,0.6-0.3,1.2-0.8,1.7s-1.1,0.6-1.8,0.6
			c-0.6,0-1.1-0.2-1.7-0.6c-0.6-0.5-0.8-0.9-0.8-1.7s0.3-1.4,0.8-1.8c0.5-0.5,1.2-0.8,2-0.9C147.4,2.8,148.3,2.8,149,2.8z"/>
	</g>
	<g>
		<path d="M42.3,42v0.9c-1.1,0-1.8,0.2-2.3,0.3c-0.6,0.2-0.9,0.6-1.1,1.1c-0.2,0.6-0.3,1.4-0.3,2.4v22.8c0,1.1,0.2,2,0.3,2.4
			c0.2,0.6,0.6,0.9,1.1,1.1s1.4,0.3,2.3,0.3h3.4c2,0,3.4-0.3,4.4-0.8c0.9-0.6,1.7-1.4,2.1-2.8c0.5-1.2,0.8-2.9,0.9-5h1.1
			C54,65.6,54,66.8,54,68.5c0,0.6,0,1.4,0,2.4s0.2,2.1,0.3,3.4c-1.5,0-3.4-0.2-5.4-0.2s-3.7,0-5.2,0c-0.9,0-2.1,0-3.7,0
			c-1.6,0-3.1,0-4.9,0c-1.7,0-3.4,0-4.9,0.2v-0.9c1.1,0,1.8-0.2,2.3-0.3c0.5-0.2,0.9-0.6,1.1-1.1c0.2-0.6,0.3-1.4,0.3-2.4V46.9
			c0-1.1-0.2-2-0.3-2.4c-0.2-0.5-0.6-0.9-1.1-1.1c-0.3-0.2-1.2-0.4-2.1-0.4v-0.9c0.6,0,1.5,0,2.6,0.2c1.1,0,2.1,0,3.4,0
			c1.1,0,2.1,0,3.2,0C40.6,42,41.6,42,42.3,42z"/>
		<path d="M64.5,50.2v19.9c0,1.2,0.3,2.1,0.8,2.6s1.4,0.8,2.8,0.8v0.9c-0.5,0-1.4,0-2.3-0.2c-1.1,0-2.1,0-3.2,0s-2.1,0-3.2,0
			c-1.1,0-1.8,0.2-2.4,0.2v-0.9c1.2,0,2.1-0.3,2.8-0.8c0.5-0.5,0.8-1.4,0.8-2.6V55.7c0-1.4-0.3-2.4-0.8-3.1
			c-0.5-0.6-1.4-0.9-2.8-0.9v-0.9c0.9,0.2,2,0.2,2.9,0.2s1.7,0,2.6-0.2C63.1,50.7,63.9,50.5,64.5,50.2z M62.2,39.4
			c0.8,0,1.5,0.3,2,0.9c0.5,0.6,0.9,1.2,0.9,2.1c0,0.9-0.3,1.5-0.9,2c-0.6,0.6-1.2,0.9-2,0.9s-1.5-0.3-2.1-0.9
			c-0.6-0.6-0.9-1.2-0.9-2s0.3-1.5,0.9-2.1C60.7,39.7,61.5,39.4,62.2,39.4z"/>
		<path d="M85.8,50.2c1.1,0,2,0.2,2.8,0.5s1.5,0.8,2,1.2c0.6,0.6,0.9,1.4,1.2,2.4c0.2,0.9,0.3,2.1,0.3,3.7v12.2
			c0,1.2,0.3,2.1,0.8,2.6c0.6,0.5,1.4,0.8,2.8,0.8v0.9c-0.5,0-1.4,0-2.4-0.2c-1.1-0.2-2.1,0-3.1,0s-2,0-2.9,0s-1.7,0.2-2.1,0.2v-0.9
			c1.1,0,1.8-0.3,2.3-0.8s0.8-1.4,0.8-2.6V56.9c0-0.9,0-1.8-0.2-2.6s-0.5-1.4-0.9-2c-0.5-0.5-1.2-0.8-2.4-0.8
			c-1.2,0-2.3,0.3-3.2,1.1s-1.7,1.7-2.1,3.1c-0.9,1.2-1.1,2.8-1.1,4.3v10.2c0,1.2,0.3,2.1,0.8,2.6s1.2,0.8,2.3,0.8v0.9
			c-0.5,0-1.2,0-2.1-0.2c-0.9,0-2,0-2.9,0s-2,0-3.1,0s-1.8,0.2-2.4,0.2v-0.9c1.2,0,2.1-0.3,2.8-0.8c0.5-0.5,0.8-1.4,0.8-2.6V55.9
			c0-1.4-0.3-2.4-0.8-3.1c-0.5-0.6-1.4-0.9-2.8-0.9V51c0.9,0.2,2,0.2,2.9,0.2s1.7,0,2.6-0.2c0.8-0.2,1.5-0.3,2.3-0.5v5.4
			c0.8-2,1.8-3.4,3.2-4.3C82.7,50.5,84.2,50.2,85.8,50.2z M99.5,50.2c1.1,0,2,0.2,2.8,0.5s1.4,0.8,2,1.2c0.6,0.6,0.9,1.4,1.2,2.4
			c0.2,0.9,0.3,2.1,0.3,3.7v12.2c0,1.2,0.3,2.1,0.8,2.6s1.4,0.8,2.8,0.8v0.9c-0.5,0-1.4,0-2.4-0.2c-1.1-0.2-2.1,0-3.1,0
			c-0.9,0-2,0-2.9,0s-1.7,0.2-2.1,0.2v-0.9c1.1,0,1.8-0.3,2.3-0.8s0.8-1.4,0.8-2.6V56.9c0-0.9,0-1.8-0.2-2.6s-0.5-1.4-0.9-2
			c-0.5-0.5-1.2-0.8-2.4-0.8c-1.8,0-3.2,0.8-4.4,2.4c-1.2,1.5-1.8,3.5-1.8,6l-0.2-4.3c0.8-2.1,2-3.5,3.4-4.3
			C96.5,50.5,98,50.2,99.5,50.2z"/>
		<path d="M122.5,50.2c2.8,0,4.7,0.8,6.3,2.4c1.5,1.7,2.3,4.1,2.3,7.6h-16.3v-0.9h11.8c0-1.5,0-2.9-0.3-4.1
			c-0.3-1.2-0.8-2.3-1.4-3.1c-0.6-0.7-1.5-1.1-2.6-1.1c-1.4,0-2.6,0.8-3.7,2.1c-1.1,1.4-1.7,3.7-2,6.7l0.2,0.2
			c0,0.5-0.2,0.9-0.2,1.5s0,1.1,0,1.7c0,2.1,0.3,3.8,1.1,5.4c0.6,1.5,1.5,2.6,2.6,3.4s2.1,1.2,3.4,1.2c1.4,0,2.6-0.3,3.8-1.1
			c1.2-0.6,2.1-1.8,2.9-3.5l0.9,0.3c-0.3,1.1-0.9,2-1.7,2.9s-1.7,1.7-2.9,2.3c-1.2,0.6-2.4,0.9-4,0.9c-2.1,0-4.1-0.5-5.7-1.5
			s-2.6-2.5-3.5-4.2c-0.9-1.8-1.2-3.8-1.2-6.1c0-2.8,0.5-5,1.2-6.9c0.9-2,2-3.5,3.7-4.4C118.5,50.7,120.2,50.2,122.5,50.2z"/>
		<path d="M148.6,50.2c0.8,0,1.5,0.2,2.1,0.5s1.1,0.8,1.5,1.4c0.3,0.6,0.5,1.1,0.5,1.8c0,0.8-0.3,1.4-0.8,2s-1.1,0.9-1.8,0.9
			c-0.6,0-1.2-0.2-1.7-0.6c-0.5-0.5-0.8-1.1-0.8-1.8c0-0.6,0.2-1.1,0.5-1.5s0.6-0.8,1.1-0.9c-0.2-0.3-0.5-0.5-0.9-0.5
			c-1.2,0-2.4,0.5-3.4,1.4c-0.9,0.9-1.7,2.1-2.3,3.5s-0.8,2.6-0.8,3.7v9.8c0,1.5,0.5,2.4,1.4,3.1c0.9,0.5,2,0.8,3.5,0.8v0.9
			c-0.8,0-1.7,0-2.9-0.2s-2.6,0-4.1,0c-1.1,0-2.1,0-3.1,0c-0.9,0-1.8,0.2-2.3,0.2v-0.9c1.2,0,2.1-0.3,2.8-0.8
			c0.5-0.5,0.8-1.4,0.8-2.6V55.9c0-1.4-0.3-2.4-0.8-3.1s-1.4-0.9-2.8-0.9V51c0.9,0.2,2,0.2,2.9,0.2s1.7,0,2.6-0.2
			c0.8-0.2,1.5-0.3,2.3-0.5v5.8c0.3-0.9,0.8-1.8,1.4-2.8c0.6-1,1.4-1.7,2.3-2.3C146.8,50.5,147.8,50.2,148.6,50.2z"/>
		<path d="M162.4,50.2v19.9c0,1.2,0.3,2.1,0.8,2.6s1.4,0.8,2.8,0.8v0.9c-0.5,0-1.4,0-2.3-0.2c-1.1,0-2.1,0-3.2,0s-2.1,0-3.2,0
			c-1.1,0-1.8,0.2-2.4,0.2v-0.9c1.2,0,2.1-0.3,2.8-0.8c0.6-0.5,0.8-1.4,0.8-2.6V55.7c0-1.4-0.3-2.4-0.8-3.1
			c-0.5-0.6-1.4-0.9-2.8-0.9v-0.9c0.9,0.2,2,0.2,2.9,0.2s1.7,0,2.6-0.2C161.3,50.7,162.1,50.5,162.4,50.2z M160.1,39.4
			c0.8,0,1.5,0.3,2.1,0.9c0.6,0.6,0.9,1.2,0.9,2.1c0,0.9-0.3,1.5-0.9,2c-0.6,0.6-1.2,0.9-2.1,0.9c-0.9,0-1.5-0.3-2-0.9
			c-0.6-0.6-0.9-1.2-0.9-2s0.3-1.5,0.9-2.1C158.6,39.7,159.3,39.4,160.1,39.4z"/>
		<path d="M179.9,50.2c0.9,0,2,0.2,2.9,0.3c0.9,0.3,1.7,0.6,2.4,1.1c0.8,0.5,1.2,0.9,1.5,1.5s0.6,1.2,0.6,2s-0.3,1.5-0.8,1.8
			c-0.5,0.5-1.1,0.6-1.7,0.6c-0.6,0-1.2-0.2-1.8-0.6c-0.5-0.5-0.8-0.9-0.8-1.7s0.2-1.2,0.6-1.7s0.8-0.8,1.4-0.8
			c-0.3-0.6-0.9-1.1-1.7-1.4s-1.7-0.6-2.4-0.6c-0.8,0-1.5,0.2-2.3,0.6c-0.8,0.3-1.5,0.9-2.1,1.8c-0.6,0.9-1.2,2-1.5,3.5
			c-0.5,1.5-0.6,3.2-0.6,5.5c0,2.8,0.3,4.9,0.9,6.4c0.6,1.5,1.4,2.8,2.4,3.4c0.9,0.8,2.1,1.1,3.2,1.1c1.2,0,2.4-0.3,3.7-1.1
			c1.2-0.8,2.3-2,3.1-3.7l0.9,0.3c-0.3,0.9-0.8,2-1.5,2.9c-0.8,1.1-1.7,1.8-2.8,2.4s-2.6,0.9-4.1,0.9c-1.8,0-3.7-0.5-5.2-1.5
			c-1.5-1.1-2.8-2.4-3.7-4.1c-0.9-1.8-1.4-4-1.4-6.4s0.5-4.7,1.4-6.6c0.9-1.8,2.1-3.4,3.8-4.4C175.9,50.7,177.8,50.2,179.9,50.2z"/>
		<path d="M197.9,38.4v31.7c0,1.2,0.2,2.1,0.6,2.6c0.5,0.5,1.2,0.8,2.3,0.8v0.9c-0.5,0-1.2,0-2.1-0.2c-0.9-0.2-2,0-2.9,0
			c-1.1,0-2.1,0-3.2,0s-1.8,0.2-2.4,0.2v-0.9c1.2,0,2.1-0.3,2.8-0.8c0.6-0.5,0.8-1.4,0.8-2.6V43.9c0-1.4-0.3-2.4-0.8-3.1
			c-0.5-0.6-1.4-0.9-2.8-0.9V39c0.9,0.2,2,0.2,2.9,0.2s1.7,0,2.6-0.2C196.6,38.7,197.3,38.6,197.9,38.4z M212.4,50.8v0.9
			c-0.8,0-1.5,0.3-2.1,0.6s-1.4,0.9-2,1.5l-6.4,6.7l0.6-1.2l8.6,11.6c0.5,0.8,1.1,1.2,1.5,1.7c0.5,0.5,1.1,0.6,1.7,0.8v0.9
			c-0.3,0-0.9,0-1.5-0.2s-1.4,0-2.1,0c-0.9,0-2,0-2.9,0s-1.7,0.2-2.1,0.2v-0.9c0.6,0,1.1-0.2,1.2-0.5c0.2-0.3,0.2-0.6-0.2-1.1
			l-5.4-7.6c-0.6-0.8-1.1-1.4-1.5-1.7c-0.5-0.3-1.2-0.3-2-0.5v-0.9c0.9-0.2,1.8-0.3,2.4-0.6c0.6-0.3,1.2-0.8,1.7-1.4l3.4-3.5
			c0.9-1.1,1.5-1.8,1.5-2.4c0-0.6-0.3-1.1-0.9-1.2c-0.6-0.3-1.4-0.5-2.4-0.5v-0.9c0.8,0,1.7,0,2.8,0.2c0.9,0,1.8,0,2.4,0
			c0.5,0,1.1,0,1.5,0c0.5,0,0.9,0,1.4,0C211.8,50.8,212.1,50.8,212.4,50.8z"/>
	</g>
</g>
<g>
	<path d="M7.1,55.5c1.7,0,3,0.4,3.9,1.2c1,0.8,1.5,1.9,1.5,3.4c0,1.2-0.3,2.3-1,3.4s-1.5,2-2.5,3c-1,0.9-2,1.8-3,2.7
		c-1,0.9-1.8,1.8-2.5,2.7h7.3c1,0,1.6-0.1,1.9-0.4c0.3-0.3,0.4-0.8,0.5-1.4h0.6c0,1.3,0,2.3,0,2.9c0,0.7,0.1,1.3,0.1,1.9
		c-0.3-0.1-1-0.1-2.1-0.1s-2.2,0-3.3,0H0.1v-0.6c0.7-0.8,1.6-1.6,2.6-2.5s2-1.9,2.9-3s1.7-2.2,2.4-3.5c0.6-1.3,1-2.6,1-4.1
		c0-1.4-0.3-2.4-1-3s-1.5-0.9-2.6-0.9c-1,0-1.8,0.3-2.7,0.8c-0.8,0.6-1.5,1.4-2.2,2.5L0,60c0.6-1.1,1.4-2.2,2.5-3.1
		C3.6,55.9,5.1,55.5,7.1,55.5z"/>
	<path d="M20.1,70.4c0.6,0,1.2,0.2,1.6,0.7c0.5,0.5,0.7,1,0.7,1.6s-0.2,1.2-0.7,1.6s-1,0.7-1.6,0.7s-1.2-0.2-1.6-0.7
		c-0.5-0.5-0.7-1-0.7-1.6s0.2-1.2,0.7-1.6C18.9,70.6,19.5,70.4,20.1,70.4z"/>
</g>
</svg>
