<?xml version="1.0" encoding="utf-8"?>
<!-- Generator: Adobe Illustrator 25.0.1, SVG Export Plug-In . SVG Version: 6.00 Build 0)  -->
<svg version="1.1" id="Layer_1" xmlns="http://www.w3.org/2000/svg" xmlns:xlink="http://www.w3.org/1999/xlink" x="0px" y="0px"
	 viewBox="0 0 238.7 75" style="enable-background:new 0 0 238.7 75;" xml:space="preserve">
<g>
	<g>
		<path d="M37.9,0c1.5,0,2.8,0.2,3.5,0.5c0.8,0.3,1.5,0.8,2.1,1.2c0.3,0.2,0.6,0.3,0.9,0.5s0.5,0.2,0.6,0.2c0.5,0,0.8-0.6,1.1-2h1.1
			c0,0.5,0,1.1-0.2,1.8c0,0.8,0,1.7-0.2,2.9c0,1.2,0,2.8,0,4.6h-1.1c-0.2-1.5-0.5-2.9-0.9-4.3C44.2,4,43.4,3,42.4,2
			c-1.1-0.9-2.4-1.2-4.1-1.2c-1.7,0-2.9,0.5-4,1.5c-1.1,0.9-1.5,2.3-1.5,3.8c0,1.4,0.3,2.6,1.1,3.5s1.7,1.8,2.8,2.4
			c1.2,0.8,2.4,1.5,3.8,2.4c1.5,0.9,3.1,2,4.3,2.9s2.1,2,2.9,3.2c0.8,1.2,1.1,2.6,1.1,4.3c0,2-0.5,3.5-1.4,4.9
			c-0.9,1.2-2,2.3-3.5,2.9c-1.5,0.6-3.1,0.9-4.9,0.9c-1.7,0-2.9-0.2-3.8-0.6c-0.9-0.3-1.8-0.8-2.4-1.2c-0.6-0.5-1.2-0.6-1.5-0.6
			c-0.5,0-0.8,0.6-1.1,2H29c0-0.6,0.2-1.4,0.2-2.3s0-2,0-3.4s0-3.2,0-5.4h1.1c0.2,1.8,0.5,3.5,1.1,5.2c0.6,1.5,1.4,2.9,2.6,3.8
			c1.2,0.9,2.8,1.4,4.7,1.4c1.5,0,2.9-0.5,4.1-1.4c1.2-0.9,1.8-2.4,1.8-4.6c0-1.8-0.6-3.4-2-4.6s-3.1-2.4-5.2-3.8
			c-1.4-0.9-2.8-1.8-4-2.8c-1.2-0.9-2.3-2-3.1-3.2c-0.8-1.2-1.1-2.6-1.1-4.4s0.5-3.4,1.2-4.4c0.8-1.2,1.8-2,3.2-2.6
			C35,0,36.3,0,37.9,0z"/>
		<path d="M67.2,8.6c1.1,0,2,0.2,2.8,0.5s1.5,0.8,2,1.2c0.6,0.6,0.9,1.4,1.2,2.4c0.2,0.9,0.3,2.1,0.3,3.7v12.2
			c0,1.2,0.3,2.1,0.8,2.6s1.4,0.8,2.8,0.8v0.9c-0.5,0-1.4,0-2.4-0.2c-1.1-0.2-2.1,0-3.1,0s-2,0-2.9,0s-1.7,0.2-2.1,0.2V32
			c1.1,0,1.8-0.3,2.3-0.8s0.8-1.4,0.8-2.6V15.3c0-0.9,0-1.8-0.2-2.6c-0.2-0.8-0.5-1.4-0.9-2c-0.5-0.5-1.2-0.8-2.4-0.8
			c-1.2,0-2.3,0.3-3.2,1.1s-1.7,1.7-2.1,3.1c-0.5,1.2-0.8,2.8-0.8,4.3v10.2c0,1.2,0.2,2.1,0.8,2.6c0.5,0.5,1.2,0.8,2.3,0.8v0.9
			c-0.5,0-1.2,0-2.1-0.2c-0.9-0.2-2,0-2.9,0s-2,0-3.1,0s-1.8,0.2-2.4,0.2V32c1.2,0,2.1-0.3,2.8-0.8c0.6-0.5,0.8-1.4,0.8-2.6V14.2
			c0-1.4-0.3-2.4-0.8-3.1c-0.5-0.5-1.4-0.9-2.8-0.9V9.3c0.9,0.2,2,0.2,2.9,0.2s1.7,0,2.6-0.2C59,9.1,59.7,9,60.5,8.8v5.4
			c0.8-2,1.8-3.4,3.2-4.3C65.1,9,65.9,8.6,67.2,8.6z M81.2,8.6c1.1,0,2,0.2,2.8,0.5s1.4,0.8,2,1.2c0.6,0.6,0.9,1.4,1.2,2.4
			c0.2,1.1,0.3,2.1,0.3,3.7v12.2c0,1.2,0.3,2.1,0.8,2.6s1.4,0.8,2.8,0.8v0.9c-0.5,0-1.4,0-2.4-0.2c-1.1,0-2.1,0-3.1,0
			c-1.1,0-2,0-2.9,0s-1.7,0.2-2.1,0.2V32c1.1,0,1.8-0.3,2.3-0.8s0.8-1.4,0.8-2.6V15.3c0-0.9,0-1.8-0.2-2.6c-0.2-0.8-0.5-1.4-0.9-2
			c-0.5-0.5-1.2-0.8-2.4-0.8c-1.8,0-3.2,0.8-4.4,2.4c-1.2,1.5-1.8,3.5-1.8,6L73.8,14c0.8-2.1,2-3.5,3.4-4.3S79.6,8.6,81.2,8.6z"/>
		<path d="M99.1,33.2c-2,0-3.4-0.5-4.3-1.5c-0.9-1.1-1.4-2.3-1.4-4c0-1.2,0.3-2.3,0.9-3.2c0.6-0.8,1.4-1.5,2.4-2.1
			c0.9-0.5,2-0.9,3.1-1.4s2.1-0.8,3.1-1.1c0.9-0.3,1.8-0.8,2.4-1.2s0.9-1.1,0.9-1.7v-2.9c0-1.2-0.2-2.3-0.6-2.9
			c-0.5-0.6-0.9-1.1-1.5-1.4c-0.6-0.2-1.4-0.3-2.1-0.3s-1.5,0.2-2.4,0.3c-0.9,0.2-1.5,0.6-2.1,1.4c0.6,0.2,1.1,0.5,1.5,0.9
			c0.5,0.5,0.6,1.1,0.6,1.8s-0.3,1.4-0.8,1.8c-0.5,0.4-0.9,0.8-1.7,0.8c-0.9,0-1.5-0.3-2-0.9s-0.6-1.2-0.6-1.8c0-0.8,0.2-1.4,0.6-2
			c0.5-0.5,0.9-0.9,1.5-1.4c0.8-0.5,1.7-0.9,2.8-1.2s2.4-0.5,3.8-0.5c1.2,0,2.3,0.2,3.2,0.5s1.7,0.8,2.1,1.2
			c0.8,0.8,1.4,1.7,1.5,2.8c0.3,1.1,0.3,2.3,0.3,3.8v12.7c0,0.8,0.2,1.2,0.3,1.7c0.2,0.3,0.6,0.5,1.1,0.5s0.8-0.2,1.1-0.3
			c0.3-0.2,0.6-0.5,0.9-0.8l0.5,0.8c-0.6,0.5-1.2,0.9-1.8,1.2c-0.6,0.3-1.4,0.5-2.3,0.5c-1.5,0-2.6-0.5-3.2-1.2
			c-0.6-0.8-0.6-1.7-0.6-2.8c-0.9,1.7-2.1,2.8-3.4,3.2C101.7,32.9,100.4,33.2,99.1,33.2z M101,31.4c0.9,0,1.8-0.3,2.8-0.8
			s1.7-1.4,2.4-2.8v-9c-0.5,0.6-1.2,1.2-2.1,1.5c-0.9,0.5-2,0.8-3.1,1.4c-1.1,0.5-1.8,1.1-2.6,2c-0.8,0.9-1.1,1.8-1.1,3.4
			c0,1.4,0.3,2.4,1.1,3.2C99.2,30.9,100,31.4,101,31.4z"/>
		<path d="M130.1,8.6c0.8,0,1.5,0.2,2.1,0.5s1.1,0.8,1.5,1.4c0.3,0.6,0.5,1.1,0.5,1.8s-0.3,1.4-0.8,2s-1.1,0.9-1.8,0.9
			c-0.6,0-1.2-0.2-1.7-0.6c-0.5-0.5-0.8-1.1-0.8-1.8c0-0.6,0.2-1.1,0.5-1.5c0.3-0.5,0.6-0.8,1.1-0.9c-0.2-0.3-0.6-0.5-0.9-0.5
			c-1.2,0-2.4,0.5-3.4,1.4c-0.9,0.9-1.7,2.1-2.3,3.5c-0.6,1.4-0.8,2.6-0.8,3.7v9.8c0,1.5,0.5,2.4,1.4,3.1c0.9,0.5,2,0.8,3.5,0.8v0.9
			c-0.8,0-1.7,0-2.9-0.2c-1.2-0.2-2.6,0-4.1,0c-1.1,0-2.1,0-3.1,0s-1.8,0.2-2.3,0.2V32c1.2,0,2.1-0.3,2.8-0.8
			c0.5-0.5,0.8-1.4,0.8-2.6V14.2c0-1.4-0.3-2.4-0.8-3.1c-0.5-0.6-1.4-0.9-2.8-0.9V9.3c0.9,0.2,2,0.2,2.9,0.2s1.7,0,2.6-0.2
			c0.8-0.2,1.5-0.3,2.3-0.5v5.8c0.3-0.9,0.8-1.8,1.4-2.8s1.4-1.7,2.3-2.3C128,9,129,8.6,130.1,8.6z"/>
		<path d="M143.6,1.5v7.6h6.7V10h-6.7v17.7c0,1.4,0.3,2.4,0.8,3.1c0.5,0.6,1.2,0.9,2.1,0.9c0.9,0,1.7-0.3,2.4-1.1
			c0.8-0.8,1.2-2,1.7-3.8l0.9,0.2c-0.3,1.8-0.9,3.2-1.8,4.4c-0.9,1.2-2.3,1.8-4.1,1.8c-1.1,0-1.8-0.2-2.6-0.5s-1.2-0.6-1.8-1.1
			c-0.6-0.8-1.1-1.5-1.4-2.4s-0.5-2.3-0.5-4v-15h-4.4V9.3h4.4v-7c0.8,0,1.5-0.2,2.1-0.2C142.3,1.8,143,1.7,143.6,1.5z"/>
	</g>
	<g>
		<path d="M65.4,42v0.9c-1.1,0-1.8,0.2-2.3,0.3c-0.6,0.2-0.9,0.6-1.1,1.1s-0.3,1.4-0.3,2.4v22.8c0,1.1,0.2,2,0.3,2.4
			c0.2,0.6,0.6,0.9,1.1,1.1s1.4,0.3,2.3,0.3v0.9c-0.8,0-1.5-0.2-2.6-0.2s-2.1,0-3.2,0c-1.2,0-2.3,0-3.4,0s-1.8,0-2.6,0.2v-0.9
			c1.1,0,1.8-0.2,2.3-0.3s0.9-0.6,1.1-1.1c0.2-0.6,0.3-1.4,0.3-2.4V44.3l0.2,0.2L46.2,74.6h-0.8L33.8,44.8V69c0,1.1,0.2,2,0.3,2.6
			c0.2,0.6,0.6,1.1,1.2,1.4c0.6,0.3,1.5,0.5,2.8,0.5v0.9c-0.6,0-1.2-0.2-2.1-0.2c-0.9,0-1.7,0-2.6,0c-0.8,0-1.5,0-2.3,0
			s-1.4,0-2,0.2v-0.9c1.1,0,1.8-0.2,2.3-0.5s0.9-0.8,1.1-1.4c0.2-0.6,0.3-1.5,0.3-2.6V47c0-1.1-0.2-2-0.3-2.4
			c-0.2-0.5-0.6-0.9-1.1-1.1c-0.6-0.2-1.4-0.3-2.3-0.3v-0.9c0.5,0,1.2,0,2,0.2c0.8,0,1.5,0,2.3,0c0.6,0,1.4,0,2.1,0
			c0.7,0,1.4,0,1.8-0.2l10.4,27.4L46.9,70l10.4-27.7c0.3,0,0.8,0,1.1,0s0.8,0,1.1,0c1.1,0,2.1,0,3.2,0C63.7,42,64.6,42,65.4,42z"/>
		<path d="M76.3,50.2v19.9c0,1.2,0.3,2.1,0.8,2.6s1.4,0.8,2.8,0.8v0.9c-0.5,0-1.4,0-2.3-0.2s-2.1,0-3.2,0s-2.1,0-3.2,0
			s-1.8,0.2-2.4,0.2v-0.9c1.2,0,2.1-0.3,2.8-0.8c0.7-0.5,0.8-1.4,0.8-2.6V55.7c0-1.4-0.3-2.4-0.8-3.1c-0.5-0.6-1.4-0.9-2.8-0.9v-0.9
			c0.9,0.2,2,0.2,2.9,0.2s1.7,0,2.6-0.2C74.7,50.8,75.5,50.7,76.3,50.2z M73.8,39.4c0.8,0,1.5,0.3,2.1,0.9c0.6,0.6,0.9,1.2,0.9,2.1
			c0,0.9-0.3,1.5-0.9,2c-0.6,0.6-1.2,0.9-2.1,0.9s-1.5-0.3-2.1-0.9c-0.6-0.6-0.9-1.2-0.9-2s0.3-1.5,0.9-2.1
			C72.3,39.7,73,39.4,73.8,39.4z"/>
		<path d="M96.3,50.2c0.8,0,1.5,0.2,2.1,0.5s1.1,0.8,1.5,1.4c0.3,0.6,0.5,1.1,0.5,1.8s-0.3,1.4-0.8,2s-1.1,0.9-1.8,0.9
			c-0.6,0-1.2-0.2-1.7-0.6c-0.5-0.5-0.8-1.1-0.8-1.8c0-0.6,0.2-1.1,0.5-1.5s0.6-0.8,1.1-0.9c-0.2-0.3-0.5-0.5-0.9-0.5
			c-1.2,0-2.4,0.5-3.4,1.4c-0.9,0.9-1.7,2.1-2.3,3.5s-0.8,2.6-0.8,3.7v9.8c0,1.5,0.5,2.4,1.4,3.1c0.9,0.5,2,0.8,3.5,0.8v0.9
			c-0.8,0-1.7,0-3.1-0.2s-2.6,0-4.1,0c-1.1,0-2.1,0-3.1,0c-0.9,0-1.8,0.2-2.3,0.2v-0.9c1.2,0,2.1-0.3,2.8-0.8
			c0.5-0.5,0.8-1.4,0.8-2.6V55.9c0-1.4-0.3-2.4-0.8-3.1c-0.5-0.6-1.4-0.9-2.8-0.9V51c0.9,0.2,2,0.2,2.9,0.2s1.7,0,2.6-0.2
			c0.8-0.2,1.5-0.3,2.3-0.5v5.8c0.3-0.9,0.8-1.8,1.4-2.8s1.4-1.7,2.3-2.3C94.3,50.7,95.2,50.2,96.3,50.2z"/>
		<path d="M116.8,50.2c0.8,0,1.5,0.2,2.1,0.5s1.1,0.8,1.5,1.4c0.3,0.6,0.5,1.1,0.5,1.8s-0.3,1.4-0.8,2s-1.1,0.9-1.8,0.9
			c-0.6,0-1.2-0.2-1.7-0.6c-0.5-0.5-0.8-1.1-0.8-1.8c0-0.6,0.2-1.1,0.5-1.5s0.6-0.8,1.1-0.9c-0.2-0.3-0.5-0.5-0.9-0.5
			c-1.2,0-2.4,0.5-3.4,1.4c-0.9,0.9-1.7,2.1-2.3,3.5c-0.6,1.4-0.8,2.6-0.8,3.7v9.8c0,1.5,0.5,2.4,1.4,3.1c0.9,0.5,2,0.8,3.5,0.8v0.9
			c-0.8,0-1.7,0-3.1-0.2s-2.6,0-4.1,0c-1.1,0-2.1,0-3.1,0c-0.9,0-1.8,0.2-2.3,0.2v-0.9c1.2,0,2.1-0.3,2.8-0.8
			c0.5-0.5,0.8-1.4,0.8-2.6V55.9c0-1.4-0.3-2.4-0.8-3.1c-0.5-0.6-1.4-0.9-2.8-0.9V51c0.9,0.2,2,0.2,2.9,0.2s1.7,0,2.6-0.2
			c0.8-0.2,1.5-0.3,2.3-0.5v5.8c0.3-0.9,0.8-1.8,1.4-2.8c0.6-0.9,1.4-1.7,2.3-2.3C114.7,50.7,115.7,50.2,116.8,50.2z"/>
		<path d="M133.2,50.2c2,0,3.7,0.5,5.4,1.2c1.7,0.8,2.8,2.1,3.7,4c0.9,1.8,1.4,4.3,1.4,7.2c0,2.9-0.5,5.4-1.4,7.2s-2.1,3.2-3.7,4
			c-1.5,0.8-3.4,1.2-5.4,1.2s-3.7-0.5-5.2-1.2c-1.5-0.8-2.9-2.1-3.8-4c-0.9-1.8-1.4-4.1-1.4-7.2c0-3.1,0.5-5.4,1.4-7.2
			s2.1-3.2,3.8-4C129.7,50.6,131.3,50.2,133.2,50.2z M133.2,51.1c-1.7,0-3.2,0.9-4.3,2.8c-1.1,1.8-1.7,4.7-1.7,8.9s0.6,7,1.7,8.9
			c1.1,1.9,2.6,2.8,4.3,2.8s3.2-0.9,4.3-2.8c1.1-1.8,1.7-4.7,1.7-8.9s-0.6-7-1.7-8.9C136.4,51.9,135,51.1,133.2,51.1z"/>
		<path d="M161.3,50.2c0.8,0,1.5,0.2,2.1,0.5s1.1,0.8,1.5,1.4c0.3,0.6,0.5,1.1,0.5,1.8s-0.3,1.4-0.8,2s-1.1,0.9-1.8,0.9
			c-0.6,0-1.2-0.2-1.7-0.6c-0.5-0.5-0.8-1.1-0.8-1.8c0-0.6,0.2-1.1,0.5-1.5c0.3-0.5,0.6-0.8,1.1-0.9c-0.2-0.3-0.6-0.5-0.9-0.5
			c-1.2,0-2.4,0.5-3.4,1.4c-0.9,0.9-1.7,2.1-2.3,3.5s-0.8,2.6-0.8,3.7v9.8c0,1.5,0.5,2.4,1.4,3.1c0.9,0.5,2,0.8,3.5,0.8v0.9
			c-0.8,0-1.7,0-2.9-0.2s-2.6,0-4.1,0c-1.1,0-2.1,0-3.1,0c-0.9,0-1.8,0.2-2.3,0.2v-0.9c1.2,0,2.1-0.3,2.8-0.8
			c0.5-0.5,0.8-1.4,0.8-2.6V55.9c0-1.4-0.3-2.4-0.8-3.1c-0.5-0.6-1.4-0.9-2.8-0.9V51c0.9,0.2,2,0.2,2.9,0.2s1.7,0,2.6-0.2
			c0.8-0.2,1.5-0.3,2.3-0.5v5.8c0.3-0.9,0.8-1.8,1.4-2.8c0.6-0.9,1.4-1.7,2.3-2.3C159.3,50.7,160.2,50.2,161.3,50.2z"/>
	</g>
</g>
<g>
	<path d="M6.8,50.5c1.5,0,2.7,0.4,3.7,1.1c1,0.7,1.5,1.7,1.5,3c0,0.9-0.3,1.8-0.8,2.6s-1.2,1.5-2,2c-0.8,0.6-1.7,1-2.6,1.4
		c1.1,0,2.2,0.2,3.2,0.6c1,0.4,1.8,1,2.5,1.8s1,1.8,1,3.1c0,1.4-0.4,2.6-1.2,3.7s-1.8,2-3.1,2.8S6.3,74,4.7,74.4S1.5,75,0,75v-0.6
		c1.2,0,2.4-0.2,3.6-0.6s2.2-0.9,3.2-1.6c0.9-0.7,1.7-1.6,2.3-2.6s0.8-2.2,0.8-3.5c0-1.4-0.3-2.6-1-3.5s-1.6-1.4-2.8-1.5
		c-0.4,0.1-0.7,0.3-1,0.4s-0.5,0.2-0.7,0.2c-0.4,0-0.6-0.2-0.6-0.5c0-0.2,0.1-0.4,0.3-0.5c0.2-0.1,0.4-0.2,0.6-0.2s0.4,0,0.6,0.1
		c0.2,0,0.4,0.1,0.7,0.1c1-0.7,1.7-1.6,2.1-2.5s0.6-1.8,0.6-2.7c0-1.1-0.3-1.9-0.8-2.5c-0.6-0.5-1.3-0.8-2.3-0.8S3.7,52.5,2.9,53
		s-1.5,1.3-2.1,2.4L0.3,55c0.4-0.8,0.8-1.5,1.4-2.2s1.3-1.2,2.1-1.7C4.6,50.7,5.7,50.5,6.8,50.5z"/>
	<path d="M19.4,65.5c0.6,0,1.2,0.2,1.6,0.7c0.5,0.5,0.7,1,0.7,1.6S21.5,69,21,69.4s-1,0.7-1.6,0.7s-1.2-0.2-1.6-0.7
		c-0.5-0.5-0.7-1-0.7-1.6s0.2-1.2,0.7-1.6C18.3,65.7,18.8,65.5,19.4,65.5z"/>
</g>
</svg>
