<?xml version="1.0" encoding="utf-8"?>
<!-- Generator: Adobe Illustrator 25.0.1, SVG Export Plug-In . SVG Version: 6.00 Build 0)  -->
<svg version="1.1" id="Layer_1" xmlns="http://www.w3.org/2000/svg" xmlns:xlink="http://www.w3.org/1999/xlink" x="0px" y="0px"
	 viewBox="0 0 238.7 75" style="enable-background:new 0 0 238.7 75;" xml:space="preserve">
<g>
	<g>
		<g>
			<path d="M33.8,17.7v0.7c-0.9,0-1.4,0.2-1.8,0.2c-0.5,0.1-0.7,0.5-0.8,0.9c-0.2,0.3-0.2,1-0.2,1.9v18.2c0,0.9,0.2,1.6,0.2,1.9
				c0.2,0.5,0.5,0.7,0.9,0.9s1.1,0.2,1.8,0.2h2.7c1.6,0,2.7-0.2,3.5-0.6c0.9-0.5,1.4-1.1,1.7-2.2c0.4-1,0.6-2.3,0.7-4h0.9
				c-0.2,0.7-0.2,1.7-0.2,3c0,0.5,0,1.1,0,1.9c0,0.9,0.2,1.7,0.2,2.7c-1.2,0-2.7-0.2-4.3-0.2c-1.6,0-3,0-4.2,0c-0.7,0-1.7,0-3,0
				c-1.3,0-2.5,0-3.9,0c-1.4,0-2.7,0-3.9,0.2v-0.7c0.9,0,1.4-0.2,1.8-0.2c0.4-0.2,0.7-0.5,0.9-0.9c0.2-0.5,0.2-1.1,0.2-1.9V21.6
				c0-0.9-0.2-1.6-0.2-1.9c-0.1-0.6-0.4-0.8-0.8-1c-0.5-0.1-1.1-0.2-1.8-0.2v-0.7c0.5,0,1.2,0,2.1,0.2c0.9,0,1.7,0,2.7,0
				c0.9,0,1.7,0,2.6,0C32.6,17.7,33.3,17.7,33.8,17.7z"/>
			<path d="M51.6,24.3v15.9c0,1,0.2,1.7,0.6,2.1s1.1,0.6,2.2,0.6v0.7c-0.4,0-1.1,0-1.8-0.2c-0.9,0-1.7,0-2.6,0s-1.7,0-2.6,0
				c-0.9,0-1.4,0.2-1.9,0.2v-0.7c1,0,1.7-0.2,2.2-0.6c0.4-0.4,0.6-1.1,0.6-2.1V28.7c0-1.1-0.2-1.9-0.6-2.5c-0.4-0.5-1.1-0.7-2.2-0.7
				v-0.7c0.7,0.2,1.6,0.2,2.3,0.2c0.7,0,1.4,0,2.1-0.2C50.5,24.7,51.1,24.5,51.6,24.3z M49.8,15.6c0.6,0,1.2,0.2,1.6,0.7
				c0.4,0.5,0.7,1,0.7,1.7s-0.2,1.2-0.7,1.6c-0.5,0.5-1,0.7-1.6,0.7c-0.6,0-1.2-0.2-1.7-0.7c-0.5-0.5-0.7-1-0.7-1.6
				c0-0.6,0.2-1.2,0.7-1.7C48.6,15.9,49.2,15.6,49.8,15.6z"/>
			<path d="M65.4,15c0.7,0,1.4,0.2,1.8,0.2c0.5,0.2,1,0.4,1.4,0.7c0.4,0.2,0.6,0.6,0.9,1c0.2,0.3,0.2,0.9,0.2,1.2
				c0,0.6-0.2,1-0.6,1.4S68.2,20,67.8,20c-0.5,0-1-0.2-1.4-0.5c-0.5-0.4-0.6-0.9-0.6-1.4c0-0.5,0.2-1,0.4-1.2
				c0.2-0.4,0.6-0.5,1.1-0.6C67,16,67,15.8,66.6,15.6c-0.4-0.2-0.7-0.2-1.2-0.2c-0.6,0-1.1,0.2-1.4,0.4c-0.4,0.2-0.7,0.6-1,1
				c-0.2,0.5-0.5,1.2-0.5,2.3c-0.2,1-0.2,2.6-0.2,4.6v1h4v0.8h-3.9v14.3c0,1.2,0.4,1.9,1.1,2.5c0.7,0.5,1.6,0.6,2.8,0.6v0.7
				c-0.6,0-1.4,0-2.5-0.2c-1.1-0.2-2.1,0-3.3,0c-0.9,0-1.7,0-2.5,0c-0.8,0-1.4,0.2-1.8,0.2v-0.7c1,0,1.7-0.2,2.2-0.6
				c0.4-0.4,0.6-1.1,0.6-2.1V25.4h-3v-0.7H59c0-2.2,0.2-3.8,0.4-5c0.2-1.1,0.8-2.2,1.4-3c0.5-0.6,1.1-1,1.8-1.4
				C63.4,14.9,64.5,15,65.4,15z"/>
			<path d="M76.8,24.3c2.2,0,3.8,0.6,5,1.9c1.3,1.3,1.8,3.3,1.8,6.1h-13v-0.7h9.4c0-1.2,0-2.3-0.2-3.3s-0.6-1.8-1.1-2.5
				c-0.5-0.6-1.2-1-2.1-1c-1.1,0-2.1,0.6-3,1.7c-0.9,1.1-1.4,3-1.6,5.4l0.2,0.2c0,0.4-0.2,0.7-0.2,1.2c0,0.5,0,0.9,0,1.4
				c0,1.7,0.2,3,0.9,4.3c0.5,1.2,1.2,2.1,2.1,2.7c0.9,0.6,1.7,1,2.7,1c1.1,0,2.1-0.2,3-0.9c1-0.5,1.7-1.4,2.3-2.8l0.7,0.2
				c-0.2,0.9-0.7,1.6-1.4,2.3c-0.6,0.7-1.4,1.4-2.3,1.8c-1,0.5-1.9,0.7-3.2,0.7c-1.7,0-3.3-0.4-4.6-1.2c-1.3-0.8-2.2-1.9-3-3.3
				c-0.7-1.4-1-3-1-4.9c0-2.2,0.4-4,1-5.5c0.7-1.6,1.6-2.8,3-3.5C73.6,24.7,75.1,24.3,76.8,24.3z"/>
			<path d="M105.8,18c1,0,1.7,0.2,2.3,0.4c0.6,0.2,1.1,0.5,1.4,0.7c0.5,0.4,0.9,0.9,1.1,1.2c0.2,0.5,0.4,0.9,0.4,1.2
				c0,0.6-0.2,1.1-0.6,1.4c-0.4,0.4-0.9,0.5-1.4,0.5c-0.5,0-1-0.2-1.4-0.5c-0.4-0.4-0.6-0.7-0.6-1.4c0-0.5,0.2-1,0.6-1.4
				c0.4-0.4,0.9-0.6,1.4-0.6c-0.2-0.4-0.4-0.6-0.9-0.9c-0.5-0.2-1.1-0.4-1.8-0.4c-1.2,0-2.3,0.4-3,1.1c-0.7,0.7-1.2,1.8-1.2,3.3
				c0,0.7,0.2,1.4,0.4,2.1c0.2,0.7,0.7,1.4,1.4,2.1c0.4-0.2,0.9-0.2,1.2-0.2c0.5,0,0.7,0,1,0c1,0,1.4,0.2,1.4,0.9
				c0,0.2-0.2,0.4-0.2,0.5c-0.2,0.2-0.5,0.2-0.7,0.2c-0.5,0-1-0.2-1.4-0.4s-1-0.4-1.2-0.5c-1.4,0.4-2.6,1.1-3.4,2.1s-1.4,2.3-1.4,4
				s0.5,3,1.4,4.3c0.9,1.2,2.1,2.1,3.5,2.7c1.4,0.6,3.2,1,5,1c1.4,0,2.6-0.2,3.7-0.5c1.1-0.4,2.2-0.7,3-1.4c0.9-0.6,1.6-1.4,2.1-2.1
				c0.5-0.9,0.7-1.7,0.7-2.8c0-0.5-0.2-1.1-0.2-1.8c-0.2-0.7-0.6-1.4-1.2-2.1c-0.6-0.7-1.6-1.2-2.8-1.6l0.5-0.4
				c1.8,0.5,3,1.4,3.8,2.6s1.1,2.6,1.1,4s-0.5,3-1.4,4.3c-0.9,1.4-2.2,2.5-3.8,3.3c-1.7,0.9-3.7,1.2-6.1,1.2c-2.1,0-4-0.4-5.8-1.1
				c-1.8-0.7-3.3-1.8-4.4-3.2c-1.1-1.4-1.7-3-1.7-4.9c0-1.4,0.2-2.5,0.7-3.4c0.5-1,1.1-1.7,1.9-2.3c0.7-0.6,1.4-1.1,2.3-1.4
				c0.7-0.4,1.4-0.6,1.8-0.7c-1.2-0.5-2.2-1.2-2.8-2.1c-0.6-0.9-1-1.7-1-2.7c0-0.6,0.2-1.1,0.4-1.7c0.2-0.5,0.6-1.1,1.2-1.4
				c0.5-0.5,1.1-0.7,1.9-1C103.8,18,104.9,18,105.8,18z M119.2,17.2c1.4,0,2.8,0.5,3.8,1.4c1,0.9,1.6,2.1,1.6,3.7
				c0,1.2-0.4,2.3-1,3.2c-0.7,0.9-1.4,1.4-2.5,1.9c-0.6,0.2-1.4,0.6-2.2,0.9c-1,0.4-1.9,0.6-3,1c-1.1,0.4-2.1,0.6-3,1
				c-1,0.4-1.7,0.6-2.3,0.7c-0.9,0.4-1.7,0.7-2.3,1.2c-0.6,0.5-1,1.1-1,1.9c0,0.6,0.2,1.2,0.6,1.6c0.4,0.5,0.9,0.7,1.4,1
				c0.5,0.2,1,0.4,1.4,0.4c0.4,0,0.7-0.2,1.4-0.2c0.5-0.2,0.9-0.4,0.9-0.6c-0.4-0.2-0.7-0.2-1.1-0.5s-0.6-0.7-0.6-1.4
				c0-0.6,0.2-1.1,0.6-1.4c0.4-0.4,0.9-0.5,1.4-0.5c0.6,0,1.1,0.2,1.4,0.6c0.4,0.4,0.5,0.9,0.5,1.4c0,0.7-0.2,1.2-0.7,1.7
				c-0.5,0.5-1,0.9-1.7,1.1c-0.6,0.2-1.4,0.4-1.9,0.4c-0.7,0-1.4-0.2-2.1-0.5c-0.7-0.2-1.4-0.7-1.7-1.4c-0.5-0.6-0.7-1.4-0.7-2.5
				c0-1.2,0.4-2.3,1.2-3.2c0.9-0.9,2.1-1.6,3.8-2.2c0.7-0.2,1.6-0.5,2.7-0.9c1.1-0.2,2.1-0.6,3.3-1c1.1-0.4,2.1-0.7,3-1.1
				c1.2-0.6,2.1-1.1,2.5-1.7c0.5-0.6,0.6-1.2,0.6-1.8c0-1.1-0.4-1.9-1.2-2.7c-0.8-0.8-1.8-1.1-3-1.1c-0.2,0-0.5,0-0.7,0.2
				c-0.2,0-0.4,0.2-0.4,0.2c0.4,0.2,0.6,0.4,0.7,0.7c0.2,0.4,0.2,0.6,0.2,1c0,0.5-0.2,1-0.6,1.4c-0.4,0.4-0.9,0.5-1.4,0.5
				c-0.5,0-0.9-0.2-1.4-0.5c-0.5-0.4-0.6-0.7-0.6-1.4s0.2-1.1,0.6-1.4c0.4-0.4,1-0.6,1.6-0.7C117.9,17.2,118.6,17.2,119.2,17.2z"/>
		</g>
		<g>
			<path d="M33.8,48.6v0.7c-0.9,0-1.4,0.2-1.8,0.2c-0.5,0.2-0.7,0.5-0.9,0.9c-0.2,0.5-0.2,1.1-0.2,1.9v18.2c0,0.9,0.2,1.6,0.2,1.9
				c0.2,0.5,0.5,0.7,0.9,0.9s1.1,0.2,1.8,0.2h2.7c1.6,0,2.7-0.2,3.5-0.6c0.7-0.5,1.4-1.1,1.7-2.2c0.4-1,0.6-2.3,0.7-4h0.9
				c-0.2,0.7-0.2,1.7-0.2,3c0,0.5,0,1.1,0,1.9s0.2,1.7,0.2,2.7c-1.2,0-2.7-0.2-4.3-0.2c-1.6,0-3,0-4.2,0c-0.7,0-1.7,0-3,0
				c-1.3,0-2.5,0-3.9,0c-1.4,0-2.7,0-3.9,0.2v-0.7c0.9,0,1.4-0.2,1.8-0.2c0.4-0.2,0.7-0.5,0.9-0.9c0.2-0.5,0.2-1.1,0.2-1.9V52.5
				c0-0.9-0.2-1.6-0.2-1.9c-0.2-0.4-0.5-0.7-0.9-0.9c-0.2-0.2-1-0.3-1.7-0.3v-0.7c0.5,0,1.2,0,2.1,0.2c0.9,0,1.7,0,2.7,0
				c0.9,0,1.7,0,2.6,0C32.5,48.6,33.3,48.6,33.8,48.6z"/>
			<path d="M51.6,55.2v15.9c0,1,0.2,1.7,0.6,2.1s1.1,0.6,2.2,0.6v0.7c-0.4,0-1.1,0-1.8-0.2c-0.9,0-1.7,0-2.6,0s-1.7,0-2.6,0
				c-0.9,0-1.4,0.2-1.9,0.2v-0.7c1,0,1.7-0.2,2.2-0.6c0.4-0.4,0.6-1.1,0.6-2.1V59.6c0-1.1-0.2-1.9-0.6-2.5c-0.4-0.5-1.1-0.7-2.2-0.7
				v-0.7c0.7,0.2,1.6,0.2,2.3,0.2c0.7,0,1.4,0,2.1-0.2C50.5,55.6,51.1,55.4,51.6,55.2z M49.8,46.5c0.6,0,1.2,0.2,1.6,0.7
				c0.4,0.5,0.7,1,0.7,1.7s-0.2,1.2-0.7,1.6c-0.5,0.5-1,0.7-1.6,0.7c-0.6,0-1.2-0.2-1.7-0.7c-0.5-0.5-0.7-1-0.7-1.6s0.2-1.2,0.7-1.7
				C48.6,46.8,49.2,46.5,49.8,46.5z"/>
			<path d="M68.6,55.2c0.9,0,1.6,0.2,2.2,0.4c0.6,0.2,1.2,0.6,1.6,1c0.5,0.5,0.7,1.1,1,1.9c0.2,0.7,0.2,1.7,0.2,3v9.8
				c0,1,0.2,1.7,0.6,2.1c0.5,0.4,1.1,0.6,2.2,0.6v0.7c-0.4,0-1.1,0-1.9-0.2c-0.9-0.2-1.7,0-2.5,0c-0.8,0-1.6,0-2.3,0
				c-0.7,0-1.4,0.2-1.7,0.2v-0.7c0.9,0,1.4-0.2,1.8-0.6s0.6-1.1,0.6-2.1V60.5c0-0.7,0-1.4-0.2-2.1c-0.2-0.6-0.4-1.1-0.7-1.6
				c-0.4-0.4-1-0.6-1.9-0.6c-1,0-1.8,0.2-2.6,0.9c-0.7,0.6-1.4,1.4-1.7,2.5c-0.7,1-0.9,2.2-0.9,3.4v8.2c0,1,0.2,1.7,0.6,2.1
				c0.4,0.4,1,0.6,1.8,0.6v0.7c-0.4,0-1,0-1.7-0.2c-0.7,0-1.6,0-2.3,0s-1.6,0-2.5,0s-1.4,0.2-1.9,0.2v-0.7c1,0,1.7-0.2,2.2-0.6
				c0.4-0.4,0.6-1.1,0.6-2.1V59.7c0-1.1-0.2-1.9-0.6-2.5c-0.4-0.5-1.1-0.7-2.2-0.7v-0.7c0.7,0.2,1.6,0.2,2.3,0.2
				c0.7,0,1.4,0,2.1-0.2c0.6-0.2,1.2-0.2,1.8-0.4v4.3c0.6-1.6,1.4-2.7,2.6-3.4C66.2,55.4,67.4,55.2,68.6,55.2z M79.6,55.2
				c0.9,0,1.6,0.2,2.2,0.4c0.6,0.2,1.1,0.6,1.6,1c0.5,0.5,0.7,1.1,1,1.9c0.2,0.7,0.2,1.7,0.2,3v9.8c0,1,0.2,1.7,0.6,2.1
				s1.1,0.6,2.2,0.6v0.7c-0.4,0-1.1,0-1.9-0.2c-0.9-0.2-1.7,0-2.5,0c-0.7,0-1.6,0-2.3,0c-0.7,0-1.4,0.2-1.7,0.2v-0.7
				c0.9,0,1.4-0.2,1.8-0.6s0.6-1.1,0.6-2.1V60.5c0-0.7,0-1.4-0.2-2.1s-0.4-1.1-0.7-1.6c-0.4-0.4-1-0.6-1.9-0.6
				c-1.4,0-2.6,0.6-3.5,1.9c-1,1.2-1.4,2.8-1.4,4.8l-0.2-3.4c0.6-1.7,1.6-2.8,2.7-3.4C77.2,55.4,78.4,55.2,79.6,55.2z"/>
			<path d="M98,55.2c2.2,0,3.8,0.6,5,1.9c1.2,1.4,1.8,3.3,1.8,6.1h-13v-0.7h9.4c0-1.2,0-2.3-0.2-3.3c-0.2-1-0.6-1.8-1.1-2.5
				c-0.5-0.6-1.2-0.9-2.1-0.9c-1.1,0-2.1,0.6-3,1.7c-0.9,1.1-1.4,3-1.6,5.4l0.2,0.2c0,0.4-0.2,0.7-0.2,1.2c0,0.5,0,0.9,0,1.4
				c0,1.7,0.2,3,0.9,4.3c0.5,1.2,1.2,2.1,2.1,2.7c0.9,0.6,1.7,1,2.7,1c1.1,0,2.1-0.2,3-0.9c1-0.5,1.7-1.4,2.3-2.8l0.7,0.2
				c-0.2,0.9-0.7,1.6-1.4,2.3c-0.6,0.7-1.4,1.4-2.3,1.8c-1,0.5-1.9,0.7-3.2,0.7c-1.7,0-3.3-0.4-4.6-1.2c-1.3-0.8-2.1-2-2.8-3.4
				c-0.7-1.4-1-3-1-4.9c0-2.2,0.4-4,1-5.5c0.7-1.6,1.6-2.8,3-3.5C94.8,55.6,96.1,55.2,98,55.2z"/>
			<path d="M118.9,55.2c0.6,0,1.2,0.2,1.7,0.4c0.5,0.2,0.9,0.6,1.2,1.1c0.2,0.5,0.4,0.9,0.4,1.4c0,0.6-0.2,1.1-0.6,1.6
				c-0.4,0.5-0.9,0.7-1.4,0.7c-0.5,0-1-0.2-1.4-0.5c-0.4-0.4-0.6-0.9-0.6-1.4c0-0.5,0.2-0.9,0.4-1.2c0.2-0.3,0.5-0.6,0.9-0.7
				c-0.2-0.2-0.4-0.4-0.7-0.4c-1,0-1.9,0.4-2.7,1.1c-0.7,0.7-1.4,1.7-1.8,2.8c-0.5,1.1-0.6,2.1-0.6,3v7.8c0,1.2,0.4,1.9,1.1,2.5
				c0.7,0.4,1.6,0.6,2.8,0.6v0.7c-0.6,0-1.4,0-2.3-0.2s-2.1,0-3.3,0c-0.9,0-1.7,0-2.5,0c-0.7,0-1.4,0.2-1.8,0.2V74
				c1,0,1.7-0.2,2.2-0.6c0.4-0.4,0.6-1.1,0.6-2.1V59.7c0-1.1-0.2-1.9-0.6-2.5s-1.1-0.7-2.2-0.7v-0.7c0.7,0.2,1.6,0.2,2.3,0.2
				s1.4,0,2.1-0.2c0.6-0.2,1.2-0.2,1.8-0.4V60c0.2-0.7,0.6-1.4,1.1-2.2c0.5-0.8,1.1-1.4,1.8-1.8C117.4,55.4,118.2,55.2,118.9,55.2z"
				/>
			<path d="M129.9,55.2v15.9c0,1,0.2,1.7,0.6,2.1c0.4,0.4,1.1,0.6,2.2,0.6v0.7c-0.4,0-1.1,0-1.8-0.2c-0.9,0-1.7,0-2.6,0
				s-1.7,0-2.6,0c-0.9,0-1.4,0.2-1.9,0.2v-0.7c1,0,1.7-0.2,2.2-0.6c0.5-0.4,0.6-1.1,0.6-2.1V59.6c0-1.1-0.2-1.9-0.6-2.5
				c-0.4-0.5-1.1-0.7-2.2-0.7v-0.7c0.7,0.2,1.6,0.2,2.3,0.2c0.7,0,1.4,0,2.1-0.2C129,55.6,129.7,55.4,129.9,55.2z M128.1,46.5
				c0.6,0,1.2,0.2,1.7,0.7c0.5,0.5,0.7,1,0.7,1.7s-0.2,1.2-0.7,1.6c-0.5,0.5-1,0.7-1.7,0.7c-0.7,0-1.2-0.2-1.6-0.7
				c-0.5-0.5-0.7-1-0.7-1.6s0.2-1.2,0.7-1.7C126.9,46.8,127.4,46.5,128.1,46.5z"/>
			<path d="M143.9,55.2c0.7,0,1.6,0.2,2.3,0.2c0.7,0.2,1.4,0.5,1.9,0.9c0.6,0.4,1,0.7,1.2,1.2s0.5,1,0.5,1.6s-0.2,1.2-0.6,1.4
				c-0.4,0.4-0.9,0.5-1.4,0.5s-1-0.2-1.4-0.5c-0.4-0.4-0.6-0.7-0.6-1.4s0.2-1,0.5-1.4s0.6-0.6,1.1-0.6c-0.2-0.5-0.7-0.9-1.4-1.1
				c-0.6-0.2-1.4-0.5-1.9-0.5c-0.6,0-1.2,0.2-1.8,0.5c-0.6,0.2-1.2,0.7-1.7,1.4s-1,1.6-1.2,2.8c-0.4,1.2-0.5,2.6-0.5,4.4
				c0,2.2,0.2,3.9,0.7,5.1c0.5,1.2,1.1,2.2,1.9,2.7c0.7,0.6,1.7,0.9,2.6,0.9c1,0,1.9-0.2,3-0.9c1-0.6,1.8-1.6,2.5-3l0.7,0.2
				c-0.2,0.7-0.6,1.6-1.2,2.3c-0.6,0.9-1.4,1.4-2.2,1.9c-0.9,0.5-2.1,0.7-3.3,0.7c-1.4,0-3-0.4-4.2-1.2c-1.2-0.9-2.2-1.9-3-3.3
				c-0.7-1.4-1.1-3.2-1.1-5.1s0.4-3.8,1.1-5.3c0.7-1.4,1.7-2.7,3-3.5C140.7,55.6,142.2,55.2,143.9,55.2z"/>
			<path d="M158.3,45.7v25.4c0,1,0.2,1.7,0.5,2.1c0.4,0.4,1,0.6,1.8,0.6v0.7c-0.4,0-1,0-1.7-0.2s-1.6,0-2.3,0c-0.9,0-1.7,0-2.6,0
				s-1.4,0.2-1.9,0.2v-0.7c1,0,1.7-0.2,2.2-0.6c0.5-0.4,0.6-1.1,0.6-2.1v-21c0-1.1-0.2-1.9-0.6-2.5c-0.4-0.5-1.1-0.7-2.2-0.7v-0.7
				c0.7,0.2,1.6,0.2,2.3,0.2c0.7,0,1.4,0,2.1-0.2C157.3,46,157.8,45.9,158.3,45.7z M169.9,55.6v0.7c-0.6,0-1.2,0.2-1.7,0.5
				c-0.5,0.2-1.1,0.7-1.6,1.2l-5.1,5.4l0.5-1l6.9,9.3c0.4,0.6,0.9,1,1.2,1.4c0.4,0.4,0.9,0.5,1.4,0.6v0.7c-0.2,0-0.7,0-1.2-0.2
				c-0.5-0.2-1.1,0-1.7,0c-0.7,0-1.6,0-2.3,0c-0.7,0-1.4,0.2-1.7,0.2v-0.7c0.5,0,0.9-0.2,1-0.4c0.2-0.2,0.2-0.5-0.2-0.9l-4.3-6.1
				c-0.5-0.6-0.9-1.1-1.2-1.4c-0.4-0.2-1-0.2-1.6-0.4v-0.7c0.7-0.2,1.4-0.2,1.9-0.5c0.5-0.2,1-0.6,1.4-1.1l2.7-2.8
				c0.7-0.9,1.2-1.4,1.2-1.9c0-0.5-0.2-0.9-0.7-1c-0.5-0.2-1.1-0.4-1.9-0.4v-0.7c0.6,0,1.4,0,2.2,0.2c0.7,0,1.4,0,1.9,0
				c0.4,0,0.9,0,1.2,0c0.4,0,0.7,0,1.1,0C169.4,55.6,169.7,55.6,169.9,55.6z"/>
		</g>
	</g>
	<g>
		<path d="M5.7,59.4c1.4,0,2.4,0.3,3.1,1C9.6,61,10,61.9,10,63.1c0,1-0.2,1.8-0.8,2.7c-0.6,0.9-1.2,1.6-2,2.4
			c-0.8,0.7-1.6,1.4-2.4,2.2c-0.8,0.7-1.4,1.4-2,2.2h5.8c0.8,0,1.3-0.1,1.5-0.3c0.2-0.2,0.3-0.6,0.4-1.1H11c0,1,0,1.8,0,2.3
			c0,0.6,0.1,1,0.1,1.5c-0.2-0.1-0.8-0.1-1.7-0.1s-1.8,0-2.6,0H0.1v-0.5c0.6-0.6,1.3-1.3,2.1-2C3,71.6,3.8,70.8,4.5,70
			c0.7-0.9,1.4-1.8,1.9-2.8c0.5-1,0.8-2.1,0.8-3.3c0-1.1-0.2-1.9-0.8-2.4s-1.2-0.7-2.1-0.7c-0.8,0-1.4,0.2-2.2,0.6
			c-0.6,0.5-1.2,1.1-1.8,2L0,63c0.5-0.9,1.1-1.8,2-2.5C2.9,59.7,4.1,59.4,5.7,59.4z"/>
		<path d="M16.1,71.3c0.5,0,1,0.2,1.3,0.6c0.4,0.4,0.6,0.8,0.6,1.3c0,0.5-0.2,1-0.6,1.3C17,74.8,16.6,75,16.1,75s-1-0.2-1.3-0.6
			c-0.4-0.4-0.6-0.8-0.6-1.3c0-0.5,0.2-1,0.6-1.3C15.1,71.5,15.6,71.3,16.1,71.3z"/>
	</g>
</g>
</svg>
